<?xml version="1.0" encoding="UTF-8"?>
<svg width="800" height="500" xmlns="http://www.w3.org/2000/svg">
    <!-- Background -->
    <rect width="100%" height="100%" fill="white"/>
    
    <!-- Grid -->
    <pattern id="grid" width="40" height="40" patternUnits="userSpaceOnUse">
        <path d="M 40 0 L 0 0 0 40" fill="none" stroke="#f0f0f0" stroke-width="1"/>
    </pattern>
    <rect width="100%" height="100%" fill="url(#grid)"/>
    
    <!-- Title -->
    <text x="400" y="40" text-anchor="middle" font-size="24" font-family="Arial" font-weight="bold">
        Anomalous Dispersion
    </text>
    
    <!-- Coordinate System -->
    <line x1="100" y1="400" x2="700" y2="400" stroke="black" stroke-width="2"/>
    <line x1="100" y1="400" x2="100" y2="100" stroke="black" stroke-width="2"/>
    
    <!-- Axis Labels -->
    <text x="400" y="440" text-anchor="middle" font-size="20" font-family="Arial">Frequency (ω)</text>
    <text x="50" y="250" text-anchor="middle" font-size="20" font-family="Arial" transform="rotate(-90,50,250)">
        Refractive Index (n)
    </text>
    
    <!-- Normal and Anomalous Regions -->
    <path d="M 100,300 
             Q 200,280 300,320 
             L 300,320 
             Q 400,150 500,320 
             L 500,320 
             Q 600,280 700,300" 
          stroke="#FF5722" stroke-width="4" fill="none"/>
    
    <!-- Absorption Band -->
    <rect x="350" y="150" width="100" height="250" fill="#FFE0E0" opacity="0.3"/>
    <text x="400" y="130" text-anchor="middle" font-size="16" font-family="Arial">
        Absorption Band
    </text>
    
    <!-- Region Labels -->
    <text x="200" y="250" font-size="16" fill="#666">Normal</text>
    <text x="400" y="250" font-size="16" fill="#FF5722">Anomalous</text>
    <text x="600" y="250" font-size="16" fill="#666">Normal</text>
    
    <!-- Arrows for Slope -->
    <defs>
        <marker id="arrowhead" markerWidth="10" markerHeight="7" 
                refX="9" refY="3.5" orient="auto">
            <polygon points="0 0, 10 3.5, 0 7" fill="#FF5722"/>
        </marker>
    </defs>
    
    <!-- Negative Slope Indicator -->
    <line x1="380" y1="200" x2="420" y2="250" 
          stroke="#FF5722" stroke-width="2" marker-end="url(#arrowhead)"/>
    <text x="450" y="220" font-family="Arial" font-size="14" fill="#FF5722">
        dn/dω < 0
    </text>
    
    <!-- Key Features -->
    <g transform="translate(150,450)">
        <text font-family="Arial" font-size="14">
            • Strong absorption near resonance frequency
        </text>
        <text y="20" font-family="Arial" font-size="14">
            • Rapid change in refractive index
        </text>
        <text y="40" font-family="Arial" font-size="14">
            • Phase shift between driving force and response
        </text>
    </g>
</svg>
