<?xml version="1.0" encoding="UTF-8"?>
<svg width="800" height="400" version="1.1" xmlns="http://www.w3.org/2000/svg">
    <!-- Background -->
    <rect width="100%" height="100%" fill="white"/>
    
    <!-- Circuit Elements -->
    <g id="circuit" transform="translate(50,50)">
        <!-- Series Circuit -->
        <g id="series-circuit" transform="translate(0,0)">
            <!-- Resistors -->
            <rect x="50" y="50" width="60" height="20" fill="#E0E0E0" stroke="#666"/>
            <rect x="150" y="50" width="60" height="20" fill="#E0E0E0" stroke="#666"/>
            
            <!-- Wires -->
            <line x1="0" y1="60" x2="50" y2="60" stroke="#000" stroke-width="2"/>
            <line x1="110" y1="60" x2="150" y2="60" stroke="#000" stroke-width="2"/>
            <line x1="210" y1="60" x2="260" y2="60" stroke="#000" stroke-width="2"/>
            
            <!-- Labels -->
            <text x="80" y="85" font-size="12" text-anchor="middle">R₁</text>
            <text x="180" y="85" font-size="12" text-anchor="middle">R₂</text>
            <text x="130" y="30" font-size="14" text-anchor="middle">Series</text>
        </g>
        
        <!-- Parallel Circuit -->
        <g id="parallel-circuit" transform="translate(0,150)">
            <!-- Resistors -->
            <rect x="100" y="20" width="60" height="20" fill="#E0E0E0" stroke="#666"/>
            <rect x="100" y="80" width="60" height="20" fill="#E0E0E0" stroke="#666"/>
            
            <!-- Wires -->
            <line x1="50" y1="30" x2="100" y2="30" stroke="#000" stroke-width="2"/>
            <line x1="50" y1="90" x2="100" y2="90" stroke="#000" stroke-width="2"/>
            <line x1="160" y1="30" x2="210" y2="30" stroke="#000" stroke-width="2"/>
            <line x1="160" y1="90" x2="210" y2="90" stroke="#000" stroke-width="2"/>
            <line x1="50" y1="30" x2="50" y2="90" stroke="#000" stroke-width="2"/>
            <line x1="210" y1="30" x2="210" y2="90" stroke="#000" stroke-width="2"/>
            
            <!-- Labels -->
            <text x="130" y="35" font-size="12" text-anchor="middle">R₁</text>
            <text x="130" y="95" font-size="12" text-anchor="middle">R₂</text>
            <text x="130" y="0" font-size="14" text-anchor="middle">Parallel</text>
        </g>
        
        <!-- Equations -->
        <g id="equations" transform="translate(300,0)">
            <!-- Series equation -->
            <text x="0" y="60" font-size="14" font-family="Arial">
                R_total = R₁ + R₂
            </text>
            
            <!-- Parallel equation -->
            <text x="0" y="210" font-size="14" font-family="Arial">
                1/R_total = 1/R₁ + 1/R₂
            </text>
        </g>
    </g>
    
    <!-- Mesh Analysis -->
    <g id="mesh" transform="translate(500,50)">
        <!-- Circuit -->
        <rect x="50" y="50" width="40" height="20" fill="#E0E0E0" stroke="#666"/>
        <rect x="150" y="50" width="40" height="20" fill="#E0E0E0" stroke="#666"/>
        <rect x="100" y="120" width="40" height="20" fill="#E0E0E0" stroke="#666"/>
        
        <!-- Wires -->
        <line x1="50" y1="60" x2="30" y2="60" stroke="#000" stroke-width="2"/>
        <line x1="90" y1="60" x2="150" y2="60" stroke="#000" stroke-width="2"/>
        <line x1="190" y1="60" x2="210" y2="60" stroke="#000" stroke-width="2"/>
        <line x1="30" y1="60" x2="30" y2="130" stroke="#000" stroke-width="2"/>
        <line x1="30" y1="130" x2="100" y2="130" stroke="#000" stroke-width="2"/>
        <line x1="140" y1="130" x2="210" y2="130" stroke="#000" stroke-width="2"/>
        <line x1="210" y1="130" x2="210" y2="60" stroke="#000" stroke-width="2"/>
        
        <!-- Mesh currents -->
        <path d="M 70,90 A 30,30 0 0,1 120,90" 
              fill="none" stroke="#2196F3" stroke-width="2" 
              marker-end="url(#arrowhead)"/>
        <path d="M 160,90 A 30,30 0 0,1 120,90" 
              fill="none" stroke="#F44336" stroke-width="2" 
              marker-end="url(#arrowhead)"/>
              
        <!-- Arrowhead marker -->
        <defs>
            <marker id="arrowhead" markerWidth="10" markerHeight="7" 
                    refX="9" refY="3.5" orient="auto">
                <polygon points="0 0, 10 3.5, 0 7" fill="#000"/>
            </marker>
        </defs>
        
        <!-- Labels -->
        <text x="80" y="85" font-size="12" fill="#2196F3">i₁</text>
        <text x="160" y="85" font-size="12" fill="#F44336">i₂</text>
        <text x="120" y="30" font-size="14">Mesh Analysis</text>
    </g>
    
    <!-- Title -->
    <text x="400" y="30" font-size="20" text-anchor="middle" font-family="Arial">
        Circuit Analysis Methods
    </text>
</svg>
