<?xml version="1.0" encoding="UTF-8" standalone="no"?>
<svg width="800" height="400" viewBox="0 0 800 400" xmlns="http://www.w3.org/2000/svg">
    <!-- Background -->
    <rect width="800" height="400" fill="#f8f9fa"/>
    
    <!-- Title -->
    <text x="400" y="40" text-anchor="middle" font-family="Arial" font-size="20" fill="#333">Pulley System Analysis</text>
    
    <!-- Left: Simple Pulley System -->
    <g transform="translate(250, 200)">
        <!-- Support -->
        <rect x="-100" y="-150" width="200" height="20" fill="#666"/>
        
        <!-- Pulley -->
        <circle cx="0" cy="-100" r="30" fill="#ddd" stroke="#333" stroke-width="2"/>
        <circle cx="0" cy="-100" r="5" fill="#333"/>
        
        <!-- String -->
        <path d="M -30,-100 L -80,50 M 30,-100 L 80,50" stroke="#333" stroke-width="2" fill="none"/>
        
        <!-- Masses -->
        <rect x="-100" y="50" width="40" height="40" fill="#2196F3" stroke="#333" stroke-width="2"/>
        <rect x="60" y="50" width="40" height="40" fill="#4CAF50" stroke="#333" stroke-width="2"/>
        
        <!-- Force Vectors -->
        <path d="M -80,70 L -80,120" stroke="#ff4444" stroke-width="3" marker-end="url(#arrowhead)"/>
        <path d="M 80,70 L 80,120" stroke="#ff4444" stroke-width="3" marker-end="url(#arrowhead)"/>
        <path d="M -80,50 L -80,0" stroke="#FF9800" stroke-width="3" marker-end="url(#arrowhead)"/>
        <path d="M 80,50 L 80,0" stroke="#FF9800" stroke-width="3" marker-end="url(#arrowhead)"/>
        
        <!-- Labels -->
        <text x="-80" y="140" font-family="Arial" font-size="14" fill="#666">m₁g</text>
        <text x="80" y="140" font-family="Arial" font-size="14" fill="#666">m₂g</text>
        <text x="-80" y="-10" font-family="Arial" font-size="14" fill="#666">T</text>
        <text x="80" y="-10" font-family="Arial" font-size="14" fill="#666">T</text>
    </g>
    
    <!-- Right: Motion Analysis -->
    <g transform="translate(600, 200)">
        <!-- Coordinate System -->
        <line x1="-100" y1="0" x2="100" y2="0" stroke="#333" stroke-width="2" marker-end="url(#arrowhead)"/>
        <line x1="0" y1="100" x2="0" y2="-100" stroke="#333" stroke-width="2" marker-end="url(#arrowhead)"/>
        
        <!-- Acceleration Vectors -->
        <path d="M -50,0 L -50,-60" stroke="#4CAF50" stroke-width="3" marker-end="url(#arrowhead)"/>
        <path d="M 50,0 L 50,60" stroke="#4CAF50" stroke-width="3" marker-end="url(#arrowhead)"/>
        
        <!-- Labels -->
        <text x="-50" y="-70" font-family="Arial" font-size="14" fill="#666">a₁</text>
        <text x="50" y="80" font-family="Arial" font-size="14" fill="#666">a₂</text>
        <text x="90" y="15" font-family="Arial" font-size="14" fill="#666">x</text>
        <text x="15" y="-90" font-family="Arial" font-size="14" fill="#666">y</text>
        
        <!-- Equations -->
        <text x="0" y="-120" text-anchor="middle" font-family="Arial" font-size="14" fill="#666">|a₁| = |a₂| = a</text>
        <text x="0" y="120" text-anchor="middle" font-family="Arial" font-size="14" fill="#666">T = m₁(g + a) = m₂(g - a)</text>
    </g>
    
    <!-- Arrowhead marker -->
    <defs>
        <marker id="arrowhead" markerWidth="10" markerHeight="7" refX="9" refY="3.5" orient="auto">
            <polygon points="0 0, 10 3.5, 0 7" fill="#333"/>
        </marker>
    </defs>
</svg>
