<?xml version="1.0" encoding="UTF-8" standalone="no"?>
<svg width="500" height="500" viewBox="-250 -250 500 500" xmlns="http://www.w3.org/2000/svg">
    <!-- White background that covers the entire viewport -->
    <rect x="-250" y="-250" width="500" height="500" fill="white"/>
    <!-- Background Grid (light) -->
    <pattern id="grid" width="50" height="50" patternUnits="userSpaceOnUse">
        <path d="M 50 0 L 0 0 0 50" fill="none" stroke="#f0f0f0" stroke-width="1"/>
    </pattern>
    <rect x="-250" y="-250" width="500" height="500" fill="url(#grid)"/>
    
    <!-- Circle Path -->
    <circle cx="0" cy="0" r="150" fill="none" stroke="#2196F3" stroke-width="3" stroke-dasharray="10,5"/>
    
    <!-- Radius Vector -->
    <line x1="0" y1="0" x2="150" y2="0" stroke="#666" stroke-width="2"/>
    <text x="70" y="-10" fill="#666" font-family="Arial" font-size="24">R</text>
    
    <!-- Starting/Ending Point -->
    <circle cx="150" cy="0" r="6" fill="#4CAF50"/>
    <text x="160" y="25" fill="#4CAF50" font-family="Arial" font-size="20">P (start/end)</text>
    
    <!-- Path Arrow showing complete revolution -->
    <path d="M 150 0 A 150 150 0 1 1 149.99 0.1" fill="none" stroke="#2196F3" stroke-width="3" marker-end="url(#arrowhead)"/>
    
    <!-- Arrow Definition -->
    <defs>
        <marker id="arrowhead" markerWidth="10" markerHeight="7" refX="9" refY="3.5" orient="auto">
            <polygon points="0 0, 10 3.5, 0 7" fill="#2196F3"/>
        </marker>
    </defs>
    
    <!-- Distance Label (along circle) -->
    <path id="distanceLabel" d="M 0 -180 A 180 180 0 0 1 180 0" fill="none"/>
    <text font-size="16" fill="#2196F3">
        <textPath href="#distanceLabel" startOffset="25%">Distance = 2πR (full circle)</textPath>
    </text>
    
    <!-- Displacement Label -->
    <text x="-230" y="-200" fill="#4CAF50" font-family="Arial" font-size="16" font-weight="bold">Displacement = 0</text>
    <text x="-230" y="-180" fill="#666" font-family="Arial" font-size="14">(Start point = End point)</text>
    
    <!-- Motion Direction Label -->
    <text x="-230" y="200" fill="#2196F3" font-family="Arial" font-size="16">→ Direction of Motion</text>
    
    <!-- Additional Information -->
    <text x="-230" y="-150" fill="#666" font-family="Arial" font-size="14">• Complete revolution (360°)</text>
    <text x="-230" y="-130" fill="#666" font-family="Arial" font-size="14">• Path length = circumference</text>
</svg>
