<?xml version="1.0" encoding="UTF-8"?>
<svg width="600" height="400" viewBox="0 0 600 400" xmlns="http://www.w3.org/2000/svg">
    <!-- White background that covers the entire viewport -->
    <rect width="100%" height="100%" fill="white"/>
  <defs>
    <marker id="arrowhead" markerWidth="10" markerHeight="7" refX="9" refY="3.5" orient="auto">
      <polygon points="0 0, 10 3.5, 0 7" fill="#000"/>
    </marker>
  </defs>

  <!-- Wall -->
  <line x1="100" y1="50" x2="100" y2="250" stroke="#000" stroke-width="4"/>

  <!-- Spring -->
  <g transform="translate(100,150)">
    <!-- Spring coils -->
    <path d="M 0,0 
             h 10 
             c 5,0 5,-20 10,-20 
             c 10,0 10,40 20,40 
             c 10,0 10,-40 20,-40 
             c 10,0 10,40 20,40 
             c 10,0 10,-40 20,-40 
             c 10,0 10,40 20,40 
             c 5,0 5,-20 10,-20 
             h 10" 
          fill="none" stroke="#3b82f6" stroke-width="3"/>
    
    <!-- Equilibrium position -->
    <line x1="140" y1="-80" x2="140" y2="80" stroke="#666" stroke-width="1" stroke-dasharray="5,5"/>
    <text x="150" y="0" font-family="Arial" font-size="14">x = 0</text>
  </g>

  <!-- Mass -->
  <g transform="translate(240,150)">
    <rect x="-20" y="-20" width="40" height="40" fill="#e11d48"/>
    <text x="-10" y="5" font-family="Arial" font-size="16">m</text>
  </g>

  <!-- Displacement -->
  <g transform="translate(140,150)">
    <line x1="0" y1="-30" x2="80" y2="-30" stroke="#000" stroke-width="2" marker-end="url(#arrowhead)"/>
    <text x="30" y="-40" font-family="Arial" font-size="16">x</text>
  </g>

  <!-- Equation -->
  <g transform="translate(320,80)">
    <text x="0" y="0" font-family="Arial" font-size="18">Elastic Potential Energy</text>
    <text x="0" y="30" font-family="Arial" font-size="16">PE = ½kx²</text>
    <text x="0" y="60" font-family="Arial" font-size="14">k = spring constant</text>
    <text x="0" y="80" font-family="Arial" font-size="14">x = displacement</text>
  </g>

  <!-- Energy Graph -->
  <g transform="translate(320,150)">
    <!-- Axes -->
    <line x1="0" y1="100" x2="150" y2="100" stroke="#000" stroke-width="1"/>
    <line x1="75" y1="20" x2="75" y2="100" stroke="#000" stroke-width="1"/>
    <!-- Parabola -->
    <path d="M 25,90 Q 75,20 125,90" fill="none" stroke="#3b82f6" stroke-width="2"/>
    <!-- Labels -->
    <text x="140" y="115" font-family="Arial" font-size="12">x</text>
    <text x="60" y="30" font-family="Arial" font-size="12">PE</text>
  </g>

  <!-- Legend -->
  <g transform="translate(50,50)">
    <text x="0" y="0" font-family="Arial" font-size="14">Legend:</text>
    <line x1="0" y1="20" x2="30" y2="20" stroke="#3b82f6" stroke-width="3"/>
    <text x="40" y="25" font-family="Arial" font-size="12">Spring</text>
    <rect x="0" y="35" width="20" height="20" fill="#e11d48"/>
    <text x="40" y="50" font-family="Arial" font-size="12">Mass</text>
  </g>
</svg>
