<?xml version="1.0" encoding="UTF-8"?>
<svg width="600" height="400" viewBox="0 0 600 400" version="1.1" xmlns="http://www.w3.org/2000/svg">
  <!-- White background that covers the entire viewport -->
  <rect width="100%" height="100%" fill="white"/>
  <defs>
    <marker id="arrowhead" markerWidth="10" markerHeight="7" refX="9" refY="3.5" orient="auto">
      <polygon points="0 0, 10 3.5, 0 7" fill="#000"/>
    </marker>
    <!-- Motion lines -->
    <symbol id="motion-lines" viewBox="0 0 50 20">
      <line x1="0" y1="10" x2="15" y2="10" stroke="#666" stroke-width="2" stroke-dasharray="2,3"/>
    </symbol>
  </defs>

  <!-- Ground -->
  <line x1="50" y1="250" x2="450" y2="250" stroke="#000" stroke-width="2"/>

  <!-- Moving Object -->
  <g transform="translate(150,200)">
    <!-- Motion lines behind -->
    <use href="#motion-lines" x="-50" y="0" width="50" height="20"/>
    <use href="#motion-lines" x="-90" y="0" width="50" height="20"/>
    <!-- Ball -->
    <circle cx="0" cy="0" r="20" fill="#3b82f6"/>
    <!-- Velocity vector -->
    <line x1="20" y1="0" x2="100" y2="0" stroke="#e11d48" stroke-width="2" marker-end="url(#arrowhead)"/>
    <text x="50" y="-10" font-family="Arial" font-size="16">v</text>
  </g>

  <!-- Equation -->
  <g transform="translate(250,100)">
    <text x="0" y="0" font-family="Arial" font-size="18" text-anchor="middle">Kinetic Energy = ½mv²</text>
    <text x="0" y="30" font-family="Arial" font-size="14" text-anchor="middle">Energy of motion</text>
  </g>

  <!-- Legend -->
  <g transform="translate(350,50)">
    <text x="0" y="0" font-family="Arial" font-size="14">Legend:</text>
    <circle cx="10" cy="20" r="8" fill="#3b82f6"/>
    <text x="25" y="25" font-family="Arial" font-size="12">Moving object</text>
    <line x1="0" y1="40" x2="20" y2="40" stroke="#e11d48" stroke-width="2" marker-end="url(#arrowhead)"/>
    <text x="25" y="45" font-family="Arial" font-size="12">Velocity</text>
  </g>

  <!-- Energy Indicators -->
  <g transform="translate(50,150)">
    <text x="0" y="0" font-family="Arial" font-size="14">Factors affecting KE:</text>
    <text x="20" y="25" font-family="Arial" font-size="12">• Mass (m)</text>
    <text x="20" y="45" font-family="Arial" font-size="12">• Velocity (v)</text>
    <text x="20" y="65" font-family="Arial" font-size="12">• KE ∝ v²</text>
  </g>
</svg>