<?xml version="1.0" encoding="UTF-8"?>
<svg width="600" height="400" viewBox="0 0 600 400" xmlns="http://www.w3.org/2000/svg">
    <!-- White background that covers the entire viewport -->
    <rect width="100%" height="100%" fill="white"/>
    <!-- Background -->
    <rect width="100%" height="100%" fill="#f0f0f0"/>
    
    <!-- Wall -->
    <g transform="translate(100,100)">
        <line x1="0" y1="0" x2="0" y2="200" stroke="#333" stroke-width="4"/>
        <line x1="0" y1="0" x2="20" y2="0" stroke="#333" stroke-width="4"/>
        <line x1="0" y1="200" x2="20" y2="200" stroke="#333" stroke-width="4"/>
    </g>

    <!-- Spring System at Rest -->
    <g transform="translate(120,150)">
        <!-- Spring (simplified) -->
        <path d="M0,0 
                 L20,0 
                 L30,-10 
                 L40,10 
                 L50,-10 
                 L60,10 
                 L70,-10 
                 L80,10 
                 L90,-10 
                 L100,10 
                 L110,-10 
                 L120,0 
                 L140,0" 
              fill="none" stroke="#666" stroke-width="2"/>
        <!-- Mass -->
        <rect x="140" y="-25" width="50" height="50" fill="#4a90e2"/>
        <text x="165" y="5" text-anchor="middle" fill="white">2kg</text>
        <!-- Equilibrium label -->
        <text x="165" y="40" text-anchor="middle">Equilibrium</text>
    </g>

    <!-- Compressed Spring System -->
    <g transform="translate(120,250)">
        <!-- Spring (compressed) -->
        <path d="M0,0 
                 L10,0 
                 L15,-10 
                 L20,10 
                 L25,-10 
                 L30,10 
                 L35,-10 
                 L40,10 
                 L45,-10 
                 L50,10 
                 L55,-10 
                 L60,0 
                 L70,0" 
              fill="none" stroke="#666" stroke-width="2"/>
        <!-- Mass -->
        <rect x="70" y="-25" width="50" height="50" fill="#e74c3c"/>
        <text x="95" y="5" text-anchor="middle" fill="white">2kg</text>
        <!-- Compression label -->
        <text x="95" y="40" text-anchor="middle">x = 0.1m</text>
        <!-- Spring constant -->
        <text x="30" y="-20" text-anchor="middle">k = 500 N/m</text>
    </g>

    <!-- Velocity arrow for release -->
    <g transform="translate(400,250)">
        <line x1="0" y1="0" x2="100" y2="0" stroke="#2ecc71" stroke-width="3" marker-end="url(#arrowhead)"/>
        <text x="50" y="-10" text-anchor="middle">v = ?</text>
    </g>

    <!-- Arrowhead marker -->
    <defs>
        <marker id="arrowhead" markerWidth="10" markerHeight="7" refX="9" refY="3.5" orient="auto">
            <polygon points="0 0, 10 3.5, 0 7" fill="#2ecc71"/>
        </marker>
    </defs>

    <!-- Title -->
    <text x="300" y="50" text-anchor="middle" font-size="24" font-weight="bold">Spring-Mass System Energy Conversion</text>
</svg>
