<?xml version="1.0" encoding="UTF-8"?>
<svg width="600" height="400" version="1.1" xmlns="http://www.w3.org/2000/svg">
    <!-- White background that covers the entire viewport -->
    <rect width="100%" height="100%" fill="white"/>
  <defs>
    <marker id="arrowhead" markerWidth="10" markerHeight="7" refX="9" refY="3.5" orient="auto">
      <polygon points="0 0, 10 3.5, 0 7" fill="#000"/>
    </marker>
  </defs>

  <!-- Coordinate System -->
  <g transform="translate(50,350)">
    <!-- x-axis -->
    <line x1="0" y1="0" x2="500" y2="0" stroke="#000" stroke-width="2" marker-end="url(#arrowhead)"/>
    <text x="510" y="15" font-family="Arial" font-size="16">x</text>
    <!-- y-axis -->
    <line x1="0" y1="0" x2="0" y2="-300" stroke="#000" stroke-width="2" marker-end="url(#arrowhead)"/>
    <text x="-15" y="-310" font-family="Arial" font-size="16">F</text>
  </g>

  <!-- Variable Force Curve -->
  <g transform="translate(50,350)">
    <!-- Spring force curve -->
    <path d="M 0,-150 Q 125,-200 250,-150 T 500,-150" 
          fill="none" stroke="#e11d48" stroke-width="3"/>
    
    <!-- Area under curve -->
    <path d="M 0,-150 Q 125,-200 250,-150 T 500,-150 L 500,0 L 0,0 Z" 
          fill="#3b82f6" fill-opacity="0.2"/>
  </g>

  <!-- Integration Limits -->
  <g transform="translate(50,350)">
    <!-- x₁ -->
    <line x1="0" y1="10" x2="0" y2="-10" stroke="#000" stroke-width="1"/>
    <text x="-5" y="25" font-family="Arial" font-size="16">x₁</text>
    <!-- x₂ -->
    <line x1="500" y1="10" x2="500" y2="-10" stroke="#000" stroke-width="1"/>
    <text x="495" y="25" font-family="Arial" font-size="16">x₂</text>
  </g>

  <!-- Equations -->
  <g transform="translate(100,50)">
    <text x="0" y="0" font-family="Arial" font-size="18" font-weight="bold">Work by Variable Force:</text>
    <text x="20" y="30" font-family="Arial" font-size="16">W = ∫ₓ₁ˣ² F(x)dx</text>
    <text x="20" y="60" font-family="Arial" font-size="14">(Area under the force-displacement curve)</text>
  </g>

  <!-- Examples -->
  <g transform="translate(350,50)">
    <text x="0" y="0" font-family="Arial" font-size="14">Examples:</text>
    <text x="0" y="25" font-family="Arial" font-size="14">• Spring Force: F = -kx</text>
    <text x="0" y="50" font-family="Arial" font-size="14">• Gravitational Force: F = GMm/r²</text>
  </g>

  <!-- Legend -->
  <g transform="translate(100,300)">
    <text x="0" y="0" font-family="Arial" font-size="14">Legend:</text>
    <line x1="0" y1="20" x2="30" y2="20" stroke="#e11d48" stroke-width="2"/>
    <text x="40" y="25" font-family="Arial" font-size="12">Force Function F(x)</text>
    <rect x="0" y="35" width="30" height="15" fill="#3b82f6" fill-opacity="0.2"/>
    <text x="40" y="47" font-family="Arial" font-size="12">Work Done (Area)</text>
  </g>
</svg>