<?xml version="1.0" encoding="UTF-8" standalone="no"?>
<svg xmlns="http://www.w3.org/2000/svg" width="600" height="400" viewBox="0 0 600 400">
  <!-- Add white background as the first element after the opening svg tag -->
  <rect width="100%" height="100%" fill="white"/>
  
  <!-- Title -->
  <text x="200" y="30" font-size="16" font-weight="bold">Forces in Rolling Motion</text>
  
  <!-- Inclined Plane -->
  <g transform="translate(300,200) rotate(-30)">
    <!-- Ground -->
    <line x1="-200" y1="0" x2="200" y2="0" stroke="black" stroke-width="2"/>
    
    <!-- Cylinder -->
    <circle cx="0" cy="-40" r="40" fill="none" stroke="blue" stroke-width="2"/>
    <line x1="-40" y1="-40" x2="40" y2="-40" stroke="blue" stroke-width="1" stroke-dasharray="4"/>
    <line x1="0" y1="-80" x2="0" y2="0" stroke="blue" stroke-width="1" stroke-dasharray="4"/>
    
    <!-- Forces -->
    <!-- Weight -->
    <line x1="0" y1="-40" x2="0" y2="20" stroke="red" stroke-width="2" marker-end="url(#arrow)"/>
    <text x="10" y="-10" transform="rotate(30)" fill="red">mg</text>
    
    <!-- Normal Force -->
    <line x1="0" y1="-40" x2="-20" y2="-60" stroke="#4CAF50" stroke-width="2" marker-end="url(#arrow)"/>
    <text x="-40" y="-50" transform="rotate(30)" fill="#4CAF50">N</text>
    
    <!-- Friction -->
    <line x1="0" y1="-40" x2="-40" y2="-40" stroke="#FF9800" stroke-width="2" marker-end="url(#arrow)"/>
    <text x="-30" y="-30" transform="rotate(30)" fill="#FF9800">fs</text>
  </g>
  
  <!-- Component Diagram -->
  <g transform="translate(500,200)">
    <text x="-80" y="-120" font-size="14">Weight Components:</text>
    <!-- Weight vector -->
    <line x1="0" y1="0" x2="0" y2="80" stroke="red" stroke-width="2" marker-end="url(#arrow)"/>
    <text x="10" y="40" fill="red">mg</text>
    
    <!-- Parallel component -->
    <line x1="0" y1="0" x2="40" y2="69.28" stroke="purple" stroke-width="2" marker-end="url(#arrow)"/>
    <text x="45" y="40" fill="purple">mg sinθ</text>
    
    <!-- Perpendicular component -->
    <line x1="0" y1="0" x2="0" y2="69.28" stroke="green" stroke-width="2" marker-end="url(#arrow)"/>
    <text x="-60" y="40" fill="green">mg cosθ</text>
    
    <!-- Angle -->
    <path d="M 40,0 A 40,40 0 0 1 34.64,20" stroke="black" fill="none"/>
    <text x="45" y="15">θ</text>
  </g>
  
  <!-- Equations Box -->
  <g transform="translate(50,320)">
    <rect x="0" y="0" width="500" height="60" fill="#f5f5f5" stroke="#ddd"/>
    <text x="20" y="20" font-family="monospace">N = mg cosθ</text>
    <text x="20" y="40" font-family="monospace">fs ≤ μsN   (static friction)</text>
    <text x="20" y="60" font-family="monospace">a = g sinθ/(1 + I/mR²)   (acceleration)</text>
  </g>
  
  <!-- Arrow marker -->
  <defs>
    <marker id="arrow" markerWidth="10" markerHeight="7" refX="9" refY="3.5" orient="auto">
      <polygon points="0 0, 10 3.5, 0 7" fill="#000"/>
    </marker>
  </defs>
</svg>
