<?xml version="1.0" encoding="UTF-8" standalone="no"?>
<svg xmlns="http://www.w3.org/2000/svg" width="600" height="400" viewBox="0 0 600 400">
  <!-- Title -->
  <text x="200" y="30" font-size="16" font-weight="bold">Rolling Friction and Deformation</text>
  
  <!-- Left Side: Rigid Surface -->
  <g transform="translate(150,200)">
    <text x="-60" y="-100" font-size="14" font-weight="bold">Rigid Surface</text>
    <!-- Ground -->
    <line x1="-80" y1="40" x2="80" y2="40" stroke="black" stroke-width="2"/>
    <!-- Wheel -->
    <circle cx="0" cy="0" r="40" fill="none" stroke="blue" stroke-width="2"/>
    <!-- Contact point -->
    <circle cx="0" cy="40" r="3" fill="red"/>
    <!-- Forces -->
    <line x1="0" y1="0" x2="0" y2="40" stroke="#4CAF50" stroke-width="2" marker-end="url(#arrow)"/>
    <text x="10" y="25" fill="#4CAF50">N</text>
    <!-- Rolling direction -->
    <line x1="-60" y1="-10" x2="60" y2="-10" stroke="gray" stroke-width="1" marker-end="url(#arrow)"/>
    <text x="20" y="-20">Motion</text>
  </g>
  
  <!-- Right Side: Deformable Surface -->
  <g transform="translate(450,200)">
    <text x="-70" y="-100" font-size="14" font-weight="bold">Deformable Surface</text>
    <!-- Ground with deformation -->
    <path d="M -80,40 C -40,40 -20,45 0,45 C 20,45 40,40 80,40" stroke="black" stroke-width="2" fill="none"/>
    <!-- Wheel with deformation -->
    <path d="M -40,0 A 40,40 0 1 1 -40,0.1" fill="none" stroke="blue" stroke-width="2"/>
    <!-- Contact area -->
    <path d="M -10,40 C -5,45 5,45 10,40" stroke="red" stroke-width="2" fill="none"/>
    <!-- Forces -->
    <line x1="0" y1="0" x2="0" y2="40" stroke="#4CAF50" stroke-width="2" marker-end="url(#arrow)"/>
    <text x="10" y="25" fill="#4CAF50">N</text>
    <!-- Rolling resistance -->
    <line x1="-20" y1="35" x2="-50" y2="35" stroke="purple" stroke-width="2" marker-start="url(#arrow)"/>
    <text x="-45" y="30" fill="purple">Fr</text>
    <!-- Rolling direction -->
    <line x1="-60" y1="-10" x2="60" y2="-10" stroke="gray" stroke-width="1" marker-end="url(#arrow)"/>
    <text x="20" y="-20">Motion</text>
  </g>
  
  <!-- Equations Box -->
  <g transform="translate(50,320)">
    <rect x="0" y="0" width="500" height="60" fill="#f5f5f5" stroke="#ddd"/>
    <text x="20" y="20" font-family="monospace">Fr = μr × N   (rolling friction)</text>
    <text x="20" y="40" font-family="monospace">μr << μs   (rolling friction coefficient is much smaller)</text>
    <text x="20" y="60" font-family="monospace">Work done against rolling friction = Fr × distance</text>
  </g>
  
  <!-- Arrow marker -->
  <defs>
    <marker id="arrow" markerWidth="10" markerHeight="7" refX="9" refY="3.5" orient="auto">
      <polygon points="0 0, 10 3.5, 0 7" fill="#000"/>
    </marker>
  </defs>
</svg>
