<?xml version="1.0" encoding="UTF-8" standalone="no"?>
<svg xmlns="http://www.w3.org/2000/svg" width="600" height="400" viewBox="0 0 600 400">
  <!-- Title -->
  <text x="150" y="30" font-size="16" font-weight="bold">Rolling Motion Analysis</text>
  
  <!-- Main wheel at current position -->
  <g transform="translate(300,200)">
    <!-- Ground -->
    <line x1="-200" y1="100" x2="200" y2="100" stroke="black" stroke-width="2"/>
    
    <!-- Wheel -->
    <circle cx="0" cy="0" r="80" fill="none" stroke="blue" stroke-width="2"/>
    
    <!-- Center of mass -->
    <circle cx="0" cy="0" r="4" fill="black"/>
    <text x="10" y="0" font-size="12">CM</text>
    
    <!-- Point of contact -->
    <circle cx="0" cy="80" r="4" fill="red"/>
    <text x="10" y="85" font-size="12">P</text>
    
    <!-- Radius to point -->
    <line x1="0" y1="0" x2="56.57" y2="56.57" stroke="gray" stroke-width="1" stroke-dasharray="4"/>
    <text x="35" y="45" font-size="12">r</text>
    
    <!-- Velocity vectors -->
    <!-- Center of mass velocity -->
    <line x1="-20" y1="-20" x2="40" y2="-20" stroke="#4CAF50" stroke-width="2" marker-end="url(#arrow)"/>
    <text x="45" y="-20" fill="#4CAF50">vcm</text>
    
    <!-- Angular velocity -->
    <path d="M 0,0 A 40,40 0 0 1 40,-20" stroke="#FF9800" stroke-width="2" fill="none" marker-end="url(#arrow)"/>
    <text x="45" y="-30" fill="#FF9800">ω</text>
    
    <!-- Point velocities -->
    <line x1="56.57" y1="56.57" x2="96.57" y2="36.57" stroke="purple" stroke-width="2" marker-end="url(#arrow)"/>
    <text x="100" y="40" fill="purple">v</text>
  </g>
  
  <!-- Equations Box -->
  <g transform="translate(50,320)">
    <rect x="0" y="0" width="500" height="60" fill="#f5f5f5" stroke="#ddd"/>
    <text x="20" y="20" font-family="monospace">v = vcm + ω × r   (velocity of any point)</text>
    <text x="20" y="40" font-family="monospace">vcm = rω         (for pure rolling)</text>
    <text x="20" y="60" font-family="monospace">K = ½mv²cm + ½Iω²  (total kinetic energy)</text>
  </g>
  
  <!-- Arrow marker -->
  <defs>
    <marker id="arrow" markerWidth="10" markerHeight="7" refX="9" refY="3.5" orient="auto">
      <polygon points="0 0, 10 3.5, 0 7" fill="#000"/>
    </marker>
  </defs>
</svg>
