<?xml version="1.0" encoding="UTF-8"?>
<svg width="800" height="400" xmlns="http://www.w3.org/2000/svg">
    <!-- Background -->
    <rect width="100%" height="100%" fill="white"/>
    
    <!-- Title -->
    <text x="400" y="30" text-anchor="middle" font-size="20" font-family="Arial">Impedance Matching</text>
    
    <!-- Unmatched case -->
    <g transform="translate(0,0)">
        <rect x="50" y="80" width="150" height="100" fill="#B3E5FC"/>
        <rect x="200" y="80" width="150" height="100" fill="#FFE0B2"/>
        <text x="125" y="140" text-anchor="middle" font-size="14">Z₁</text>
        <text x="275" y="140" text-anchor="middle" font-size="14">Z₂</text>
        <path d="M50,130 Q125,100 200,130 L350,130" fill="none" stroke="#2196F3" stroke-width="2"/>
        <text x="200" y="200" text-anchor="middle" font-size="14">High Reflection</text>
        <text x="200" y="220" text-anchor="middle" font-size="12">|Z₁ - Z₂| large</text>
    </g>
    
    <!-- Matched case -->
    <g transform="translate(400,0)">
        <rect x="50" y="80" width="150" height="100" fill="#B3E5FC"/>
        <rect x="200" y="80" width="150" height="100" fill="#C8E6C9"/>
        <text x="125" y="140" text-anchor="middle" font-size="14">Z₁</text>
        <text x="275" y="140" text-anchor="middle" font-size="14">Z₁</text>
        <path d="M50,130 Q125,100 200,130 Q275,160 350,130" fill="none" stroke="#2196F3" stroke-width="2"/>
        <text x="200" y="200" text-anchor="middle" font-size="14">Perfect Match</text>
        <text x="200" y="220" text-anchor="middle" font-size="12">Z₁ = Z₂</text>
    </g>
    
    <!-- Gradual transition -->
    <rect x="50" y="250" width="700" height="100" fill="url(#gradientFill)"/>
    <defs>
        <linearGradient id="gradientFill" x1="0%" y1="0%" x2="100%" y1="0%">
            <stop offset="0%" style="stop-color:#B3E5FC"/>
            <stop offset="100%" style="stop-color:#FFE0B2"/>
        </linearGradient>
    </defs>
    <path d="M50,300 Q200,270 400,300 Q600,330 750,300" fill="none" stroke="#2196F3" stroke-width="2"/>
    <text x="400" y="370" text-anchor="middle" font-size="14">Gradual Impedance Transition</text>
</svg>
