<?xml version="1.0" encoding="UTF-8" standalone="no"?>
<svg xmlns="http://www.w3.org/2000/svg" width="800" height="400" viewBox="0 0 800 400">
    <!-- Background -->
    <rect width="800" height="400" fill="#f8f9fa"/>
    
    <!-- Inertial Frame -->
    <g transform="translate(100,50)">
        <rect x="0" y="0" width="200" height="200" fill="none" stroke="#333" stroke-width="2"/>
        <line x1="0" y1="100" x2="200" y2="100" stroke="#333" stroke-width="1" stroke-dasharray="5,5"/>
        <line x1="100" y1="0" x2="100" y2="200" stroke="#333" stroke-width="1" stroke-dasharray="5,5"/>
        <text x="100" y="230" text-anchor="middle" font-family="Arial" font-size="16">Inertial Frame</text>
    </g>
    
    <!-- Rotating Frame -->
    <g transform="translate(500,50)">
        <rect x="0" y="0" width="200" height="200" fill="none" stroke="#333" stroke-width="2" transform="rotate(15,100,100)"/>
        <line x1="0" y1="100" x2="200" y2="100" stroke="#333" stroke-width="1" stroke-dasharray="5,5" transform="rotate(15,100,100)"/>
        <line x1="100" y1="0" x2="100" y2="200" stroke="#333" stroke-width="1" stroke-dasharray="5,5" transform="rotate(15,100,100)"/>
        <path d="M 100,100 A 50,50 0 0 1 150,150" fill="none" stroke="#f00" stroke-width="2"/>
        <text x="100" y="230" text-anchor="middle" font-family="Arial" font-size="16">Non-Inertial Frame</text>
    </g>
    
    <!-- Arrow connecting frames -->
    <path d="M 320,100 L 460,100" stroke="#333" stroke-width="2" marker-end="url(#arrowhead)"/>
    <text x="390" y="80" text-anchor="middle" font-family="Arial" font-size="14">Acceleration/Rotation</text>
    
    <!-- Arrow marker definition -->
    <defs>
        <marker id="arrowhead" markerWidth="10" markerHeight="7" refX="9" refY="3.5" orient="auto">
            <polygon points="0 0, 10 3.5, 0 7" fill="#333"/>
        </marker>
    </defs>
</svg>
