<?xml version="1.0" encoding="UTF-8"?>
<svg width="800" height="400" viewBox="0 0 800 400" xmlns="http://www.w3.org/2000/svg">
    <!-- White background that covers the entire viewport -->
    <rect width="100%" height="100%" fill="white"/>
    <style>
        .title { font: bold 16px sans-serif; }
        .label { font: 14px sans-serif; }
        .math { font-style: italic; }
        .equation { font: italic 16px serif; }
    </style>
    
    <!-- Title -->
    <text x="400" y="30" text-anchor="middle" class="title">Two-Dimensional Collisions</text>
    
    <!-- Grid Background -->
    <defs>
        <pattern id="grid" width="40" height="40" patternUnits="userSpaceOnUse">
            <path d="M 40 0 L 0 0 0 40" fill="none" stroke="#eee" stroke-width="1"/>
        </pattern>
    </defs>
    <rect width="800" height="400" fill="url(#grid)"/>
    
    <!-- Collision Diagram -->
    <g transform="translate(100,100)">
        <!-- Before Collision -->
        <circle cx="100" cy="100" r="20" fill="#ff4444"/>
        <line x1="70" y1="100" x2="130" y2="100" stroke="#ff4444" marker-end="url(#arrowhead)" stroke-width="2"/>
        <text x="100" y="140" text-anchor="middle" class="label">v₁ᵢ</text>
        
        <circle cx="300" cy="200" r="15" fill="#4444ff"/>
        <line x1="300" y1="170" x2="300" y2="230" stroke="#4444ff" marker-end="url(#arrowhead)" stroke-width="2"/>
        <text x="320" y="200" text-anchor="middle" class="label">v₂ᵢ</text>
        
        <!-- Collision Point -->
        <circle cx="200" cy="150" r="5" fill="#000"/>
        
        <!-- After Collision -->
        <circle cx="400" cy="50" r="20" fill="#ff4444" opacity="0.7"/>
        <line x1="400" y1="20" x2="400" y2="80" stroke="#ff4444" marker-end="url(#arrowhead)" stroke-width="2"/>
        <text x="420" y="50" text-anchor="middle" class="label">v₁f</text>
        
        <circle cx="400" cy="250" r="15" fill="#4444ff" opacity="0.7"/>
        <line x1="370" y1="250" x2="430" y2="250" stroke="#4444ff" marker-end="url(#arrowhead)" stroke-width="2"/>
        <text x="400" y="280" text-anchor="middle" class="label">v₂f</text>
        
        <!-- Angle Labels -->
        <path d="M 200,150 A 30,30 0 0,1 230,150" fill="none" stroke="#000"/>
        <text x="220" y="140" class="label">θ₁</text>
        
        <path d="M 200,150 A 30,30 0 0,0 200,180" fill="none" stroke="#000"/>
        <text x="190" y="170" class="label">θ₂</text>
    </g>
    
    <!-- Equations -->
    <g transform="translate(0,50)">
        <text x="600" y="100" class="equation">Conservation of Momentum:</text>
        <text x="600" y="130" class="equation">x: m₁v₁ᵢcosθ₁ = m₁v₁fcosθ₁f + m₂v₂fcosθ₂f</text>
        <text x="600" y="160" class="equation">y: m₁v₁ᵢsinθ₁ = m₁v₁fsinθ₁f + m₂v₂fsinθ₂f</text>
        
        <text x="600" y="200" class="equation">Conservation of Energy (Elastic):</text>
        <text x="600" y="230" class="equation">½m₁v₁ᵢ² + ½m₂v₂ᵢ² = ½m₁v₁f² + ½m₂v₂f²</text>
    </g>
    
    <!-- Arrow Marker -->
    <defs>
        <marker id="arrowhead" markerWidth="10" markerHeight="7" refX="9" refY="3.5" orient="auto">
            <polygon points="0 0, 10 3.5, 0 7" fill="#000"/>
        </marker>
    </defs>
</svg>
