<?xml version="1.0" encoding="UTF-8" standalone="no"?>
<svg width="800" height="400" viewBox="0 0 800 400" xmlns="http://www.w3.org/2000/svg">
  <!-- White Background -->
  <rect width="800" height="400" fill="white"/>
  <!-- Title -->
  <text x="400" y="30" font-family="Arial" font-size="20" text-anchor="middle" font-weight="bold">Specular vs. Diffuse Reflection</text>
  
  <!-- Specular Reflection -->
  <g transform="translate(200, 200)">
    <!-- Surface -->
    <line x1="-150" y1="0" x2="150" y2="0" stroke="black" stroke-width="3"/>
    
    <!-- Normal -->
    <line x1="0" y1="0" x2="0" y2="-80" stroke="black" stroke-width="1" stroke-dasharray="5,5"/>
    <text x="10" y="-40" font-family="Arial" font-size="16">Normal</text>
    
    <!-- Incident Ray -->
    <line x1="-120" y1="-120" x2="0" y2="0" stroke="blue" stroke-width="2"/>
    <polygon points="0,0 -10,-5 -5,-15" fill="blue" transform="rotate(-45 0 0)"/>
    <text x="-100" y="-80" font-family="Arial" font-size="16" fill="blue">Incident Ray</text>
    <text x="-80" y="-50" font-family="Arial" font-size="16" fill="blue">θᵢ</text>
    
    <!-- Reflected Ray -->
    <line x1="0" y1="0" x2="120" y2="-120" stroke="red" stroke-width="2"/>
    <polygon points="120,-120 115,-105 105,-115" fill="red"/>
    <text x="80" y="-80" font-family="Arial" font-size="16" fill="red">Reflected Ray</text>
    <text x="80" y="-50" font-family="Arial" font-size="16" fill="red">θᵣ</text>
    
    <!-- Angle Arcs -->
    <path d="M 0,0 L 0,-30 A 30 30 0 0 0 -21.21,-21.21 Z" fill="rgba(0,0,255,0.2)"/>
    <path d="M 0,0 L 21.21,-21.21 A 30 30 0 0 0 0,-30 Z" fill="rgba(255,0,0,0.2)"/>
    
    <!-- Label -->
    <text x="0" y="100" font-family="Arial" font-size="18" text-anchor="middle" font-weight="bold">Specular Reflection</text>
    <text x="0" y="125" font-family="Arial" font-size="14" text-anchor="middle">Smooth Surface (θᵢ = θᵣ)</text>
  </g>
  
  <!-- Diffuse Reflection -->
  <g transform="translate(600, 200)">
    <!-- Rough Surface -->
    <path d="M -150,0 Q -120,10 -90,-5 Q -60,15 -30,-10 Q 0,5 30,-5 Q 60,10 90,-10 Q 120,5 150,0" stroke="black" stroke-width="3" fill="none"/>
    
    <!-- Normal -->
    <line x1="0" y1="-5" x2="0" y2="-80" stroke="black" stroke-width="1" stroke-dasharray="5,5"/>
    <text x="10" y="-40" font-family="Arial" font-size="16">Normal</text>
    
    <!-- Incident Ray -->
    <line x1="-120" y1="-120" x2="0" y2="-5" stroke="blue" stroke-width="2"/>
    <polygon points="0,-5 -10,-10 -5,-20" fill="blue" transform="rotate(-45 0 -5)"/>
    <text x="-100" y="-80" font-family="Arial" font-size="16" fill="blue">Incident Ray</text>
    
    <!-- Reflected Rays (Multiple) -->
    <line x1="0" y1="-5" x2="30" y2="-80" stroke="red" stroke-width="2"/>
    <polygon points="30,-80 25,-65 15,-75" fill="red"/>
    
    <line x1="0" y1="-5" x2="80" y2="-60" stroke="red" stroke-width="2"/>
    <polygon points="80,-60 75,-45 65,-55" fill="red"/>
    
    <line x1="0" y1="-5" x2="100" y2="-30" stroke="red" stroke-width="2"/>
    <polygon points="100,-30 95,-15 85,-25" fill="red"/>
    
    <line x1="0" y1="-5" x2="90" y2="-90" stroke="red" stroke-width="2"/>
    <polygon points="90,-90 85,-75 75,-85" fill="red"/>
    
    <line x1="0" y1="-5" x2="60" y2="-100" stroke="red" stroke-width="2"/>
    <polygon points="60,-100 55,-85 45,-95" fill="red"/>
    
    <text x="80" y="-70" font-family="Arial" font-size="16" fill="red">Reflected Rays</text>
    
    <!-- Label -->
    <text x="0" y="100" font-family="Arial" font-size="18" text-anchor="middle" font-weight="bold">Diffuse Reflection</text>
    <text x="0" y="125" font-family="Arial" font-size="14" text-anchor="middle">Rough Surface (Multiple Angles)</text>
  </g>
</svg>
