<?xml version="1.0" encoding="UTF-8"?>
<svg xmlns="http://www.w3.org/2000/svg" width="800" height="700" viewBox="0 0 800 700">
    <rect width="800" height="700" fill="white"/>
    
    <!-- Title -->
    <text x="400" y="30" text-anchor="middle" font-size="24" font-weight="bold">Wave Interference and Superposition</text>
    <text x="400" y="60" text-anchor="middle" font-size="16">E_total = E₁ + E₂</text>

    <!-- Main Visualization -->
    <g transform="translate(400,250)">
        <!-- Wave 1 -->
        <g class="wave1">
            <path d="M -300,0 Q -225,-50 -150,0 T 0,0 T 150,0" 
                  fill="none" stroke="#FF5722" stroke-width="2" stroke-opacity="0.5">
                <animate attributeName="d"
                         values="M -300,0 Q -225,-50 -150,0 T 0,0 T 150,0;
                                M -300,0 Q -225,50 -150,0 T 0,0 T 150,0;
                                M -300,0 Q -225,-50 -150,0 T 0,0 T 150,0"
                         dur="3s"
                         repeatCount="indefinite"/>
            </path>
            <text x="-320" y="0" text-anchor="end" fill="#FF5722" font-size="14">E₁</text>
        </g>

        <!-- Wave 2 -->
        <g class="wave2">
            <path d="M -300,0 Q -225,-30 -150,0 T 0,0 T 150,0" 
                  fill="none" stroke="#2196F3" stroke-width="2" stroke-opacity="0.5">
                <animate attributeName="d"
                         values="M -300,0 Q -225,-30 -150,0 T 0,0 T 150,0;
                                M -300,0 Q -225,30 -150,0 T 0,0 T 150,0;
                                M -300,0 Q -225,-30 -150,0 T 0,0 T 150,0"
                         dur="2s"
                         repeatCount="indefinite"/>
            </path>
            <text x="-320" y="30" text-anchor="end" fill="#2196F3" font-size="14">E₂</text>
        </g>

        <!-- Resultant Wave -->
        <g class="resultant" transform="translate(0,100)">
            <path d="M -300,0 Q -225,-80 -150,0 T 0,0 T 150,0" 
                  fill="none" stroke="#4CAF50" stroke-width="3">
                <animate attributeName="d"
                         values="M -300,0 Q -225,-80 -150,0 T 0,0 T 150,0;
                                M -300,0 Q -225,80 -150,0 T 0,0 T 150,0;
                                M -300,0 Q -225,-80 -150,0 T 0,0 T 150,0"
                         dur="3s"
                         repeatCount="indefinite"/>
            </path>
            <text x="-320" y="0" text-anchor="end" fill="#4CAF50" font-size="14">E_total</text>
        </g>
    </g>

    <!-- Interference Types -->
    <g transform="translate(50,400)">
        <rect width="700" height="250" fill="#f8f8f8" stroke="#666"/>
        <text x="20" y="30" font-size="14" font-weight="bold">Types of Interference:</text>
        
        <!-- Constructive -->
        <g transform="translate(50,60)">
            <text x="0" y="0" font-size="14">Constructive (In Phase):</text>
            <path d="M 20,20 Q 45,-10 70,20" stroke="#666" stroke-width="1"/>
            <path d="M 20,20 Q 45,-10 70,20" stroke="#666" stroke-width="1" transform="translate(0,5)"/>
            <path d="M 20,20 Q 45,-30 70,20" stroke="#4CAF50" stroke-width="2" transform="translate(100,0)"/>
        </g>

        <!-- Destructive -->
        <g transform="translate(50,120)">
            <text x="0" y="0" font-size="14">Destructive (Out of Phase):</text>
            <path d="M 20,20 Q 45,-10 70,20" stroke="#666" stroke-width="1"/>
            <path d="M 20,20 Q 45,50 70,20" stroke="#666" stroke-width="1"/>
            <line x1="120" y1="20" x2="170" y2="20" stroke="#4CAF50" stroke-width="2"/>
        </g>

        <!-- Partial -->
        <g transform="translate(50,180)">
            <text x="0" y="0" font-size="14">Partial Interference:</text>
            <path d="M 20,20 Q 45,-10 70,20" stroke="#666" stroke-width="1"/>
            <path d="M 20,20 Q 45,20 70,20" stroke="#666" stroke-width="1"/>
            <path d="M 120,20 Q 145,0 170,20" stroke="#4CAF50" stroke-width="2"/>
        </g>
    </g>

    <!-- Legend -->
    <g transform="translate(600,150)">
        <rect width="150" height="100" fill="#f8f8f8" stroke="#666"/>
        <text x="10" y="30" font-size="12">Red: Wave 1</text>
        <text x="10" y="50" font-size="12">Blue: Wave 2</text>
        <text x="10" y="70" font-size="12">Green: Resultant</text>
    </g>
</svg> 