<?xml version="1.0" encoding="UTF-8"?>
<svg xmlns="http://www.w3.org/2000/svg" width="800" height="600" viewBox="0 0 800 600" style="background-color: white;">
    <!-- Explicit white background -->
    <rect width="800" height="600" fill="white"/>

    <defs>
        <marker id="force-arrow" markerWidth="10" markerHeight="7" refX="9" refY="3.5" orient="auto">
            <polygon points="0 0, 10 3.5, 0 7" fill="#FF5722"/>
        </marker>
        <marker id="field-arrow" markerWidth="10" markerHeight="7" refX="9" refY="3.5" orient="auto">
            <polygon points="0 0, 10 3.5, 0 7" fill="#4CAF50"/>
        </marker>
    </defs>

    <!-- Title with white background -->
    <rect x="0" y="0" width="800" height="60" fill="white"/>
    <text x="400" y="30" text-anchor="middle" font-size="24" font-weight="bold">Electromagnetic Braking</text>

    <!-- Explanation -->
    <g transform="translate(50,80)">
        <text x="0" y="0" font-size="16" font-weight="bold">How it Works:</text>
        <text x="0" y="30" font-size="14">1. Conductor moves through magnetic field</text>
        <text x="0" y="50" font-size="14">2. Eddy currents induced in conductor</text>
        <text x="0" y="70" font-size="14">3. Eddy currents create opposing force</text>
    </g>

    <!-- Main Visualization -->
    <g transform="translate(400,250)">
        <!-- Magnet poles -->
        <rect x="-150" y="-100" width="300" height="50" fill="#f5f5f5" stroke="#666"/>
        <rect x="-150" y="50" width="300" height="50" fill="#f5f5f5" stroke="#666"/>
        <text x="-130" y="-70" fill="#4CAF50" font-size="20">N</text>
        <text x="-130" y="85" fill="#4CAF50" font-size="20">S</text>

        <!-- Moving conductor -->
        <rect x="-100" y="-20" width="200" height="40" fill="#2196F3" opacity="0.5">
            <animate attributeName="x"
                     values="-200;-100;-200"
                     dur="3s"
                     repeatCount="indefinite"/>
        </rect>

        <!-- Eddy currents -->
        <path d="M 0,0 A 30,15 0 1,1 0,1" fill="none" stroke="#FF5722" stroke-width="2">
            <animate attributeName="stroke-dashoffset"
                     values="0;30"
                     dur="0.5s"
                     repeatCount="indefinite"/>
        </path>

        <!-- Force arrows -->
        <line x1="-50" y1="0" x2="50" y2="0" stroke="#FF5722" stroke-width="2" marker-end="url(#force-arrow)"/>
        
        <!-- Magnetic field lines -->
        <g stroke="#4CAF50" stroke-width="2" stroke-dasharray="5,5">
            <path d="M 0,-90 L 0,90" marker-end="url(#field-arrow)"/>
        </g>
    </g>

    <!-- Formula Box -->
    <g transform="translate(50,450)">
        <rect x="0" y="0" width="700" height="120" fill="#f5f5f5" stroke="#666"/>
        <text x="20" y="30" font-size="16" font-weight="bold">Braking Force:</text>
        <text x="20" y="60" font-family="math" font-size="14">F ∝ B²vσd</text>
        <text x="20" y="80" font-size="14">• More effective at higher speeds</text>
        <text x="20" y="100" font-size="14">• Non-contact braking reduces wear</text>
    </g>
</svg> 