<?xml version="1.0" encoding="UTF-8"?>
<svg width="800" height="400" xmlns="http://www.w3.org/2000/svg">
    <!-- Background -->
    <rect width="100%" height="100%" fill="white"/>
    
    <!-- Grid -->
    <pattern id="grid" width="40" height="40" patternUnits="userSpaceOnUse">
        <path d="M 40 0 L 0 0 0 40" fill="none" stroke="#f0f0f0" stroke-width="1"/>
    </pattern>
    <rect width="100%" height="100%" fill="url(#grid)"/>
    
    <!-- Title -->
    <text x="400" y="40" text-anchor="middle" font-size="24" font-family="Arial" font-weight="bold">
        The Doppler Effect
    </text>
    
    <!-- Stationary Source -->
    <g transform="translate(150,200)">
        <circle cx="0" cy="0" r="20" fill="#2196F3"/>
        <text x="0" y="40" text-anchor="middle" font-size="14">Stationary Source</text>
        
        <!-- Concentric Waves -->
        <circle cx="0" cy="0" r="50" fill="none" stroke="#2196F3" stroke-width="2"/>
        <circle cx="0" cy="0" r="100" fill="none" stroke="#2196F3" stroke-width="2"/>
        <circle cx="0" cy="0" r="150" fill="none" stroke="#2196F3" stroke-width="2"/>
    </g>
    
    <!-- Moving Source -->
    <g transform="translate(550,200)">
        <circle cx="0" cy="0" r="20" fill="#FF5722"/>
        <text x="0" y="40" text-anchor="middle" font-size="14">Moving Source</text>
        
        <!-- Compressed/Stretched Waves -->
        <path d="M -150,0 Q -100,-50 -50,0 T 50,0" stroke="#FF5722" stroke-width="2" fill="none"/>
        <path d="M -120,-30 Q -70,-80 -20,-30 T 80,-30" stroke="#FF5722" stroke-width="2" fill="none"/>
        <path d="M -120,30 Q -70,80 -20,30 T 80,30" stroke="#FF5722" stroke-width="2" fill="none"/>
        
        <!-- Motion Arrow -->
        <path d="M -40,-20 L 40,-20" stroke="black" stroke-width="2" marker-end="url(#arrowhead)"/>
    </g>
    
    <!-- Arrow marker definition -->
    <defs>
        <marker id="arrowhead" markerWidth="10" markerHeight="7" 
                refX="9" refY="3.5" orient="auto">
            <polygon points="0 0, 10 3.5, 0 7" fill="black"/>
        </marker>
    </defs>
    
    <!-- Frequency Labels -->
    <text x="150" y="100" text-anchor="middle" font-size="14">
        Equal wavelengths
    </text>
    <text x="550" y="100" text-anchor="middle" font-size="14">
        Compressed wavelengths
    </text>
    <text x="550" y="120" text-anchor="middle" font-size="14">
        (higher frequency)
    </text>
</svg>
