<?xml version="1.0" encoding="UTF-8"?>
<svg width="800" height="500" xmlns="http://www.w3.org/2000/svg">
    <!-- Background -->
    <rect width="100%" height="100%" fill="white"/>
    
    <!-- Grid -->
    <pattern id="grid" width="40" height="40" patternUnits="userSpaceOnUse">
        <path d="M 40 0 L 0 0 0 40" fill="none" stroke="#f0f0f0" stroke-width="1"/>
    </pattern>
    <rect width="100%" height="100%" fill="url(#grid)"/>
    
    <!-- Title -->
    <text x="400" y="40" text-anchor="middle" font-size="24" font-family="Arial" font-weight="bold">
        Oblique Shock Waves
    </text>
    
    <!-- Wedge and Flow -->
    <g transform="translate(200,200)">
        <!-- Incoming Flow -->
        <line x1="-100" y1="0" x2="0" y2="0" stroke="black" stroke-width="2" marker-end="url(#arrowhead)"/>
        <text x="-50" y="-20" text-anchor="middle" font-size="14">M₁ > 1</text>
        
        <!-- Wedge -->
        <path d="M 0,0 L 200,100 L 200,0 Z" fill="#E3F2FD" stroke="#2196F3"/>
        
        <!-- Oblique Shock -->
        <line x1="0" y1="0" x2="150" y2="-100" stroke="#F44336" stroke-width="2"/>
        
        <!-- Angles -->
        <path d="M 0,0 A 40,40 0 0,1 35,20" fill="none" stroke="#666" stroke-width="1"/>
        <text x="25" y="15" font-size="14">θ</text>
        
        <path d="M 0,0 A 60,60 0 0,0 42,-42" fill="none" stroke="#666" stroke-width="1"/>
        <text x="35" y="-25" font-size="14">β</text>
    </g>
    
    <!-- Properties -->
    <g transform="translate(500,150)">
        <rect x="0" y="0" width="250" height="150" fill="#f8f8f8" stroke="#ccc"/>
        <text font-family="Arial" font-size="14">
            <tspan x="10" dy="30">Across Shock Wave:</tspan>
            <tspan x="10" dy="25">• Pressure increases</tspan>
            <tspan x="10" dy="25">• Temperature rises</tspan>
            <tspan x="10" dy="25">• Velocity decreases</tspan>
            <tspan x="10" dy="25">• Density increases</tspan>
        </text>
    </g>
    
    <!-- Equations -->
    <g transform="translate(500,350)">
        <rect x="0" y="0" width="250" height="100" fill="#f8f8f8" stroke="#ccc"/>
        <text font-family="Arial" font-size="14">
            <tspan x="10" dy="30">θ-β-M Relation:</tspan>
            <tspan x="10" dy="25">tan θ = f(β, M₁, γ)</tspan>
            <tspan x="10" dy="25">Two possible solutions</tspan>
        </text>
    </g>
    
    <!-- Arrow marker definition -->
    <defs>
        <marker id="arrowhead" markerWidth="10" markerHeight="7" 
                refX="9" refY="3.5" orient="auto">
            <polygon points="0 0, 10 3.5, 0 7" fill="black"/>
        </marker>
    </defs>
</svg>
