<?xml version="1.0" encoding="UTF-8"?>
<svg width="800" height="500" xmlns="http://www.w3.org/2000/svg">
    <!-- Background -->
    <rect width="100%" height="100%" fill="white"/>
    
    <!-- Grid -->
    <pattern id="grid" width="40" height="40" patternUnits="userSpaceOnUse">
        <path d="M 40 0 L 0 0 0 40" fill="none" stroke="#f0f0f0" stroke-width="1"/>
    </pattern>
    <rect width="100%" height="100%" fill="url(#grid)"/>
    
    <!-- Title -->
    <text x="400" y="40" text-anchor="middle" font-size="24" font-family="Arial" font-weight="bold">
        Sonic Boom and N-Wave
    </text>
    
    <!-- Aircraft and Shock Waves -->
    <g transform="translate(400,150)">
        <!-- Aircraft -->
        <path d="M -30,0 L 30,0 L 40,-10 L 30,0 L 40,10 L 30,0" 
              fill="#424242" stroke="none"/>
        
        <!-- Bow Shock -->
        <path d="M -150,100 L 0,0" stroke="#F44336" stroke-width="2"/>
        <path d="M -150,-100 L 0,0" stroke="#F44336" stroke-width="2"/>
        
        <!-- Tail Shock -->
        <path d="M -120,100 L 30,0" stroke="#2196F3" stroke-width="2"/>
        <path d="M -120,-100 L 30,0" stroke="#2196F3" stroke-width="2"/>
        
        <!-- Flight Direction -->
        <line x1="-50" y1="0" x2="100" y2="0" stroke="black" stroke-width="2" marker-end="url(#arrowhead)"/>
    </g>
    
    <!-- N-Wave Pressure Profile -->
    <g transform="translate(150,350)">
        <rect x="0" y="0" width="500" height="120" fill="#f8f8f8" stroke="#ccc"/>
        
        <!-- Axes -->
        <line x1="50" y1="90" x2="450" y2="90" stroke="black" stroke-width="1"/>
        <line x1="50" y1="20" x2="50" y2="90" stroke="black" stroke-width="1"/>
        
        <!-- N-Wave -->
        <path d="M 50,90 L 100,30 L 400,30 L 450,90" 
              fill="none" stroke="#FF5722" stroke-width="2"/>
        
        <!-- Labels -->
        <text x="250" y="110" text-anchor="middle" font-size="12">Time</text>
        <text x="30" y="55" text-anchor="middle" font-size="12" transform="rotate(-90,30,55)">Pressure</text>
        <text x="150" y="25" font-size="12">Bow Shock</text>
        <text x="350" y="25" font-size="12">Tail Shock</text>
    </g>
    
    <!-- Arrow marker definition -->
    <defs>
        <marker id="arrowhead" markerWidth="10" markerHeight="7" 
                refX="9" refY="3.5" orient="auto">
            <polygon points="0 0, 10 3.5, 0 7" fill="black"/>
        </marker>
    </defs>
</svg>
