<?xml version="1.0" encoding="UTF-8"?>
<svg width="800" height="500" xmlns="http://www.w3.org/2000/svg">
    <!-- Background -->
    <rect width="100%" height="100%" fill="white"/>
    
    <!-- Grid -->
    <pattern id="grid" width="40" height="40" patternUnits="userSpaceOnUse">
        <path d="M 40 0 L 0 0 0 40" fill="none" stroke="#f0f0f0" stroke-width="1"/>
    </pattern>
    <rect width="100%" height="100%" fill="url(#grid)"/>
    
    <!-- Title -->
    <text x="400" y="40" text-anchor="middle" font-size="24" font-family="Arial" font-weight="bold">
        Sound Speed vs Temperature
    </text>
    
    <!-- Coordinate System -->
    <g transform="translate(100,400)">
        <!-- Axes -->
        <line x1="0" y1="0" x2="600" y2="0" stroke="black" stroke-width="2"/>
        <line x1="0" y1="0" x2="0" y2="-300" stroke="black" stroke-width="2"/>
        
        <!-- Labels -->
        <text x="300" y="40" text-anchor="middle" font-size="16">Temperature (°C)</text>
        <text x="-40" y="-150" text-anchor="middle" font-size="16" transform="rotate(-90,-40,-150)">
            Speed of Sound (m/s)
        </text>
        
        <!-- Tick marks -->
        <g id="x-ticks">
            <line x1="0" y1="0" x2="0" y2="10" stroke="black"/>
            <line x1="150" y1="0" x2="150" y2="10" stroke="black"/>
            <line x1="300" y1="0" x2="300" y2="10" stroke="black"/>
            <line x1="450" y1="0" x2="450" y2="10" stroke="black"/>
            <line x1="600" y1="0" x2="600" y2="10" stroke="black"/>
            
            <text x="0" y="25" text-anchor="middle">0</text>
            <text x="150" y="25" text-anchor="middle">10</text>
            <text x="300" y="25" text-anchor="middle">20</text>
            <text x="450" y="25" text-anchor="middle">30</text>
            <text x="600" y="25" text-anchor="middle">40</text>
        </g>
    </g>
    
    <!-- Curves -->
    <!-- Air -->
    <path d="M 100,350 Q 400,300 700,250" 
          stroke="#2196F3" stroke-width="3" fill="none"/>
    <text x="720" y="250" font-family="Arial" font-size="14">Air</text>
    
    <!-- Water -->
    <path d="M 100,300 Q 400,200 700,100" 
          stroke="#4CAF50" stroke-width="3" fill="none"/>
    <text x="720" y="100" font-family="Arial" font-size="14">Water</text>
    
    <!-- Key equations -->
    <g transform="translate(150,120)">
        <rect x="-10" y="-50" width="300" height="80" fill="white" stroke="#ccc"/>
        <text font-family="Arial" font-size="14">
            <tspan x="0" dy="0">Air: v ≈ 331.3 + 0.606T (m/s)</tspan>
            <tspan x="0" dy="20">Water: v ≈ 1402.7 + 5.03T - 0.0558T² (m/s)</tspan>
        </text>
    </g>
</svg>
