<?xml version="1.0" encoding="UTF-8"?>
<svg width="800" height="400" xmlns="http://www.w3.org/2000/svg">
    <!-- Background -->
    <rect width="100%" height="100%" fill="white"/>
    
    <!-- Grid -->
    <pattern id="grid" width="40" height="40" patternUnits="userSpaceOnUse">
        <path d="M 40 0 L 0 0 0 40" fill="none" stroke="#f0f0f0" stroke-width="1"/>
    </pattern>
    <rect width="100%" height="100%" fill="url(#grid)"/>
    
    <!-- Title -->
    <text x="400" y="40" text-anchor="middle" font-size="24" font-family="Arial" font-weight="bold">
        Sound Wave Propagation
    </text>
    
    <!-- Wave representation -->
    <g transform="translate(50,200)">
        <!-- Equilibrium line -->
        <line x1="0" y1="0" x2="700" y2="0" stroke="#666" stroke-width="1" stroke-dasharray="5,5"/>
        
        <!-- Compression wave -->
        <path d="M 0,0 
                 Q 50,-40 100,0 
                 T 200,0 
                 T 300,0 
                 T 400,0 
                 T 500,0 
                 T 600,0
                 T 700,0" 
              fill="none" stroke="#2196F3" stroke-width="3"/>
        
        <!-- Particles -->
        <g id="particles">
            <circle cx="50" cy="-20" r="4" fill="#FF5722"/>
            <circle cx="150" cy="0" r="4" fill="#FF5722"/>
            <circle cx="250" cy="20" r="4" fill="#FF5722"/>
            <circle cx="350" cy="0" r="4" fill="#FF5722"/>
            <circle cx="450" cy="-20" r="4" fill="#FF5722"/>
            <circle cx="550" cy="0" r="4" fill="#FF5722"/>
            <circle cx="650" cy="20" r="4" fill="#FF5722"/>
        </g>
        
        <!-- Compression and Rarefaction labels -->
        <text x="100" y="-60" text-anchor="middle" font-family="Arial" font-size="16">Compression</text>
        <text x="300" y="60" text-anchor="middle" font-family="Arial" font-size="16">Rarefaction</text>
    </g>
    
    <!-- Wave properties -->
    <g transform="translate(50,320)">
        <text font-family="Arial" font-size="14">
            <tspan x="0" dy="0">• Longitudinal wave motion</tspan>
            <tspan x="0" dy="20">• Particles oscillate parallel to wave direction</tspan>
            <tspan x="0" dy="20">• Alternating compression and rarefaction regions</tspan>
        </text>
    </g>
    
    <!-- Wavelength indicator -->
    <g transform="translate(100,150)">
        <line x1="0" y1="0" x2="200" y2="0" stroke="#4CAF50" stroke-width="2" marker-end="url(#arrowhead)"/>
        <text x="100" y="-10" text-anchor="middle" font-family="Arial" font-size="16">λ (wavelength)</text>
    </g>
    
    <!-- Arrow marker definition -->
    <defs>
        <marker id="arrowhead" markerWidth="10" markerHeight="7" 
                refX="9" refY="3.5" orient="auto">
            <polygon points="0 0, 10 3.5, 0 7" fill="#4CAF50"/>
        </marker>
    </defs>
</svg>
