<?xml version="1.0" encoding="UTF-8" standalone="no"?>
<svg width="600" height="400" viewBox="0 0 600 400" xmlns="http://www.w3.org/2000/svg">
    <!-- White background -->
    <rect width="100%" height="100%" fill="white"/>
    
    <!-- Road -->
    <rect x="0" y="250" width="600" height="100" fill="#555"/>
    <line x1="0" y1="300" x2="600" y2="300" stroke="white" stroke-width="4" stroke-dasharray="20,20"/>
    
    <!-- Car (moving right) -->
    <g transform="translate(300,270)">
        <!-- Car body -->
        <rect x="-40" y="-30" width="80" height="40" fill="#2196F3" rx="5"/>
        <!-- Windshield -->
        <path d="M -20,-30 L -10,-40 L 20,-40 L 30,-30" fill="#87CEEB"/>
        <!-- Wheels -->
        <circle cx="-25" cy="15" r="12" fill="black"/>
        <circle cx="25" cy="15" r="12" fill="black"/>
        <!-- Headlight -->
        <rect x="35" y="-20" width="10" height="10" fill="#FFD700"/>
    </g>
    
    <!-- Sound waves (compressed in front) -->
    <g stroke="#FF5722" stroke-width="2" fill="none">
        <!-- Front waves (compressed) -->
        <path d="M 380,270 A 20,20 0 0,1 400,250"/>
        <path d="M 400,270 A 30,30 0 0,1 430,240"/>
        <path d="M 420,270 A 40,40 0 0,1 460,230"/>
        
        <!-- Back waves (expanded) -->
        <path d="M 220,270 A 20,20 0 0,0 200,250"/>
        <path d="M 200,270 A 40,40 0 0,0 160,240"/>
        <path d="M 180,270 A 60,60 0 0,0 120,230"/>
    </g>
    
    <!-- Stationary observer (left) -->
    <g transform="translate(100,200)">
        <!-- Person -->
        <circle cx="0" cy="0" r="10" fill="#4CAF50"/>
        <line x1="0" y1="10" x2="0" y2="40" stroke="#4CAF50" stroke-width="4"/>
        <line x1="-15" y1="25" x2="15" y2="25" stroke="#4CAF50" stroke-width="4"/>
        <line x1="0" y1="40" x2="-10" y2="60" stroke="#4CAF50" stroke-width="4"/>
        <line x1="0" y1="40" x2="10" y2="60" stroke="#4CAF50" stroke-width="4"/>
        <!-- Ear symbol -->
        <path d="M 12,-5 C 18,-5 20,0 20,5 C 20,10 18,15 12,15" stroke="#4CAF50" stroke-width="2" fill="none"/>
    </g>
    
    <!-- Labels -->
    <text x="380" y="200" font-size="16" fill="black" font-weight="bold">Higher frequency</text>
    <text x="100" y="150" font-size="16" fill="black" font-weight="bold">Lower frequency</text>
    <text x="280" y="350" font-size="16" fill="black" font-weight="bold">v = 30 m/s</text>
    
    <!-- Title -->
    <text x="20" y="40" font-size="20" font-weight="bold" fill="black">Doppler Effect: Moving Sound Source</text>
    <text x="20" y="70" font-size="14" fill="black">Observer hears higher pitch as car approaches, lower pitch as it moves away</text>
</svg>
