<?xml version="1.0" encoding="UTF-8" standalone="no"?>
<svg width="800" height="400" xmlns="http://www.w3.org/2000/svg">
    <!-- Background -->
    <rect width="800" height="400" fill="#ffffff"/>
    
    <!-- Field visualization -->
    <g transform="translate(400,200)">
        <!-- Field lines -->
        <g stroke="#0066cc" stroke-width="1.5">
            <!-- Radial field lines -->
            <path d="M -200,0 A 200,200 0 0,1 200,0" fill="none"/>
            <path d="M -180,-50 A 180,180 0 0,1 180,-50" fill="none"/>
            <path d="M -180,50 A 180,180 0 0,1 180,50" fill="none"/>
            <path d="M -150,-100 A 150,150 0 0,1 150,-100" fill="none"/>
            <path d="M -150,100 A 150,150 0 0,1 150,100" fill="none"/>
            
            <!-- Cross field lines -->
            <path d="M -200,0 C -150,-100 150,-100 200,0" fill="none"/>
            <path d="M -200,0 C -150,-50 150,-50 200,0" fill="none"/>
            <path d="M -200,0 C -150,50 150,50 200,0" fill="none"/>
            <path d="M -200,0 C -150,100 150,100 200,0" fill="none"/>
        </g>
        
        <!-- Field source -->
        <circle cx="0" cy="0" r="20" fill="#cc0000"/>
        
        <!-- Field vectors -->
        <g stroke="#009900" stroke-width="2">
            <path d="M -100,-50 L -80,-40" marker-end="url(#arrow)"/>
            <path d="M 100,-50 L 80,-40" marker-end="url(#arrow)"/>
            <path d="M -100,50 L -80,40" marker-end="url(#arrow)"/>
            <path d="M 100,50 L 80,40" marker-end="url(#arrow)"/>
        </g>
    </g>
    
    <!-- Arrow marker definition -->
    <defs>
        <marker id="arrow" viewBox="0 0 10 10" refX="9" refY="5"
                markerWidth="6" markerHeight="6" orient="auto">
            <path d="M 0,0 L 10,5 L 0,10 z" fill="#009900"/>
        </marker>
    </defs>
    
    <!-- Labels -->
    <text x="400" y="30" text-anchor="middle" font-family="Arial" font-size="20">Field Theory</text>
    <text x="400" y="200" text-anchor="middle" font-family="Arial" font-size="16" fill="#cc0000">Source</text>
    <text x="600" y="150" font-family="Arial" font-size="16" fill="#0066cc">Field Lines</text>
    <text x="600" y="170" font-family="Arial" font-size="16" fill="#009900">Field Vectors</text>
</svg>
