<?xml version="1.0" encoding="UTF-8" standalone="no"?>
<svg width="800" height="400" xmlns="http://www.w3.org/2000/svg">
    <!-- Background -->
    <rect width="800" height="400" fill="#ffffff"/>
    
    <!-- Material block under stress -->
    <g transform="translate(100,100)">
        <!-- Original shape -->
        <rect x="0" y="0" width="200" height="200" 
              stroke="#000000" stroke-width="2" fill="none" stroke-dasharray="5,5"/>
        
        <!-- Deformed shape -->
        <path d="M 0,0 L 50,-20 L 250,-20 L 200,0 Z" 
              stroke="#0066cc" stroke-width="2" fill="#0066cc" fill-opacity="0.1"/>
        <path d="M 200,0 L 250,-20 L 250,180 L 200,200 Z" 
              stroke="#0066cc" stroke-width="2" fill="#0066cc" fill-opacity="0.1"/>
        <path d="M 0,200 L 50,180 L 250,180 L 200,200 Z" 
              stroke="#0066cc" stroke-width="2" fill="#0066cc" fill-opacity="0.1"/>
        
        <!-- Stress arrows -->
        <g stroke="#cc0000" stroke-width="2">
            <!-- Top face -->
            <path d="M 50,-40 L 50,-20" marker-end="url(#arrow)"/>
            <path d="M 150,-40 L 150,-20" marker-end="url(#arrow)"/>
            <path d="M 250,-40 L 250,-20" marker-end="url(#arrow)"/>
            
            <!-- Right face -->
            <path d="M 270,50 L 250,50" marker-end="url(#arrow)"/>
            <path d="M 270,100 L 250,100" marker-end="url(#arrow)"/>
            <path d="M 270,150 L 250,150" marker-end="url(#arrow)"/>
        </g>
    </g>
    
    <!-- Arrow marker definition -->
    <defs>
        <marker id="arrow" viewBox="0 0 10 10" refX="9" refY="5"
                markerWidth="6" markerHeight="6" orient="auto">
            <path d="M 0,0 L 10,5 L 0,10 z" fill="#cc0000"/>
        </marker>
    </defs>
    
    <!-- Labels -->
    <text x="400" y="30" text-anchor="middle" font-family="Arial" font-size="20">Stress and Strain in Continuum Mechanics</text>
    <text x="150" y="350" font-family="Arial" font-size="16">Original Shape</text>
    <text x="350" y="350" font-family="Arial" font-size="16" fill="#0066cc">Deformed Shape</text>
    <text x="550" y="350" font-family="Arial" font-size="16" fill="#cc0000">Applied Stress</text>
</svg>
