<?xml version="1.0" encoding="UTF-8" standalone="no"?>
<svg width="800" height="400" xmlns="http://www.w3.org/2000/svg">
  <!-- Background -->
  <rect width="800" height="400" fill="white"/>
  
  <!-- Title -->
  <text x="400" y="30" font-family="Arial" font-size="20" text-anchor="middle" font-weight="bold">Gaussian Beam Propagation</text>
  
  <!-- Coordinate system -->
  <line x1="100" y1="200" x2="700" y2="200" stroke="black" stroke-width="2" marker-end="url(#arrow)"/> <!-- z-axis -->
  <text x="710" y="205" font-family="Arial" font-size="16">z</text>
  
  <!-- Beam waist and propagation -->
  <path d="M 400,100 
           C 400,100 450,110 500,140
           C 550,170 600,190 650,195
           L 650,205
           C 600,210 550,230 500,260
           C 450,290 400,300 400,300
           C 400,300 350,290 300,260
           C 250,230 200,210 150,205
           L 150,195
           C 200,190 250,170 300,140
           C 350,110 400,100 400,100 Z" 
        fill="#FFD580" fill-opacity="0.3" stroke="red" stroke-width="2"/>
  
  <!-- Beam envelope -->
  <path d="M 400,100 
           C 450,110 500,140 550,170 
           C 600,190 650,195 650,195" 
        fill="none" stroke="red" stroke-width="2" stroke-dasharray="5,3"/>
  
  <path d="M 400,300 
           C 450,290 500,260 550,230 
           C 600,210 650,205 650,205" 
        fill="none" stroke="red" stroke-width="2" stroke-dasharray="5,3"/>
  
  <path d="M 400,100 
           C 350,110 300,140 250,170 
           C 200,190 150,195 150,195" 
        fill="none" stroke="red" stroke-width="2" stroke-dasharray="5,3"/>
  
  <path d="M 400,300 
           C 350,290 300,260 250,230 
           C 200,210 150,205 150,205" 
        fill="none" stroke="red" stroke-width="2" stroke-dasharray="5,3"/>
  
  <!-- Beam waist -->
  <line x1="400" y1="100" x2="400" y2="300" stroke="blue" stroke-width="2" stroke-dasharray="5,3"/>
  <line x1="395" y1="100" x2="405" y2="100" stroke="blue" stroke-width="2"/>
  <line x1="395" y1="300" x2="405" y2="300" stroke="blue" stroke-width="2"/>
  
  <!-- Rayleigh range markers -->
  <line x1="500" y1="140" x2="500" y2="260" stroke="green" stroke-width="2" stroke-dasharray="5,3"/>
  <line x1="495" y1="140" x2="505" y2="140" stroke="green" stroke-width="2"/>
  <line x1="495" y1="260" x2="505" y2="260" stroke="green" stroke-width="2"/>
  
  <line x1="300" y1="140" x2="300" y2="260" stroke="green" stroke-width="2" stroke-dasharray="5,3"/>
  <line x1="295" y1="140" x2="305" y2="140" stroke="green" stroke-width="2"/>
  <line x1="295" y1="260" x2="305" y2="260" stroke="green" stroke-width="2"/>
  
  <!-- Beam waist radius annotation -->
  <line x1="400" y1="200" x2="400" y2="100" stroke="black" stroke-width="1" stroke-dasharray="3,3"/>
  <text x="385" y="150" font-family="Arial" font-size="14" text-anchor="end">w₀</text>
  
  <!-- Beam radius at Rayleigh range annotation -->
  <line x1="500" y1="200" x2="500" y2="140" stroke="black" stroke-width="1" stroke-dasharray="3,3"/>
  <text x="510" y="170" font-family="Arial" font-size="14">w(z_R) = √2·w₀</text>
  
  <!-- Rayleigh range annotation -->
  <line x1="400" y1="320" x2="500" y2="320" stroke="black" stroke-width="1"/>
  <line x1="400" y1="315" x2="400" y2="325" stroke="black" stroke-width="1"/>
  <line x1="500" y1="315" x2="500" y2="325" stroke="black" stroke-width="1"/>
  <text x="450" y="340" font-family="Arial" font-size="14" text-anchor="middle">z_R = πw₀²/λ</text>
  
  <!-- Far field divergence angle -->
  <path d="M 400,200 L 650,150" stroke="purple" stroke-width="1" stroke-dasharray="3,3"/>
  <path d="M 400,200 L 650,250" stroke="purple" stroke-width="1" stroke-dasharray="3,3"/>
  <path d="M 500,200 
           A 100,100 0 0,0 510,185" 
        fill="none" stroke="purple" stroke-width="1"/>
  <text x="520" y="190" font-family="Arial" font-size="14">θ = λ/πw₀</text>
  
  <!-- Intensity profiles -->
  <g transform="translate(150, 200)">
    <!-- Vertical axis -->
    <line x1="0" y1="0" x2="0" y2="-80" stroke="black" stroke-width="1"/>
    <line x1="-30" y1="0" x2="30" y2="0" stroke="black" stroke-width="1"/>
    
    <!-- Gaussian curve -->
    <path d="M -30,0 
             C -30,0 -25,-40 -15,-70
             C -5,-78 5,-78 15,-70
             C 25,-40 30,0 30,0" 
          fill="none" stroke="red" stroke-width="1.5"/>
    
    <text x="0" y="-90" font-family="Arial" font-size="12" text-anchor="middle">I(r,0)</text>
  </g>
  
  <g transform="translate(500, 200)">
    <!-- Vertical axis -->
    <line x1="0" y1="0" x2="0" y2="-60" stroke="black" stroke-width="1"/>
    <line x1="-40" y1="0" x2="40" y2="0" stroke="black" stroke-width="1"/>
    
    <!-- Gaussian curve -->
    <path d="M -40,0 
             C -40,0 -35,-20 -25,-35
             C -15,-42 15,-42 25,-35
             C 35,-20 40,0 40,0" 
          fill="none" stroke="red" stroke-width="1.5"/>
    
    <text x="0" y="-70" font-family="Arial" font-size="12" text-anchor="middle">I(r,z_R)</text>
  </g>
  
  <!-- Key equations -->
  <text x="150" y="370" font-family="Arial" font-size="14">Beam Radius: w(z) = w₀√[1+(z/z_R)²]</text>
  <text x="450" y="370" font-family="Arial" font-size="14">Intensity: I(r,z) = I₀(w₀/w(z))²exp(-2r²/w(z)²)</text>
  
  <!-- Arrow marker definition -->
  <defs>
    <marker id="arrow" markerWidth="10" markerHeight="10" refX="9" refY="3" orient="auto" markerUnits="strokeWidth">
      <path d="M0,0 L0,6 L9,3 z" fill="black"/>
    </marker>
  </defs>
</svg>
