<?xml version="1.0" encoding="UTF-8" standalone="no"?>
<svg width="800" height="500" xmlns="http://www.w3.org/2000/svg">
  <!-- Background -->
  <rect width="800" height="500" fill="white"/>
  
  <!-- Title -->
  <text x="400" y="30" font-family="Arial" font-size="20" text-anchor="middle" font-weight="bold">Laser Resonator Modes and Stability</text>
  
  <!-- Transverse modes section -->
  <g transform="translate(50, 100)">
    <text x="150" y="-20" font-family="Arial" font-size="16" text-anchor="middle" font-weight="bold">Transverse Electromagnetic Modes (TEM)</text>
    
    <!-- TEM00 mode -->
    <circle cx="50" cy="50" r="40" fill="url(#TEM00)" stroke="black" stroke-width="1"/>
    <text x="50" y="110" font-family="Arial" font-size="14" text-anchor="middle">TEM₀₀</text>
    <text x="50" y="130" font-family="Arial" font-size="12" text-anchor="middle">Gaussian</text>
    
    <!-- TEM01 mode -->
    <circle cx="150" cy="50" r="40" fill="url(#TEM01)" stroke="black" stroke-width="1"/>
    <text x="150" y="110" font-family="Arial" font-size="14" text-anchor="middle">TEM₀₁</text>
    
    <!-- TEM10 mode -->
    <circle cx="250" cy="50" r="40" fill="url(#TEM10)" stroke="black" stroke-width="1"/>
    <text x="250" y="110" font-family="Arial" font-size="14" text-anchor="middle">TEM₁₀</text>
    
    <!-- TEM11 mode -->
    <circle cx="350" cy="50" r="40" fill="url(#TEM11)" stroke="black" stroke-width="1"/>
    <text x="350" y="110" font-family="Arial" font-size="14" text-anchor="middle">TEM₁₁</text>
    
    <!-- Mode notation explanation -->
    <text x="200" y="160" font-family="Arial" font-size="14" text-anchor="middle">TEMₘₙ: m = horizontal nodes, n = vertical nodes</text>
    <text x="200" y="180" font-family="Arial" font-size="14" text-anchor="middle">Higher order modes have larger beam divergence and spot size</text>
  </g>
  
  <!-- Resonator stability section -->
  <g transform="translate(50, 250)">
    <text x="350" y="-20" font-family="Arial" font-size="16" text-anchor="middle" font-weight="bold">Resonator Stability Diagram</text>
    
    <!-- Stability diagram -->
    <rect x="100" y="0" width="500" height="200" fill="#F8F8F8" stroke="black" stroke-width="1"/>
    
    <!-- Axes -->
    <line x1="100" y1="200" x2="600" y2="200" stroke="black" stroke-width="2"/> <!-- x-axis -->
    <line x1="100" y1="0" x2="100" y2="200" stroke="black" stroke-width="2"/> <!-- y-axis -->
    
    <!-- Axis labels -->
    <text x="350" y="220" font-family="Arial" font-size="14" text-anchor="middle">g₁ = 1 - L/R₁</text>
    <text x="80" y="100" font-family="Arial" font-size="14" text-anchor="middle" transform="rotate(-90, 80, 100)">g₂ = 1 - L/R₂</text>
    
    <!-- Stability region -->
    <path d="M 100,0 L 600,0 L 600,200 L 100,200 Z" fill="none" stroke="black" stroke-width="1"/>
    <path d="M 100,0 L 600,200" fill="none" stroke="black" stroke-width="1" stroke-dasharray="5,5"/>
    <path d="M 100,200 L 600,0" fill="none" stroke="black" stroke-width="1" stroke-dasharray="5,5"/>
    
    <!-- Stability region shading -->
    <path d="M 100,100 L 350,200 L 600,100 L 350,0 Z" fill="#90EE90" fill-opacity="0.3" stroke="none"/>
    
    <!-- Stability condition -->
    <text x="350" y="100" font-family="Arial" font-size="14" text-anchor="middle">0 ≤ g₁g₂ ≤ 1</text>
    
    <!-- Common resonator configurations -->
    <circle cx="350" cy="150" r="6" fill="red" stroke="black"/>
    <text x="370" y="150" font-family="Arial" font-size="12">Plane-parallel (g₁=g₂=1)</text>
    
    <circle cx="350" cy="50" r="6" fill="red" stroke="black"/>
    <text x="370" y="50" font-family="Arial" font-size="12">Concentric (g₁=g₂=-1)</text>
    
    <circle cx="200" cy="100" r="6" fill="red" stroke="black"/>
    <text x="220" y="100" font-family="Arial" font-size="12">Hemispherical (g₁=1, g₂=0)</text>
    
    <circle cx="500" cy="100" r="6" fill="red" stroke="black"/>
    <text x="520" y="100" font-family="Arial" font-size="12">Confocal (g₁=g₂=0)</text>
  </g>
  
  <!-- Common resonator configurations -->
  <g transform="translate(500, 100)">
    <text x="150" y="-20" font-family="Arial" font-size="16" text-anchor="middle" font-weight="bold">Common Resonator Types</text>
    
    <!-- Plane-parallel -->
    <line x1="20" y1="30" x2="120" y2="30" stroke="black" stroke-width="3"/>
    <line x1="280" y1="30" x2="380" y2="30" stroke="black" stroke-width="3"/>
    <text x="200" y="30" font-family="Arial" font-size="14" text-anchor="middle">Plane-parallel</text>
    <text x="200" y="50" font-family="Arial" font-size="12" text-anchor="middle">R₁ = R₂ = ∞</text>
    
    <!-- Concentric -->
    <path d="M 20,80 A 180,180 0 0,1 380,80" fill="none" stroke="black" stroke-width="3"/>
    <text x="200" y="80" font-family="Arial" font-size="14" text-anchor="middle">Concentric</text>
    <text x="200" y="100" font-family="Arial" font-size="12" text-anchor="middle">R₁ = R₂ = L/2</text>
    
    <!-- Hemispherical -->
    <line x1="20" y1="130" x2="120" y2="130" stroke="black" stroke-width="3"/>
    <path d="M 280,130 A 160,160 0 0,1 380,130" fill="none" stroke="black" stroke-width="3"/>
    <text x="200" y="130" font-family="Arial" font-size="14" text-anchor="middle">Hemispherical</text>
    <text x="200" y="150" font-family="Arial" font-size="12" text-anchor="middle">R₁ = ∞, R₂ = L</text>
    
    <!-- Confocal -->
    <path d="M 20,180 A 360,360 0 0,1 120,180" fill="none" stroke="black" stroke-width="3"/>
    <path d="M 280,180 A 360,360 0 0,1 380,180" fill="none" stroke="black" stroke-width="3"/>
    <text x="200" y="180" font-family="Arial" font-size="14" text-anchor="middle">Confocal</text>
    <text x="200" y="200" font-family="Arial" font-size="12" text-anchor="middle">R₁ = R₂ = L</text>
  </g>
  
  <!-- Mode patterns definitions -->
  <defs>
    <!-- TEM00 mode pattern -->
    <radialGradient id="TEM00" cx="50%" cy="50%" r="50%" fx="50%" fy="50%">
      <stop offset="0%" style="stop-color:rgb(255,0,0);stop-opacity:1" />
      <stop offset="100%" style="stop-color:rgb(255,255,255);stop-opacity:0" />
    </radialGradient>
    
    <!-- TEM01 mode pattern -->
    <linearGradient id="TEM01" x1="0%" y1="0%" x2="0%" y2="100%">
      <stop offset="0%" style="stop-color:rgb(255,0,0);stop-opacity:1" />
      <stop offset="50%" style="stop-color:rgb(255,255,255);stop-opacity:0" />
      <stop offset="100%" style="stop-color:rgb(255,0,0);stop-opacity:1" />
    </linearGradient>
    
    <!-- TEM10 mode pattern -->
    <linearGradient id="TEM10" x1="0%" y1="0%" x2="100%" y2="0%">
      <stop offset="0%" style="stop-color:rgb(255,0,0);stop-opacity:1" />
      <stop offset="50%" style="stop-color:rgb(255,255,255);stop-opacity:0" />
      <stop offset="100%" style="stop-color:rgb(255,0,0);stop-opacity:1" />
    </linearGradient>
    
    <!-- TEM11 mode pattern -->
    <pattern id="TEM11" patternUnits="userSpaceOnUse" width="80" height="80">
      <rect width="80" height="80" fill="white"/>
      <rect x="0" y="0" width="40" height="40" fill="red" fill-opacity="0.7"/>
      <rect x="40" y="40" width="40" height="40" fill="red" fill-opacity="0.7"/>
    </pattern>
  </defs>
</svg>
