<?xml version="1.0" encoding="UTF-8" standalone="no"?>
<svg width="800" height="500" xmlns="http://www.w3.org/2000/svg">
  <!-- Background -->
  <rect width="800" height="500" fill="#f8f8f8" />
  
  <!-- Title -->
  <text x="400" y="30" font-family="Arial" font-size="24" text-anchor="middle" fill="#333">Bloch Sphere Representation of Qubit States</text>
  
  <!-- Coordinate system -->
  <g transform="translate(400, 250)">
    <!-- Sphere outline -->
    <circle cx="0" cy="0" r="150" stroke="#ccc" stroke-width="1" fill="none" />
    <ellipse cx="0" cy="0" rx="150" ry="30" stroke="#ccc" stroke-width="1" fill="none" />
    
    <!-- x-axis -->
    <line x1="-180" y1="0" x2="180" y2="0" stroke="#333" stroke-width="2" />
    <text x="190" y="15" font-family="Arial" font-size="16" fill="#333">x</text>
    
    <!-- y-axis -->
    <line x1="0" y1="180" x2="0" y2="-180" stroke="#333" stroke-width="2" />
    <text x="10" y="-190" font-family="Arial" font-size="16" fill="#333">z</text>
    
    <!-- y-axis (coming out of page) -->
    <line x1="0" y1="0" x2="150" y2="-30" stroke="#333" stroke-width="2" stroke-dasharray="5,5" />
    <text x="160" y="-35" font-family="Arial" font-size="16" fill="#333">y</text>
  </g>
  
  <!-- Bloch sphere elements -->
  <g transform="translate(400, 250)">
    <!-- Equator -->
    <ellipse cx="0" cy="0" rx="150" ry="30" stroke="#999" stroke-width="1.5" fill="none" />
    
    <!-- Meridians -->
    <path d="M 0,-150 A 150 150 0 0 1 0,150 A 150 150 0 0 1 0,-150" stroke="#999" stroke-width="1.5" fill="none" />
    <path d="M -150,0 A 150 150 0 0 1 150,0 A 150 150 0 0 1 -150,0" stroke="#999" stroke-width="1.5" fill="none" transform="rotate(45)" />
    <path d="M -150,0 A 150 150 0 0 1 150,0 A 150 150 0 0 1 -150,0" stroke="#999" stroke-width="1.5" fill="none" transform="rotate(-45)" />
    
    <!-- Basis states -->
    <circle cx="0" cy="-150" r="5" fill="#3366cc" />
    <text x="10" y="-150" font-family="Arial" font-size="16" fill="#3366cc">|0⟩</text>
    
    <circle cx="0" cy="150" r="5" fill="#3366cc" />
    <text x="10" y="155" font-family="Arial" font-size="16" fill="#3366cc">|1⟩</text>
    
    <circle cx="150" cy="0" r="5" fill="#cc3366" />
    <text x="160" y="5" font-family="Arial" font-size="16" fill="#cc3366">|+⟩</text>
    
    <circle cx="-150" cy="0" r="5" fill="#cc3366" />
    <text x="-170" y="5" font-family="Arial" font-size="16" fill="#cc3366">|-⟩</text>
  </g>
  
  <!-- Arbitrary state vector -->
  <g transform="translate(400, 250)">
    <!-- State vector -->
    <line x1="0" y1="0" x2="106" y2="-106" stroke="#33cc66" stroke-width="3" />
    <circle cx="106" cy="-106" r="6" fill="#33cc66" />
    <text x="116" y="-116" font-family="Arial" font-size="16" fill="#33cc66">|ψ⟩</text>
    
    <!-- Angles -->
    <path d="M 0,0 L 30,0 A 30 30 0 0 1 21.21,-21.21" stroke="#666" stroke-width="1.5" fill="none" />
    <text x="25" y="-15" font-family="Arial" font-size="14" fill="#666">θ</text>
    
    <path d="M 30,0 A 30 6 0 0 1 21.21,-4.24" stroke="#666" stroke-width="1.5" fill="none" />
    <text x="35" y="-5" font-family="Arial" font-size="14" fill="#666">φ</text>
    
    <!-- Projections -->
    <line x1="0" y1="0" x2="106" y2="0" stroke="#33cc66" stroke-width="1.5" stroke-dasharray="5,5" />
    <line x1="106" y1="0" x2="106" y2="-106" stroke="#33cc66" stroke-width="1.5" stroke-dasharray="5,5" />
    <line x1="0" y1="0" x2="0" y2="-106" stroke="#33cc66" stroke-width="1.5" stroke-dasharray="5,5" />
    <line x1="0" y1="-106" x2="106" y2="-106" stroke="#33cc66" stroke-width="1.5" stroke-dasharray="5,5" />
  </g>
  
  <!-- State equation -->
  <g transform="translate(400, 430)">
    <text x="0" y="0" font-family="Arial" font-size="18" text-anchor="middle" fill="#333">
      |ψ⟩ = cos(θ/2)|0⟩ + e^(iφ)sin(θ/2)|1⟩
    </text>
  </g>
  
  <!-- Expectation values -->
  <g transform="translate(650, 150)">
    <text x="0" y="0" font-family="Arial" font-size="16" fill="#333">Expectation values:</text>
    <text x="0" y="30" font-family="Arial" font-size="16" fill="#333">⟨σₓ⟩ = sin θ cos φ</text>
    <text x="0" y="60" font-family="Arial" font-size="16" fill="#333">⟨σᵧ⟩ = sin θ sin φ</text>
    <text x="0" y="90" font-family="Arial" font-size="16" fill="#333">⟨σᵣ⟩ = cos θ</text>
  </g>
  
  <!-- Explanation -->
  <g transform="translate(150, 150)">
    <text x="0" y="0" font-family="Arial" font-size="16" fill="#333">Key properties:</text>
    <text x="0" y="30" font-family="Arial" font-size="14" fill="#333">• Pure states lie on the surface</text>
    <text x="0" y="60" font-family="Arial" font-size="14" fill="#333">• Mixed states lie inside</text>
    <text x="0" y="90" font-family="Arial" font-size="14" fill="#333">• Antipodal points are orthogonal</text>
    <text x="0" y="120" font-family="Arial" font-size="14" fill="#333">• Unitary operations = rotations</text>
  </g>
</svg>
