<?xml version="1.0" encoding="UTF-8"?>
<svg width="800" height="500" viewBox="0 0 800 500" xmlns="http://www.w3.org/2000/svg">
  <!-- Definitions -->
  <defs>
    <!-- Gradients -->
    <radialGradient id="electronGradient" cx="50%" cy="50%" r="50%" fx="30%" fy="30%">
      <stop offset="0%" style="stop-color:#80c0ff;stop-opacity:1" />
      <stop offset="100%" style="stop-color:#0066cc;stop-opacity:1" />
    </radialGradient>
    
    <radialGradient id="protonGradient" cx="50%" cy="50%" r="50%" fx="30%" fy="30%">
      <stop offset="0%" style="stop-color:#ff8080;stop-opacity:1" />
      <stop offset="100%" style="stop-color:#cc0000;stop-opacity:1" />
    </radialGradient>
    
    <radialGradient id="neutronGradient" cx="50%" cy="50%" r="50%" fx="30%" fy="30%">
      <stop offset="0%" style="stop-color:#dddddd;stop-opacity:1" />
      <stop offset="100%" style="stop-color:#999999;stop-opacity:1" />
    </radialGradient>
    
    <radialGradient id="waveGradient" cx="50%" cy="50%" r="50%" fx="30%" fy="30%">
      <stop offset="0%" style="stop-color:#9c27b0;stop-opacity:0.7" />
      <stop offset="100%" style="stop-color:#9c27b0;stop-opacity:0" />
    </radialGradient>
    
    <!-- Filters -->
    <filter id="glow" x="-50%" y="-50%" width="200%" height="200%">
      <feGaussianBlur stdDeviation="2" />
    </filter>
    
    <!-- Clipping paths -->
    <clipPath id="graphClip">
      <rect x="0" y="0" width="350" height="200" />
    </clipPath>
    
    <!-- Markers -->
    <marker id="arrowhead" markerWidth="10" markerHeight="7" refX="9" refY="3.5" orient="auto">
      <polygon points="0 0, 10 3.5, 0 7" fill="#666"/>
    </marker>
  </defs>
  
  <!-- Styles -->
  <style>
    text {
      font-family: Arial, sans-serif;
      fill: #333;
    }
    .title {
      font-size: 24px;
      font-weight: bold;
      text-anchor: middle;
    }
    .subtitle {
      font-size: 18px;
      font-weight: bold;
      text-anchor: middle;
    }
    .label {
      font-size: 14px;
      text-anchor: middle;
    }
    .small-label {
      font-size: 12px;
      text-anchor: middle;
    }
    .equation {
      font-size: 16px;
      font-style: italic;
      text-anchor: middle;
    }
    .axis {
      stroke: #666;
      stroke-width: 2;
    }
    .electron {
      fill: url(#electronGradient);
      stroke: #0066cc;
      stroke-width: 1;
    }
    .proton {
      fill: url(#protonGradient);
      stroke: #cc0000;
      stroke-width: 1;
    }
    .neutron {
      fill: url(#neutronGradient);
      stroke: #777777;
      stroke-width: 1;
    }
    .wave {
      fill: none;
      stroke: #9c27b0;
      stroke-width: 2;
    }
    .wave-highlight {
      fill: none;
      stroke: #9c27b0;
      stroke-width: 3;
      filter: url(#glow);
    }
    .momentum-arrow {
      fill: none;
      stroke: #ff6b6b;
      stroke-width: 2;
      marker-end: url(#arrowhead);
    }
    .wavelength-marker {
      fill: none;
      stroke: #9c27b0;
      stroke-width: 1;
      stroke-dasharray: 4,2;
    }
    .graph-line {
      fill: none;
      stroke: #4d8bf5;
      stroke-width: 2;
    }
    .graph-grid {
      stroke: #ddd;
      stroke-width: 0.5;
    }
    .annotation {
      font-size: 14px;
      fill: #555;
    }
    
    /* Animations */
    @keyframes moveParticle {
      0% { transform: translateX(-50px); }
      100% { transform: translateX(300px); }
    }
    
    @keyframes waveMoveSlow {
      0% { transform: translateX(0); }
      100% { transform: translateX(-100px); }
    }
    
    @keyframes waveMoveMedium {
      0% { transform: translateX(0); }
      100% { transform: translateX(-150px); }
    }
    
    @keyframes waveMoveFast {
      0% { transform: translateX(0); }
      100% { transform: translateX(-200px); }
    }
    
    @keyframes pulse {
      0%, 100% { opacity: 0.7; transform: scale(1); }
      50% { opacity: 1; transform: scale(1.1); }
    }
    
    @keyframes fadeIn {
      from { opacity: 0; }
      to { opacity: 1; }
    }
    
    .particle-slow {
      animation: moveParticle 6s linear infinite;
    }
    
    .particle-medium {
      animation: moveParticle 4s linear infinite;
    }
    
    .particle-fast {
      animation: moveParticle 2s linear infinite;
    }
    
    .wave-slow {
      animation: waveMoveSlow 6s linear infinite;
    }
    
    .wave-medium {
      animation: waveMoveMedium 4s linear infinite;
    }
    
    .wave-fast {
      animation: waveMoveFast 2s linear infinite;
    }
    
    .pulse {
      animation: pulse 2s infinite;
    }
    
    .fade-in {
      animation: fadeIn 2s forwards;
    }
  </style>
  
  <!-- Background -->
  <rect width="800" height="500" fill="white" />
  
  <!-- Title -->
  <text x="400" y="40" class="title">De Broglie's Matter Waves (1924)</text>
  <text x="400" y="70" class="subtitle">λ = h/p = h/mv</text>
  
  <!-- Particle Wave Visualization -->
  <g transform="translate(100, 170)">
    <!-- Slow Electron -->
    <g transform="translate(0, 0)">
      <text x="0" y="-30" class="label">Slow Electron (Low Energy)</text>
      <text x="0" y="-15" class="small-label">Long Wavelength</text>
      
      <!-- Wave path -->
      <g class="wave-container wave-slow">
        <path d="M0,0 C12.5,-20 37.5,20 50,0 C62.5,-20 87.5,20 100,0 C112.5,-20 137.5,20 150,0 C162.5,-20 187.5,20 200,0 C212.5,-20 237.5,20 250,0 C262.5,-20 287.5,20 300,0 C312.5,-20 337.5,20 350,0" class="wave" />
      </g>
      
      <!-- Wavelength marker -->
      <line x1="0" y1="20" x2="50" y2="20" class="wavelength-marker" />
      <text x="25" y="35" class="small-label">λ₁</text>
      
      <!-- Particle -->
      <circle cx="100" cy="0" r="8" class="electron particle-slow" />
      
      <!-- Momentum arrow -->
      <line x1="100" y1="20" x2="150" y2="20" class="momentum-arrow" />
      <text x="130" y="35" class="small-label">p₁</text>
    </g>
    
    <!-- Medium Electron -->
    <g transform="translate(0, 80)">
      <text x="0" y="-30" class="label">Medium Velocity Electron</text>
      <text x="0" y="-15" class="small-label">Medium Wavelength</text>
      
      <!-- Wave path -->
      <g class="wave-container wave-medium">
        <path d="M0,0 C8.33,-20 25,20 33.33,0 C41.67,-20 58.33,20 66.67,0 C75,-20 91.67,20 100,0 C108.33,-20 125,20 133.33,0 C141.67,-20 158.33,20 166.67,0 C175,-20 191.67,20 200,0 C208.33,-20 225,20 233.33,0 C241.67,-20 258.33,20 266.67,0 C275,-20 291.67,20 300,0 C308.33,-20 325,20 333.33,0 C341.67,-20 358.33,20 366.67,0" class="wave" />
      </g>
      
      <!-- Wavelength marker -->
      <line x1="0" y1="20" x2="33.33" y2="20" class="wavelength-marker" />
      <text x="16" y="35" class="small-label">λ₂</text>
      
      <!-- Particle -->
      <circle cx="150" cy="0" r="8" class="electron particle-medium" />
      
      <!-- Momentum arrow -->
      <line x1="150" y1="20" x2="225" y2="20" class="momentum-arrow" />
      <text x="190" y="35" class="small-label">p₂ > p₁</text>
    </g>
    
    <!-- Fast Electron -->
    <g transform="translate(0, 160)">
      <text x="0" y="-30" class="label">Fast Electron (High Energy)</text>
      <text x="0" y="-15" class="small-label">Short Wavelength</text>
      
      <!-- Wave path -->
      <g class="wave-container wave-fast">
        <path d="M0,0 C5,-20 15,20 20,0 C25,-20 35,20 40,0 C45,-20 55,20 60,0 C65,-20 75,20 80,0 C85,-20 95,20 100,0 C105,-20 115,20 120,0 C125,-20 135,20 140,0 C145,-20 155,20 160,0 C165,-20 175,20 180,0 C185,-20 195,20 200,0 C205,-20 215,20 220,0 C225,-20 235,20 240,0 C245,-20 255,20 260,0 C265,-20 275,20 280,0 C285,-20 295,20 300,0 C305,-20 315,20 320,0 C325,-20 335,20 340,0 C345,-20 355,20 360,0 C365,-20 375,20 380,0" class="wave" />
      </g>
      
      <!-- Wavelength marker -->
      <line x1="0" y1="20" x2="20" y2="20" class="wavelength-marker" />
      <text x="10" y="35" class="small-label">λ₃</text>
      
      <!-- Particle -->
      <circle cx="200" cy="0" r="8" class="electron particle-fast" />
      
      <!-- Momentum arrow -->
      <line x1="200" y1="20" x2="300" y2="20" class="momentum-arrow" />
      <text x="250" y="35" class="small-label">p₃ > p₂</text>
    </g>
  </g>
  
  <!-- Wavelength-Momentum Graph -->
  <g transform="translate(550, 140)">
    <text x="0" y="-40" class="subtitle">Wavelength vs. Momentum</text>
    
    <!-- Grid -->
    <g clip-path="url(#graphClip)">
      <line x1="0" y1="40" x2="300" y2="40" class="graph-grid" />
      <line x1="0" y1="80" x2="300" y2="80" class="graph-grid" />
      <line x1="0" y1="120" x2="300" y2="120" class="graph-grid" />
      <line x1="0" y1="160" x2="300" y2="160" class="graph-grid" />
      
      <line x1="50" y1="0" x2="50" y2="200" class="graph-grid" />
      <line x1="100" y1="0" x2="100" y2="200" class="graph-grid" />
      <line x1="150" y1="0" x2="150" y2="200" class="graph-grid" />
      <line x1="200" y1="0" x2="200" y2="200" class="graph-grid" />
      <line x1="250" y1="0" x2="250" y2="200" class="graph-grid" />
    </g>
    
    <!-- Axes -->
    <line x1="0" y1="200" x2="300" y2="200" class="axis" />
    <line x1="0" y1="200" x2="0" y2="0" class="axis" />
    
    <!-- Axis labels -->
    <text x="150" y="230" class="label">Momentum (p)</text>
    <text x="-30" y="100" class="label" transform="rotate(-90 -30 100)">Wavelength (λ)</text>
    
    <!-- Hyperbola -->
    <path d="M10,180 C50,36 100,18 150,12 C200,9 250,7.2 300,6" class="graph-line" clip-path="url(#graphClip)" />
    
    <!-- Formula -->
    <text x="200" y="50" class="equation">λ = h/p</text>
    
    <!-- Data points -->
    <circle cx="50" cy="180" r="5" fill="#9c27b0" class="pulse" />
    <text x="65" y="185" class="small-label" text-anchor="start">λ₁, p₁</text>
    
    <circle cx="150" cy="60" r="5" fill="#9c27b0" />
    <text x="165" y="65" class="small-label" text-anchor="start">λ₂, p₂</text>
    
    <circle cx="250" cy="36" r="5" fill="#9c27b0" />
    <text x="265" y="41" class="small-label" text-anchor="start">λ₃, p₃</text>
  </g>
  
  <!-- Different particles comparison -->
  <g transform="translate(400, 430)">
    <rect x="-350" y="-60" width="700" height="120" rx="5" fill="#f8f9fa" stroke="#ddd" />
    <text x="0" y="-40" class="subtitle" text-anchor="middle">Comparative de Broglie Wavelengths</text>
    
    <!-- Electron -->
    <g transform="translate(-250, 0)">
      <circle cx="0" cy="0" r="10" class="electron" />
      <text x="0" y="25" class="label">Electron</text>
      <text x="0" y="45" class="small-label">m = 9.11×10⁻³¹ kg</text>
      <text x="0" y="-15" class="small-label">λ ≈ 10⁻¹⁰ m</text>
    </g>
    
    <!-- Neutron -->
    <g transform="translate(-100, 0)">
      <circle cx="0" cy="0" r="12" class="neutron" />
      <text x="0" y="25" class="label">Neutron</text>
      <text x="0" y="45" class="small-label">m = 1.67×10⁻²⁷ kg</text>
      <text x="0" y="-15" class="small-label">λ ≈ 10⁻¹⁴ m</text>
    </g>
    
    <!-- Atom -->
    <g transform="translate(50, 0)">
      <circle cx="0" cy="0" r="15" fill="#66bb6a" stroke="#388e3c" />
      <text x="0" y="25" class="label">C₆₀ Molecule</text>
      <text x="0" y="45" class="small-label">m = 1.2×10⁻²⁴ kg</text>
      <text x="0" y="-15" class="small-label">λ ≈ 5×10⁻¹⁵ m</text>
    </g>
    
    <!-- Baseball -->
    <g transform="translate(200, 0)">
      <circle cx="0" cy="0" r="20" fill="#ff5722" stroke="#e64a19" />
      <text x="0" y="25" class="label">Baseball</text>
      <text x="0" y="45" class="small-label">m = 0.145 kg</text>
      <text x="0" y="-15" class="small-label">λ ≈ 10⁻³⁴ m</text>
    </g>
  </g>
  
  <!-- Implications -->
  <g transform="translate(150, 430)">
    <text x="-350" y="-75" class="annotation" text-anchor="start">Large objects: λ too small to observe quantum behavior</text>
    <text x="-350" y="80" class="annotation" text-anchor="start">Subatomic particles: λ comparable to atomic dimensions → quantum effects dominate</text>
  </g>
</svg> 