<?xml version="1.0" encoding="UTF-8" standalone="no"?>
<svg width="800" height="500" xmlns="http://www.w3.org/2000/svg">
  <!-- Background -->
  <rect width="800" height="500" fill="#f8f8f8" />
  
  <!-- Title -->
  <text x="400" y="30" font-family="Arial" font-size="24" text-anchor="middle" fill="#333">Ehrenfest Theorem</text>
  
  <!-- Coordinate system -->
  <g transform="translate(400, 250)">
    <!-- x-axis -->
    <line x1="-350" y1="0" x2="350" y2="0" stroke="#333" stroke-width="2" />
    <text x="360" y="15" font-family="Arial" font-size="16" fill="#333">x</text>
    
    <!-- y-axis -->
    <line x1="0" y1="200" x2="0" y2="-200" stroke="#333" stroke-width="2" />
    <text x="10" y="-210" font-family="Arial" font-size="16" fill="#333">V(x)</text>
  </g>
  
  <!-- Potential well -->
  <g transform="translate(400, 250)">
    <!-- Potential curve -->
    <path d="M -300,180 C -250,180 -200,100 -150,50 C -100,0 -50,-20 0,-30 C 50,-20 100,0 150,50 C 200,100 250,180 300,180" 
          stroke="#666" stroke-width="3" fill="none" />
    <text x="0" y="200" font-family="Arial" font-size="16" text-anchor="middle" fill="#666">Potential well V(x)</text>
  </g>
  
  <!-- Wave packet at different times -->
  <g transform="translate(400, 250)">
    <!-- Wave packet at t=0 -->
    <path d="M -200,-20 C -190,-40 -180,-50 -170,-40 C -160,-30 -150,0 -140,20 C -130,30 -120,20 -110,0 C -100,-20 -90,-30 -80,-20" 
          stroke="#3366cc" stroke-width="2" fill="none" />
    <circle cx="-140" cy="0" r="5" fill="#3366cc" />
    <text x="-140" y="-60" font-family="Arial" font-size="14" text-anchor="middle" fill="#3366cc">ψ(x,t₀)</text>
    <text x="-140" y="20" font-family="Arial" font-size="12" text-anchor="middle" fill="#3366cc">⟨x⟩₀</text>
    
    <!-- Wave packet at t=1 -->
    <path d="M -100,-30 C -90,-50 -80,-60 -70,-50 C -60,-40 -50,-10 -40,10 C -30,20 -20,10 -10,-10 C 0,-30 10,-40 20,-30" 
          stroke="#cc3366" stroke-width="2" fill="none" />
    <circle cx="-40" cy="0" r="5" fill="#cc3366" />
    <text x="-40" y="-70" font-family="Arial" font-size="14" text-anchor="middle" fill="#cc3366">ψ(x,t₁)</text>
    <text x="-40" y="20" font-family="Arial" font-size="12" text-anchor="middle" fill="#cc3366">⟨x⟩₁</text>
    
    <!-- Wave packet at t=2 -->
    <path d="M 0,-40 C 10,-60 20,-70 30,-60 C 40,-50 50,-20 60,0 C 70,10 80,0 90,-20 C 100,-40 110,-50 120,-40" 
          stroke="#33cc66" stroke-width="2" fill="none" />
    <circle cx="60" cy="0" r="5" fill="#33cc66" />
    <text x="60" y="-80" font-family="Arial" font-size="14" text-anchor="middle" fill="#33cc66">ψ(x,t₂)</text>
    <text x="60" y="20" font-family="Arial" font-size="12" text-anchor="middle" fill="#33cc66">⟨x⟩₂</text>
    
    <!-- Wave packet at t=3 -->
    <path d="M 100,-50 C 110,-70 120,-80 130,-70 C 140,-60 150,-30 160,-10 C 170,0 180,-10 190,-30 C 200,-50 210,-60 220,-50" 
          stroke="#cc9933" stroke-width="2" fill="none" />
    <circle cx="160" cy="0" r="5" fill="#cc9933" />
    <text x="160" y="-90" font-family="Arial" font-size="14" text-anchor="middle" fill="#cc9933">ψ(x,t₃)</text>
    <text x="160" y="20" font-family="Arial" font-size="12" text-anchor="middle" fill="#cc9933">⟨x⟩₃</text>
  </g>
  
  <!-- Classical trajectory -->
  <g transform="translate(400, 250)">
    <path d="M -140,0 L -40,0 L 60,0 L 160,0" stroke="#333" stroke-width="2" stroke-dasharray="5,5" />
    <text x="0" y="-120" font-family="Arial" font-size="16" text-anchor="middle" fill="#333">Classical trajectory</text>
    <path d="M -140,0 Q 10,-100 160,0" stroke="#333" stroke-width="2" fill="none" />
  </g>
  
  <!-- Equations -->
  <g transform="translate(400, 430)">
    <text x="0" y="0" font-family="Arial" font-size="18" text-anchor="middle" fill="#333">
      d⟨x⟩/dt = ⟨p⟩/m
    </text>
    <text x="0" y="30" font-family="Arial" font-size="18" text-anchor="middle" fill="#333">
      d⟨p⟩/dt = -⟨∇V(x)⟩
    </text>
  </g>
  
  <!-- Legend -->
  <g transform="translate(650, 100)">
    <text x="0" y="0" font-family="Arial" font-size="14" fill="#333">Wave packet evolution:</text>
    
    <circle cx="-10" cy="20" r="4" fill="#3366cc" />
    <text x="0" y="25" font-family="Arial" font-size="14" fill="#3366cc">t₀</text>
    
    <circle cx="-10" cy="45" r="4" fill="#cc3366" />
    <text x="0" y="50" font-family="Arial" font-size="14" fill="#cc3366">t₁</text>
    
    <circle cx="-10" cy="70" r="4" fill="#33cc66" />
    <text x="0" y="75" font-family="Arial" font-size="14" fill="#33cc66">t₂</text>
    
    <circle cx="-10" cy="95" r="4" fill="#cc9933" />
    <text x="0" y="100" font-family="Arial" font-size="14" fill="#cc9933">t₃</text>
    
    <line x1="-15" y1="120" x2="15" y2="120" stroke="#333" stroke-width="2" stroke-dasharray="5,5" />
    <text x="30" y="125" font-family="Arial" font-size="14" fill="#333">Classical path</text>
  </g>
</svg>
