<?xml version="1.0" encoding="UTF-8" standalone="no"?>
<svg xmlns="http://www.w3.org/2000/svg" xmlns:xlink="http://www.w3.org/1999/xlink" width="800" height="600" viewBox="0 0 800 600">
  <defs>
    <!-- Gradients -->
    <linearGradient id="systemAGradient" x1="0%" y1="0%" x2="100%" y2="100%">
      <stop offset="0%" style="stop-color:#3498db;stop-opacity:0.8" />
      <stop offset="100%" style="stop-color:#2980b9;stop-opacity:0.9" />
    </linearGradient>
    <linearGradient id="systemBGradient" x1="0%" y1="0%" x2="100%" y2="100%">
      <stop offset="0%" style="stop-color:#e74c3c;stop-opacity:0.8" />
      <stop offset="100%" style="stop-color:#c0392b;stop-opacity:0.9" />
    </linearGradient>
    <linearGradient id="compositeGradient" x1="0%" y1="0%" x2="100%" y2="100%">
      <stop offset="0%" style="stop-color:#9b59b6;stop-opacity:0.8" />
      <stop offset="100%" style="stop-color:#8e44ad;stop-opacity:0.9" />
    </linearGradient>
    
    <!-- Filters -->
    <filter id="glow" x="-20%" y="-20%" width="140%" height="140%">
      <feGaussianBlur stdDeviation="5" result="blur" />
      <feComposite in="SourceGraphic" in2="blur" operator="over" />
    </filter>
    
    <!-- Text background filter -->
    <filter id="textBackground" x="-10%" y="-10%" width="120%" height="120%">
      <feFlood flood-color="white" flood-opacity="0.6" result="bg" />
      <feComposite in="SourceGraphic" in2="bg" operator="over" />
    </filter>

    <!-- Markers -->
    <marker id="arrowhead" markerWidth="10" markerHeight="7" refX="10" refY="3.5" orient="auto">
      <polygon points="0 0, 10 3.5, 0 7" fill="#333" />
    </marker>
  </defs>
  
  <!-- Background -->
  <rect width="800" height="600" fill="#f5f5f5" />
  
  <!-- Title -->
  <text x="400" y="50" font-family="Arial, sans-serif" font-size="26" font-weight="bold" text-anchor="middle" fill="#333">
    Tensor Products in Quantum Mechanics
  </text>
  
  <!-- Subtitle -->
  <text x="400" y="80" font-family="Arial, sans-serif" font-size="18" text-anchor="middle" fill="#555">
    Composition of Quantum Systems and Entanglement
  </text>
  
  <!-- System A - Hilbert Space -->
  <g transform="translate(150, 180)">
    <rect width="200" height="160" rx="10" ry="10" fill="url(#systemAGradient)" stroke="#333" stroke-width="2" />
    <text x="100" y="30" font-family="Arial, sans-serif" font-size="18" font-weight="bold" text-anchor="middle" fill="#fff">
      System A
    </text>
    <text x="100" y="55" font-family="Arial, sans-serif" font-size="16" text-anchor="middle" fill="#fff">
      Hilbert Space ℋₐ
    </text>
    
    <!-- Basis vectors -->
    <g transform="translate(40, 80)">
      <path d="M0,0 L30,15" stroke="#fff" stroke-width="2" marker-end="url(#arrowhead)" />
      <rect x="35" y="10" width="25" height="16" fill="#3498db" rx="3" opacity="0.6" />
      <text x="47" y="22" font-family="Arial, sans-serif" font-size="14" text-anchor="middle" fill="#fff">|a₁⟩</text>
      
      <path d="M0,0 L0,30" stroke="#fff" stroke-width="2" marker-end="url(#arrowhead)" />
      <rect x="-10" y="35" width="25" height="16" fill="#3498db" rx="3" opacity="0.6" />
      <text x="2" y="47" font-family="Arial, sans-serif" font-size="14" text-anchor="middle" fill="#fff">|a₂⟩</text>
      
      <path d="M0,0 L-20,20" stroke="#fff" stroke-width="2" marker-end="url(#arrowhead)" />
      <rect x="-42" y="20" width="25" height="16" fill="#3498db" rx="3" opacity="0.6" />
      <text x="-30" y="32" font-family="Arial, sans-serif" font-size="14" text-anchor="middle" fill="#fff">|a₃⟩</text>
    </g>
  </g>
  
  <!-- System B - Hilbert Space -->
  <g transform="translate(150, 380)">
    <rect width="200" height="160" rx="10" ry="10" fill="url(#systemBGradient)" stroke="#333" stroke-width="2" />
    <text x="100" y="30" font-family="Arial, sans-serif" font-size="18" font-weight="bold" text-anchor="middle" fill="#fff">
      System B
    </text>
    <text x="100" y="55" font-family="Arial, sans-serif" font-size="16" text-anchor="middle" fill="#fff">
      Hilbert Space ℋᵦ
    </text>
    
    <!-- Basis vectors -->
    <g transform="translate(40, 80)">
      <path d="M0,0 L30,0" stroke="#fff" stroke-width="2" marker-end="url(#arrowhead)" />
      <rect x="35" y="-7" width="25" height="16" fill="#e74c3c" rx="3" opacity="0.6" />
      <text x="47" y="5" font-family="Arial, sans-serif" font-size="14" text-anchor="middle" fill="#fff">|b₁⟩</text>
      
      <path d="M0,0 L15,25" stroke="#fff" stroke-width="2" marker-end="url(#arrowhead)" />
      <rect x="15" y="25" width="25" height="16" fill="#e74c3c" rx="3" opacity="0.6" />
      <text x="27" y="37" font-family="Arial, sans-serif" font-size="14" text-anchor="middle" fill="#fff">|b₂⟩</text>
    </g>
  </g>
  
  <!-- Tensor Product Operation -->
  <g transform="translate(400, 360)">
    <circle cx="0" cy="0" r="40" fill="#f1c40f" stroke="#333" stroke-width="2" />
    <text x="0" y="8" font-family="Arial, sans-serif" font-size="28" font-weight="bold" text-anchor="middle" fill="#333">⊗</text>
  </g>
  
  <!-- Arrows from spaces to tensor product -->
  <path d="M350,260 L400,320" stroke="#333" stroke-width="2" stroke-dasharray="5,5" marker-end="url(#arrowhead)" />
  <path d="M350,460 L400,400" stroke="#333" stroke-width="2" stroke-dasharray="5,5" marker-end="url(#arrowhead)" />
  
  <!-- Composite System - Product Hilbert Space -->
  <g transform="translate(500, 280)">
    <rect width="250" height="200" rx="10" ry="10" fill="url(#compositeGradient)" stroke="#333" stroke-width="2" />
    <text x="125" y="30" font-family="Arial, sans-serif" font-size="18" font-weight="bold" text-anchor="middle" fill="#fff">
      Composite System
    </text>
    <text x="125" y="55" font-family="Arial, sans-serif" font-size="16" text-anchor="middle" fill="#fff">
      ℋₐ ⊗ ℋᵦ
    </text>
    
    <!-- Basis tensor product vectors -->
    <g transform="translate(50, 100)">
      <path d="M0,0 L30,0" stroke="#fff" stroke-width="2" marker-end="url(#arrowhead)" />
      <rect x="30" y="-8" width="48" height="18" fill="#9b59b6" rx="3" opacity="0.6" />
      <text x="54" y="6" font-family="Arial, sans-serif" font-size="14" text-anchor="middle" fill="#fff">|a₁⟩⊗|b₁⟩</text>
      
      <path d="M0,0 L20,20" stroke="#fff" stroke-width="2" marker-end="url(#arrowhead)" />
      <rect x="22" y="15" width="48" height="18" fill="#9b59b6" rx="3" opacity="0.6" />
      <text x="46" y="29" font-family="Arial, sans-serif" font-size="14" text-anchor="middle" fill="#fff">|a₁⟩⊗|b₂⟩</text>
      
      <path d="M0,0 L0,30" stroke="#fff" stroke-width="2" marker-end="url(#arrowhead)" />
      <rect x="-24" y="30" width="48" height="18" fill="#9b59b6" rx="3" opacity="0.6" />
      <text x="0" y="44" font-family="Arial, sans-serif" font-size="14" text-anchor="middle" fill="#fff">|a₂⟩⊗|b₁⟩</text>
      
      <path d="M0,0 L-20,20" stroke="#fff" stroke-width="2" marker-end="url(#arrowhead)" />
      <rect x="-44" y="15" width="48" height="18" fill="#9b59b6" rx="3" opacity="0.6" />
      <text x="-20" y="29" font-family="Arial, sans-serif" font-size="14" text-anchor="middle" fill="#fff">|a₂⟩⊗|b₂⟩</text>
    </g>
  </g>
  
  <!-- Arrow from tensor product to composite system -->
  <path d="M440,360 L500,380" stroke="#333" stroke-width="2" marker-end="url(#arrowhead)" />
  
  <!-- Explanations -->
  <g transform="translate(400, 510)">
    <rect x="-200" y="-10" width="400" height="25" rx="5" fill="#fff" opacity="0.8" />
    <text x="0" y="5" font-family="Arial, sans-serif" font-size="16" font-weight="bold" text-anchor="middle" fill="#333">
      Types of States in Composite Systems:
    </text>
    <g transform="translate(-175, 30)">
      <rect width="160" height="35" rx="5" ry="5" fill="#ecf0f1" stroke="#333" stroke-width="1" />
      <text x="80" y="22" font-family="Arial, sans-serif" font-size="14" text-anchor="middle" fill="#333">
        Separable: |ψ⟩ₐ ⊗ |φ⟩ᵦ
      </text>
    </g>
    <g transform="translate(175, 30)">
      <rect width="160" height="35" rx="5" ry="5" fill="#ecf0f1" stroke="#8e44ad" stroke-width="2" />
      <text x="80" y="22" font-family="Arial, sans-serif" font-size="14" text-anchor="middle" fill="#333">
        Entangled: Cannot factor
      </text>
    </g>
  </g>
  
  <!-- Example of entanglement -->
  <g transform="translate(525, 400)">
    <rect x="40" y="10" width="110" height="20" fill="#9b59b6" rx="3" opacity="0.4" />
    <text x="95" y="24" font-family="Arial, sans-serif" font-size="14" font-weight="bold" text-anchor="middle" fill="#fff">
      Bell State Example:
    </text>
    
    <rect x="40" y="35" width="170" height="20" fill="#9b59b6" rx="3" opacity="0.4" />
    <text x="125" y="50" font-family="Arial, sans-serif" font-size="14" text-anchor="middle" fill="#fff">
      |Φ⁺⟩ = (|0⟩ₐ|0⟩ᵦ + |1⟩ₐ|1⟩ᵦ)/√2
    </text>
    
    <circle cx="200" cy="32" r="15" fill="#fff" opacity="0.3" />
    <circle cx="195" cy="32" r="15" fill="#fff" opacity="0.3" />
    <path d="M187,32 C187,25 213,25 213,32 C213,39 187,39 187,32 Z" fill="none" stroke="#fff" stroke-width="1.5" />
    <rect x="186" y="26" width="28" height="16" fill="#9b59b6" rx="3" opacity="0.7" />
    <text x="200" y="38" font-family="Arial, sans-serif" font-size="11" text-anchor="middle" fill="#fff" font-weight="bold">
      entangled
    </text>
  </g>
  
  <!-- Visual aid for dimensionality -->
  <g transform="translate(400, 150)">
    <rect x="-200" y="-10" width="400" height="25" rx="5" fill="#fff" opacity="0.8" />
    <text x="0" y="5" font-family="Arial, sans-serif" font-size="14" text-anchor="middle" fill="#555">
      Dimensions: dim(ℋₐ ⊗ ℋᵦ) = dim(ℋₐ) × dim(ℋᵦ)
    </text>
  </g>
</svg> 