<?xml version="1.0" encoding="UTF-8"?>
<svg width="800" height="400" xmlns="http://www.w3.org/2000/svg">
    <style>
        .title { font: bold 16px sans-serif; }
        .label { font: 14px sans-serif; }
        .math { font-style: italic; }
        .equation { font: italic 16px serif; }
    </style>
    
    <!-- Title -->
    <text x="400" y="30" text-anchor="middle" class="title">Rolling Motion Analysis</text>
    
    <!-- Pure Rolling -->
    <g transform="translate(50,100)">
        <text x="100" y="30" text-anchor="middle" class="title">Pure Rolling</text>
        
        <!-- Ground -->
        <line x1="40" y1="160" x2="160" y2="160" stroke="#000" stroke-width="2"/>
        
        <!-- Wheel -->
        <circle cx="100" cy="100" r="60" fill="none" stroke="#000" stroke-width="2"/>
        <line x1="100" y1="100" x2="160" y2="100" stroke="#000" stroke-width="1"/>
        
        <!-- Motion Arrows -->
        <line x1="160" y1="130" x2="190" y2="130" stroke="#ff4444" stroke-width="2" marker-end="url(#arrowhead)"/>
        <path d="M 160,100 A 60,60 0 0,1 130,50" fill="none" stroke="#4444ff" stroke-width="2" marker-end="url(#arrowhead)"/>
        
        <!-- Labels -->
        <text x="175" y="125" class="math">v</text>
        <text x="145" y="80" class="math">ω</text>
        <text x="100" y="180" text-anchor="middle" class="equation">v = rω</text>
    </g>
    
    <!-- Point Velocities -->
    <g transform="translate(300,100)">
        <text x="100" y="30" text-anchor="middle" class="title">Point Velocities</text>
        
        <!-- Ground -->
        <line x1="40" y1="160" x2="160" y2="160" stroke="#000" stroke-width="2"/>
        
        <!-- Wheel -->
        <circle cx="100" cy="100" r="60" fill="none" stroke="#000" stroke-width="2"/>
        
        <!-- Points -->
        <circle cx="100" cy="40" r="3" fill="#000"/>
        <circle cx="160" cy="100" r="3" fill="#000"/>
        <circle cx="100" cy="160" r="3" fill="#000"/>
        
        <!-- Velocity Vectors -->
        <line x1="100" y1="40" x2="130" y2="40" stroke="#ff4444" stroke-width="2" marker-end="url(#arrowhead)"/>
        <line x1="160" y1="100" x2="190" y2="100" stroke="#4444ff" stroke-width="2" marker-end="url(#arrowhead)"/>
        <line x1="100" y1="160" x2="100" y2="160" stroke="#44ff44" stroke-width="2"/>
        
        <!-- Labels -->
        <text x="115" y="35" class="math">2v</text>
        <text x="175" y="95" class="math">v</text>
        <text x="115" y="155" class="math">0</text>
    </g>
    
    <!-- Energy Distribution -->
    <g transform="translate(550,100)">
        <text x="100" y="30" text-anchor="middle" class="title">Energy Distribution</text>
        
        <!-- Ground -->
        <line x1="40" y1="160" x2="160" y2="160" stroke="#000" stroke-width="2"/>
        
        <!-- Wheel -->
        <circle cx="100" cy="100" r="60" fill="none" stroke="#000" stroke-width="2"/>
        <line x1="100" y1="100" x2="160" y2="100" stroke="#000" stroke-width="1"/>
        
        <!-- Energy Labels -->
        <text x="100" y="90" text-anchor="middle" class="equation">KE = KEₜ + KEᵣ</text>
        <text x="100" y="110" text-anchor="middle" class="equation">KEₜ = ½mv²</text>
        <text x="100" y="130" text-anchor="middle" class="equation">KEᵣ = ½Iω²</text>
    </g>
    
    <!-- Equations -->
    <g transform="translate(0,300)">
        <text x="200" y="20" class="equation">v = rω</text>
        <text x="400" y="20" class="equation">KE = ¾mv²</text>
        <text x="600" y="20" class="equation">a = rα</text>
    </g>
    
    <!-- Arrow Marker -->
    <defs>
        <marker id="arrowhead" markerWidth="10" markerHeight="7" refX="9" refY="3.5" orient="auto">
            <polygon points="0 0, 10 3.5, 0 7" fill="#000"/>
        </marker>
    </defs>
</svg>
