<?xml version="1.0" encoding="UTF-8" standalone="no"?>
<svg width="800" height="600" viewBox="0 0 800 600" xmlns="http://www.w3.org/2000/svg">
  <!-- Definitions for markers and animations -->
  <defs>
    <marker id="arrowhead" markerWidth="10" markerHeight="7" refX="0" refY="3.5" orient="auto">
      <polygon points="0 0, 10 3.5, 0 7" fill="#0077cc"/>
    </marker>
    <style>
      @keyframes flowAnimation {
        0% { stroke-dashoffset: 50; }
        100% { stroke-dashoffset: 0; }
      }
      @keyframes pulse {
        0%, 45% { filter: drop-shadow(0px 0px 0px #0077cc); }
        50% { filter: drop-shadow(0px 0px 5px #0077cc); }
      }
      @keyframes magneticFieldPulse {
        0%, 45% { opacity: 0.2; }
        50% { opacity: 0.8; }
      }
      @keyframes fadeIn {
        0% { opacity: 0; }
        100% { opacity: 1; }
      }
      @keyframes graphDrawIn {
        0% { stroke-dashoffset: 1000; }
        100% { stroke-dashoffset: 0; }
      }
      @keyframes switchToggle {
        0%, 49% { transform: rotate(0deg); }
        50%, 100% { transform: rotate(-60deg); }
      }
      .current-flow-energizing {
        stroke-dasharray: 5;
        animation: flowAnimation 1s linear infinite;
      }
      .current-flow-deenergizing {
        stroke-dasharray: 5;
        animation: flowAnimation 1s linear infinite;
        opacity: 0;
        animation-delay: 5s;
        animation-fill-mode: forwards;
      }
      .inductor-core {
        animation: pulse 5s ease-in-out infinite;
      }
      .magnetic-field {
        animation: magneticFieldPulse 5s ease-in-out infinite;
      }
      .energize-curve {
        stroke-dasharray: 1000;
        animation: graphDrawIn 5s ease-in-out infinite;
      }
      .deenergize-curve {
        stroke-dasharray: 1000;
        opacity: 0;
        animation: graphDrawIn 5s ease-in-out infinite, fadeIn 0.5s ease-in forwards;
        animation-delay: 5s, 5s;
      }
      .switch {
        transform-origin: 150px 200px;
        animation: switchToggle 10s infinite;
      }
      .energizing-text {
        opacity: 1;
        animation: fadeIn 0.5s ease-in infinite alternate;
        animation-delay: 0s;
      }
      .deenergizing-text {
        opacity: 0;
        animation: fadeIn 0.5s ease-in infinite alternate;
        animation-delay: 5s;
        animation-fill-mode: forwards;
      }
      text {
        font-family: Arial, sans-serif;
      }
      .equation {
        opacity: 0;
        animation: fadeIn 1s ease-in forwards;
        animation-delay: 1s;
      }
      .equation-deenergize {
        opacity: 0;
        animation: fadeIn 1s ease-in forwards;
        animation-delay: 6s;
      }
    </style>
  </defs>

  <!-- Background and title -->
  <rect width="800" height="600" fill="white"/>
  <text x="400" y="40" font-size="24" font-weight="bold" text-anchor="middle" fill="#333">RL Circuit Transient Response</text>
  <text x="400" y="70" font-size="16" text-anchor="middle" fill="#555">Energizing and De-energizing Behavior of Inductor with Time Constant τ = L/R</text>

  <!-- Circuit Diagram -->
  <g transform="translate(0, 50)">
    <text x="150" y="100" font-size="18" font-weight="bold" fill="#333">Circuit</text>
    
    <!-- Voltage Source -->
    <circle cx="100" cy="200" r="25" stroke="#333" stroke-width="2" fill="white"/>
    <line x1="100" y1="175" x2="100" y2="185" stroke="#333" stroke-width="2"/>
    <line x1="100" y1="215" x2="100" y2="225" stroke="#333" stroke-width="2"/>
    <text x="100" y="204" font-size="14" text-anchor="middle">V</text>
    
    <!-- Switch -->
    <g class="switch">
      <line x1="150" y1="175" x2="150" y2="185" stroke="#333" stroke-width="2"/>
      <line x1="150" y1="200" x2="180" y2="175" stroke="#333" stroke-width="2"/>
      <circle cx="150" cy="200" r="3" fill="#333"/>
    </g>
    
    <!-- Resistor -->
    <line x1="150" y1="175" x2="200" y2="175" stroke="#333" stroke-width="2"/>
    <rect x="200" y="165" width="50" height="20" fill="white" stroke="#333" stroke-width="2"/>
    <text x="225" y="179" font-size="12" text-anchor="middle">R</text>
    <line x1="250" y1="175" x2="300" y2="175" stroke="#333" stroke-width="2"/>
    
    <!-- Inductor -->
    <line x1="300" y1="175" x2="320" y2="175" stroke="#333" stroke-width="2"/>
    <path d="M 320 175 C 325 165, 335 165, 340 175 C 345 185, 355 185, 360 175 C 365 165, 375 165, 380 175 C 385 185, 395 185, 400 175" 
          fill="none" stroke="#333" stroke-width="2" class="inductor-core"/>
    <line x1="400" y1="175" x2="420" y2="175" stroke="#333" stroke-width="2"/>
    
    <!-- Magnetic Field Lines -->
    <ellipse cx="360" cy="160" rx="30" ry="10" fill="none" stroke="#0077cc" stroke-width="1" stroke-dasharray="3,2" class="magnetic-field" opacity="0.2"/>
    <ellipse cx="360" cy="150" rx="40" ry="15" fill="none" stroke="#0077cc" stroke-width="1" stroke-dasharray="3,2" class="magnetic-field" opacity="0.2"/>
    <ellipse cx="360" cy="140" rx="50" ry="20" fill="none" stroke="#0077cc" stroke-width="1" stroke-dasharray="3,2" class="magnetic-field" opacity="0.2"/>
    <text x="360" y="200" font-size="14" text-anchor="middle">L</text>
    
    <!-- Circuit completion -->
    <line x1="100" y1="225" x2="100" y2="250" stroke="#333" stroke-width="2"/>
    <line x1="100" y1="250" x2="420" y2="250" stroke="#333" stroke-width="2"/>
    <line x1="420" y1="175" x2="420" y2="250" stroke="#333" stroke-width="2"/>
    
    <!-- Current Flow Indicators -->
    <path d="M 120 175 Q 130 165 140 175" stroke="#0077cc" stroke-width="2" fill="none" marker-end="url(#arrowhead)" class="current-flow-energizing"/>
    <path d="M 270 175 Q 280 165 290 175" stroke="#0077cc" stroke-width="2" fill="none" marker-end="url(#arrowhead)" class="current-flow-energizing"/>
    <path d="M 350 175 Q 360 165 370 175" stroke="#0077cc" stroke-width="2" fill="none" marker-end="url(#arrowhead)" class="current-flow-energizing"/>
    <path d="M 230 250 Q 240 260 250 250" stroke="#0077cc" stroke-width="2" fill="none" marker-end="url(#arrowhead)" class="current-flow-deenergizing"/>
    <path d="M 350 250 Q 360 260 370 250" stroke="#0077cc" stroke-width="2" fill="none" marker-end="url(#arrowhead)" class="current-flow-deenergizing"/>
    
    <!-- Status Text -->
    <text x="180" y="130" font-size="16" font-weight="bold" fill="#0077cc" class="energizing-text">Energizing</text>
    <text x="180" y="130" font-size="16" font-weight="bold" fill="#cc0000" class="deenergizing-text">De-energizing</text>
  </g>

  <!-- Current/Voltage Graphs -->
  <g transform="translate(400, 120)">
    <text x="150" y="30" font-size="18" font-weight="bold" fill="#333">Inductor Current</text>
    
    <!-- Graph Axes -->
    <line x1="50" y1="200" x2="350" y2="200" stroke="#333" stroke-width="2"/>
    <line x1="50" y1="200" x2="50" y2="50" stroke="#333" stroke-width="2"/>
    
    <!-- Axis Labels -->
    <text x="200" y="230" font-size="14" fill="#333">Time (t)</text>
    <text x="20" y="125" font-size="14" fill="#333" transform="rotate(-90, 20, 125)">Current (I)</text>
    
    <!-- Time Constant Markers -->
    <line x1="100" y1="200" x2="100" y2="205" stroke="#333" stroke-width="2"/>
    <text x="100" y="220" font-size="12" text-anchor="middle" fill="#333">τ</text>
    
    <line x1="150" y1="200" x2="150" y2="205" stroke="#333" stroke-width="2"/>
    <text x="150" y="220" font-size="12" text-anchor="middle" fill="#333">2τ</text>
    
    <line x1="200" y1="200" x2="200" y2="205" stroke="#333" stroke-width="2"/>
    <text x="200" y="220" font-size="12" text-anchor="middle" fill="#333">3τ</text>
    
    <line x1="250" y1="200" x2="250" y2="205" stroke="#333" stroke-width="2"/>
    <text x="250" y="220" font-size="12" text-anchor="middle" fill="#333">4τ</text>
    
    <line x1="300" y1="200" x2="300" y2="205" stroke="#333" stroke-width="2"/>
    <text x="300" y="220" font-size="12" text-anchor="middle" fill="#333">5τ</text>
    
    <!-- Final Current Line -->
    <line x1="50" y1="80" x2="350" y2="80" stroke="#777" stroke-width="1" stroke-dasharray="5,3"/>
    <text x="40" y="80" font-size="12" text-anchor="end" fill="#333">V/R</text>
    
    <!-- Zero Current Line -->
    <text x="40" y="200" font-size="12" text-anchor="end" fill="#333">0</text>
    
    <!-- Energize/De-energize Curves -->
    <path d="M 50 200 
             C 60 190, 70 160, 100 130
             C 130 100, 160 85, 200 80
             C 240 75, 280 80, 300 80
             L 350 80" 
          stroke="#0077cc" stroke-width="3" fill="none" class="energize-curve"/>
    
    <path d="M 50 80
             C 60 80, 70 80, 100 100
             C 130 120, 160 150, 200 175
             C 240 195, 280 198, 300 200
             L 350 200" 
          stroke="#cc0000" stroke-width="3" fill="none" class="deenergize-curve"/>
    
    <!-- 63% Current Line -->
    <line x1="50" y1="125" x2="100" y2="125" stroke="#777" stroke-width="1" stroke-dasharray="5,3"/>
    <text x="40" y="125" font-size="12" text-anchor="end" fill="#333">0.63(V/R)</text>
    <line x1="100" y1="125" x2="100" y2="200" stroke="#777" stroke-width="1" stroke-dasharray="5,3"/>
    
    <!-- Switching Point -->
    <line x1="350" y1="50" x2="350" y2="200" stroke="#333" stroke-width="1" stroke-dasharray="3,3"/>
    <text x="350" y="40" font-size="12" text-anchor="middle" fill="#333">Switch Toggle</text>
  </g>

  <!-- Equations -->
  <g transform="translate(50, 350)">
    <rect x="0" y="0" width="320" height="180" rx="10" ry="10" fill="#e0f0ff" stroke="#0077cc" stroke-width="2"/>
    <text x="160" y="30" font-size="16" font-weight="bold" text-anchor="middle" fill="#333">Energizing Equations</text>
    
    <text x="20" y="70" font-size="14" fill="#333" class="equation">Current: i_L(t) = (V/R)(1 - e^(-Rt/L))</text>
    <text x="20" y="100" font-size="14" fill="#333" class="equation">Voltage: v_L(t) = Ve^(-Rt/L)</text>
    <text x="20" y="130" font-size="14" fill="#333" class="equation">Time Constant: τ = L/R</text>
    <text x="20" y="160" font-size="14" fill="#333" class="equation">Energy: E = ½LI²</text>
  </g>

  <g transform="translate(430, 350)">
    <rect x="0" y="0" width="320" height="180" rx="10" ry="10" fill="#ffe0e0" stroke="#cc0000" stroke-width="2"/>
    <text x="160" y="30" font-size="16" font-weight="bold" text-anchor="middle" fill="#333">De-energizing Equations</text>
    
    <text x="20" y="70" font-size="14" fill="#333" class="equation-deenergize">Current: i_L(t) = (V/R)e^(-Rt/L)</text>
    <text x="20" y="100" font-size="14" fill="#333" class="equation-deenergize">Voltage: v_L(t) = -Ri_L(0)e^(-Rt/L)</text>
    <text x="20" y="130" font-size="14" fill="#333" class="equation-deenergize">Time Constant: τ = L/R</text>
    <text x="20" y="160" font-size="14" fill="#333" class="equation-deenergize">Back EMF opposes current change</text>
  </g>
</svg> 