<?xml version="1.0" encoding="UTF-8" standalone="no"?>
<svg width="600" height="360" viewBox="0 0 600 360" xmlns="http://www.w3.org/2000/svg">
  <!-- Styles -->
  <style>
    .wire { stroke: #333; stroke-width: 2.5; fill: none; }
    .component { stroke: #333; stroke-width: 2; fill: white; }
    .resistor { stroke: #333; stroke-width: 2.5; fill: none; }
    .inductor { stroke: #333; stroke-width: 2.5; fill: none; }
    .capacitor { stroke: #333; stroke-width: 2.5; fill: none; }
    .current-arrow { stroke: #0066cc; stroke-width: 2; fill: none; marker-end: url(#arrowhead); }
    .voltage-arrow { stroke: #cc0000; stroke-width: 2; fill: none; marker-end: url(#voltageArrow); }
    .magnetic-field { stroke: #8844dd; stroke-width: 1.5; fill: none; stroke-dasharray: 5,3; }
    .electric-field { stroke: #cc0000; stroke-width: 1.5; fill: none; stroke-dasharray: 5,3; }
    .electron { fill: #3498db; }
    .label { font-family: Arial; font-size: 16px; text-anchor: middle; }
    .equation { font-family: Arial; font-style: italic; font-size: 16px; text-anchor: middle; }
    .title { font-family: Arial; font-size: 20px; font-weight: bold; text-anchor: middle; }
    
    @keyframes electronFlow {
      0% { transform: translateX(0); }
      100% { transform: translateX(-150px); }
    }
    
    .moving-electron {
      animation: electronFlow 3s linear infinite;
    }
    
    @keyframes pulseField {
      0% { stroke-opacity: 0.2; }
      50% { stroke-opacity: 0.8; }
      100% { stroke-opacity: 0.2; }
    }
    
    .pulsing-field {
      animation: pulseField 3s ease-in-out infinite;
    }
    
    @keyframes dashOffset {
      0% { stroke-dashoffset: 0; }
      100% { stroke-dashoffset: 20; }
    }
    
    .flowing-current {
      stroke-dasharray: 5, 3;
      animation: dashOffset 1s linear infinite;
    }
  </style>

  <!-- Definitions -->
  <defs>
    <marker id="arrowhead" markerWidth="10" markerHeight="7" refX="9" refY="3.5" orient="auto">
      <polygon points="0 0, 10 3.5, 0 7" fill="#0066cc"/>
    </marker>
    <marker id="voltageArrow" markerWidth="10" markerHeight="7" refX="9" refY="3.5" orient="auto">
      <polygon points="0 0, 10 3.5, 0 7" fill="#cc0000"/>
    </marker>
  </defs>

  <!-- Background -->
  <rect width="600" height="360" fill="white"/>

  <!-- Title -->
  <text x="300" y="30" class="title">RLC Circuit</text>
  
  <!-- RLC Circuit -->
  <g transform="translate(50, 150)">
    <!-- DC Source -->
    <circle cx="30" cy="80" r="20" class="component"/>
    <text x="30" y="85" class="label">V</text>
    <line x1="22" y1="70" x2="38" y2="70" class="wire"/>
    <line x1="30" y1="63" x2="30" y2="77" class="wire"/>
    <line x1="22" y1="90" x2="38" y2="90" class="wire"/>
    
    <!-- Wires -->
    <line x1="30" y1="60" x2="30" y2="0" class="wire"/>
    <line x1="30" y1="0" x2="100" y2="0" class="wire"/>
    <line x1="200" y1="0" x2="300" y2="0" class="wire"/>
    <line x1="400" y1="0" x2="500" y2="0" class="wire"/>
    <line x1="500" y1="0" x2="500" y2="160" class="wire"/>
    <line x1="500" y1="160" x2="30" y2="160" class="wire"/>
    <line x1="30" y1="160" x2="30" y2="100" class="wire"/>
    
    <!-- Resistor -->
    <rect x="100" y="-10" width="100" height="20" rx="2" fill="#f8f8f8" stroke="#333" stroke-width="1"/>
    <path d="M 100,0 L 110,0 L 115,-8 L 125,8 L 135,-8 L 145,8 L 155,-8 L 165,8 L 175,-8 L 185,8 L 190,0 L 200,0" class="resistor"/>
    <text x="150" y="-25" class="label">R</text>
    
    <!-- Inductor -->
    <path d="M 300,0
             C 310,0 310,-10 320,-10
             S 330,10 340,10
             S 350,-10 360,-10
             S 370,10 380,10
             S 390,-10 400,-10"
          class="inductor"/>
    <text x="350" y="-25" class="label">L</text>
    
    <!-- Capacitor -->
    <line x1="350" y1="80" x2="350" y2="40" class="wire"/>
    <line x1="350" y1="120" x2="350" y2="160" class="wire"/>
    <line x1="330" y1="40" x2="370" y2="40" class="capacitor"/>
    <line x1="330" y1="120" x2="370" y2="120" class="capacitor"/>
    <text x="380" y="80" class="label">C</text>
    
    <!-- Current Flow Indications -->
    <path d="M 50,0 A 10,10 0 0 1 70,0" class="current-arrow flowing-current"/>
    <path d="M 150,0 A 10,10 0 0 1 170,0" class="current-arrow flowing-current"/>
    <path d="M 350,0 A 10,10 0 0 1 370,0" class="current-arrow flowing-current"/>
    <text x="60" y="-15" class="label" fill="#0066cc">i</text>
    
    <!-- Component Voltage Arrows -->
    <line x1="150" y1="25" x2="150" y2="45" class="voltage-arrow"/>
    <text x="160" y="45" class="label" fill="#cc0000">vR</text>
    
    <line x1="350" y1="25" x2="350" y2="45" class="voltage-arrow"/>
    <text x="360" y="45" class="label" fill="#cc0000">vL</text>
    
    <line x1="395" y1="80" x2="415" y2="80" class="voltage-arrow"/>
    <text x="415" y="70" class="label" fill="#cc0000">vC</text>
    
    <!-- Magnetic Field Lines -->
    <ellipse cx="350" cy="-30" rx="30" ry="10" class="magnetic-field pulsing-field"/>
    
    <!-- Electric Field Lines -->
    <line x1="335" y1="60" x2="365" y2="60" class="electric-field pulsing-field"/>
    <line x1="335" y1="70" x2="365" y2="70" class="electric-field pulsing-field"/>
    <line x1="335" y1="80" x2="365" y2="80" class="electric-field pulsing-field"/>
    <line x1="335" y1="90" x2="365" y2="90" class="electric-field pulsing-field"/>
    <line x1="335" y1="100" x2="365" y2="100" class="electric-field pulsing-field"/>
  </g>
  
  <!-- Equations -->
  <g transform="translate(300, 300)">
    <text x="0" y="0" class="equation">L·d²i/dt² + R·di/dt + (1/C)·i = V(t)</text>
    <text x="0" y="30" class="equation">Resonance Frequency: ω₀ = 1/√(LC)</text>
  </g>
</svg> 