<?xml version="1.0" encoding="UTF-8" standalone="no"?>
<svg width="800" height="500" viewBox="0 0 800 500" xmlns="http://www.w3.org/2000/svg">
  <!-- Definitions for markers and animations -->
  <defs>
    <marker id="arrowhead" markerWidth="10" markerHeight="7" refX="0" refY="3.5" orient="auto">
      <polygon points="0 0, 10 3.5, 0 7" fill="#0077cc"/>
    </marker>
    <style>
      @keyframes flowAnimation {
        0% { stroke-dashoffset: 50; }
        100% { stroke-dashoffset: 0; }
      }
      @keyframes fadeIn {
        0% { opacity: 0; }
        100% { opacity: 1; }
      }
      @keyframes fadeOut {
        0% { opacity: 1; }
        100% { opacity: 0; }
      }
      .current-flow {
        stroke-dasharray: 5;
        animation: flowAnimation 1s linear infinite;
      }
      text {
        font-family: Arial, sans-serif;
      }
      .step-1 {
        opacity: 0;
        animation: fadeIn 0.5s ease-in forwards;
        animation-delay: 0.2s;
      }
      .step-2 {
        opacity: 0;
        animation: fadeIn 0.5s ease-in forwards;
        animation-delay: 3.5s;
      }
      .step-3 {
        opacity: 0;
        animation: fadeIn 0.5s ease-in forwards;
        animation-delay: 6.8s;
      }
      .fade-step-1 {
        opacity: 1;
        animation: fadeOut 0.5s ease-out forwards;
        animation-delay: 3s;
      }
      .fade-step-2 {
        opacity: 1;
        animation: fadeOut 0.5s ease-out forwards;
        animation-delay: 6.3s;
      }
    </style>
  </defs>

  <!-- Background and title -->
  <rect width="800" height="500" fill="#f8f9fa"/>
  <text x="400" y="40" font-size="24" font-weight="bold" text-anchor="middle" fill="#333">Superposition Theorem</text>
  <text x="400" y="70" font-size="16" text-anchor="middle" fill="#555">The response in a linear circuit equals the sum of responses from each source acting independently</text>

  <!-- STEP 1: Original Circuit with Both Sources -->
  <g class="step-1 fade-step-1">
    <text x="200" y="100" font-size="18" font-weight="bold" fill="#333">Step 1: Original Circuit (Both Sources Active)</text>
    
    <!-- Voltage Source 1 -->
    <circle cx="150" cy="200" r="25" stroke="#333" stroke-width="2" fill="white"/>
    <line x1="150" y1="175" x2="150" y2="185" stroke="#333" stroke-width="2"/>
    <line x1="150" y1="215" x2="150" y2="225" stroke="#333" stroke-width="2"/>
    <text x="150" y="205" font-size="14" text-anchor="middle">V₁</text>
    
    <!-- Resistor 1 -->
    <line x1="150" y1="225" x2="150" y2="250" stroke="#333" stroke-width="2"/>
    <rect x="130" y="250" width="40" height="20" fill="white" stroke="#333" stroke-width="2"/>
    <text x="150" y="264" font-size="12" text-anchor="middle">R₁</text>
    <line x1="150" y1="270" x2="150" y2="300" stroke="#333" stroke-width="2"/>
    
    <!-- Voltage Source 2 -->
    <circle cx="350" cy="200" r="25" stroke="#333" stroke-width="2" fill="white"/>
    <line x1="350" y1="175" x2="350" y2="185" stroke="#333" stroke-width="2"/>
    <line x1="350" y1="215" x2="350" y2="225" stroke="#333" stroke-width="2"/>
    <text x="350" y="205" font-size="14" text-anchor="middle">V₂</text>
    
    <!-- Resistor 2 -->
    <line x1="350" y1="225" x2="350" y2="250" stroke="#333" stroke-width="2"/>
    <rect x="330" y="250" width="40" height="20" fill="white" stroke="#333" stroke-width="2"/>
    <text x="350" y="264" font-size="12" text-anchor="middle">R₂</text>
    <line x1="350" y1="270" x2="350" y2="300" stroke="#333" stroke-width="2"/>
    
    <!-- Resistor 3 -->
    <line x1="150" y1="300" x2="350" y2="300" stroke="#333" stroke-width="2"/>
    <rect x="220" y="280" width="60" height="20" fill="white" stroke="#333" stroke-width="2"/>
    <text x="250" y="294" font-size="12" text-anchor="middle">R₃</text>
    
    <!-- Connecting Wires -->
    <line x1="150" y1="175" x2="350" y2="175" stroke="#333" stroke-width="2"/>
    
    <!-- Current Flow Indicators -->
    <path d="M 160 180 Q 180 160 200 180" stroke="#0077cc" stroke-width="2" fill="none" marker-end="url(#arrowhead)" class="current-flow"/>
    <path d="M 300 180 Q 320 160 340 180" stroke="#0077cc" stroke-width="2" fill="none" marker-end="url(#arrowhead)" class="current-flow"/>
    <path d="M 160 285 Q 180 305 200 285" stroke="#0077cc" stroke-width="2" fill="none" marker-end="url(#arrowhead)" class="current-flow"/>
    <path d="M 300 285 Q 320 305 340 285" stroke="#0077cc" stroke-width="2" fill="none" marker-end="url(#arrowhead)" class="current-flow"/>
    <path d="M 240 290 Q 260 270 280 290" stroke="#0077cc" stroke-width="2" fill="none" marker-end="url(#arrowhead)" class="current-flow"/>
    
    <!-- Current Labels -->
    <text x="165" y="150" font-size="14" fill="#0077cc">I₁</text>
    <text x="335" y="150" font-size="14" fill="#0077cc">I₂</text>
    <text x="250" y="270" font-size="14" fill="#0077cc">I₃ = I₁ + I₂</text>
  </g>

  <!-- STEP 2: Circuit with Only Source 1 Active -->
  <g class="step-2 fade-step-2">
    <text x="200" y="100" font-size="18" font-weight="bold" fill="#333">Step 2: Only Source V₁ Active (V₂ Replaced by Short Circuit)</text>
    
    <!-- Voltage Source 1 -->
    <circle cx="150" cy="200" r="25" stroke="#333" stroke-width="2" fill="white"/>
    <line x1="150" y1="175" x2="150" y2="185" stroke="#333" stroke-width="2"/>
    <line x1="150" y1="215" x2="150" y2="225" stroke="#333" stroke-width="2"/>
    <text x="150" y="205" font-size="14" text-anchor="middle">V₁</text>
    
    <!-- Resistor 1 -->
    <line x1="150" y1="225" x2="150" y2="250" stroke="#333" stroke-width="2"/>
    <rect x="130" y="250" width="40" height="20" fill="white" stroke="#333" stroke-width="2"/>
    <text x="150" y="264" font-size="12" text-anchor="middle">R₁</text>
    <line x1="150" y1="270" x2="150" y2="300" stroke="#333" stroke-width="2"/>
    
    <!-- Source 2 (Shorted) -->
    <line x1="350" y1="175" x2="350" y2="300" stroke="#333" stroke-width="2"/>
    <text x="380" y="200" font-size="14" fill="#cc0000">V₂ = 0</text>
    <text x="380" y="220" font-size="14" fill="#cc0000">(Short Circuit)</text>
    
    <!-- Resistor 3 -->
    <line x1="150" y1="300" x2="350" y2="300" stroke="#333" stroke-width="2"/>
    <rect x="220" y="280" width="60" height="20" fill="white" stroke="#333" stroke-width="2"/>
    <text x="250" y="294" font-size="12" text-anchor="middle">R₃</text>
    
    <!-- Connecting Wires -->
    <line x1="150" y1="175" x2="350" y2="175" stroke="#333" stroke-width="2"/>
    
    <!-- Current Flow Indicators -->
    <path d="M 160 180 Q 180 160 200 180" stroke="#0077cc" stroke-width="2" fill="none" marker-end="url(#arrowhead)" class="current-flow"/>
    <path d="M 160 285 Q 180 305 200 285" stroke="#0077cc" stroke-width="2" fill="none" marker-end="url(#arrowhead)" class="current-flow"/>
    <path d="M 240 290 Q 260 270 280 290" stroke="#0077cc" stroke-width="2" fill="none" marker-end="url(#arrowhead)" class="current-flow"/>
    
    <!-- Current Labels -->
    <text x="165" y="150" font-size="14" fill="#0077cc">I₁</text>
    <text x="250" y="270" font-size="14" fill="#0077cc">I₃₁ (Due to V₁)</text>
  </g>

  <!-- STEP 3: Circuit with Only Source 2 Active -->
  <g class="step-3">
    <text x="200" y="100" font-size="18" font-weight="bold" fill="#333">Step 3: Only Source V₂ Active (V₁ Replaced by Short Circuit)</text>
    
    <!-- Source 1 (Shorted) -->
    <line x1="150" y1="175" x2="150" y2="300" stroke="#333" stroke-width="2"/>
    <text x="100" y="200" font-size="14" fill="#cc0000">V₁ = 0</text>
    <text x="100" y="220" font-size="14" fill="#cc0000">(Short Circuit)</text>
    
    <!-- Voltage Source 2 -->
    <circle cx="350" cy="200" r="25" stroke="#333" stroke-width="2" fill="white"/>
    <line x1="350" y1="175" x2="350" y2="185" stroke="#333" stroke-width="2"/>
    <line x1="350" y1="215" x2="350" y2="225" stroke="#333" stroke-width="2"/>
    <text x="350" y="205" font-size="14" text-anchor="middle">V₂</text>
    
    <!-- Resistor 2 -->
    <line x1="350" y1="225" x2="350" y2="250" stroke="#333" stroke-width="2"/>
    <rect x="330" y="250" width="40" height="20" fill="white" stroke="#333" stroke-width="2"/>
    <text x="350" y="264" font-size="12" text-anchor="middle">R₂</text>
    <line x1="350" y1="270" x2="350" y2="300" stroke="#333" stroke-width="2"/>
    
    <!-- Resistor 3 -->
    <line x1="150" y1="300" x2="350" y2="300" stroke="#333" stroke-width="2"/>
    <rect x="220" y="280" width="60" height="20" fill="white" stroke="#333" stroke-width="2"/>
    <text x="250" y="294" font-size="12" text-anchor="middle">R₃</text>
    
    <!-- Connecting Wires -->
    <line x1="150" y1="175" x2="350" y2="175" stroke="#333" stroke-width="2"/>
    
    <!-- Current Flow Indicators -->
    <path d="M 300 180 Q 320 160 340 180" stroke="#0077cc" stroke-width="2" fill="none" marker-end="url(#arrowhead)" class="current-flow"/>
    <path d="M 300 285 Q 320 305 340 285" stroke="#0077cc" stroke-width="2" fill="none" marker-end="url(#arrowhead)" class="current-flow"/>
    <path d="M 240 290 Q 260 270 280 290" stroke="#0077cc" stroke-width="2" fill="none" marker-end="url(#arrowhead)" class="current-flow"/>
    
    <!-- Current Labels -->
    <text x="335" y="150" font-size="14" fill="#0077cc">I₂</text>
    <text x="250" y="270" font-size="14" fill="#0077cc">I₃₂ (Due to V₂)</text>
  </g>

  <!-- Final Step: Superposition Result -->
  <g transform="translate(450, 0)">
    <text x="200" y="100" font-size="18" font-weight="bold" fill="#333">Superposition Result</text>
    <text x="200" y="130" font-size="16" fill="#555">By superposition:</text>
    
    <!-- Equation -->
    <rect x="100" y="150" width="200" height="80" rx="10" ry="10" fill="#e0f0ff" stroke="#0077cc" stroke-width="2"/>
    <text x="200" y="185" font-size="18" text-anchor="middle" fill="#333">I₃ = I₃₁ + I₃₂</text>
    <text x="200" y="215" font-size="14" text-anchor="middle" fill="#555">Total current equals the sum</text>
    
    <!-- Key Note -->
    <rect x="50" y="250" width="300" height="150" rx="10" ry="10" fill="#f0f0f0" stroke="#555" stroke-width="1"/>
    <text x="200" y="280" font-size="16" font-weight="bold" text-anchor="middle" fill="#333">Key Points:</text>
    <text x="70" y="310" font-size="14" fill="#333">• Only applies to linear circuits</text>
    <text x="70" y="340" font-size="14" fill="#333">• Replace voltage sources with short circuits</text>
    <text x="70" y="370" font-size="14" fill="#333">• Replace current sources with open circuits</text>
    <text x="70" y="400" font-size="14" fill="#333">• Cannot be used for power calculations directly</text>
  </g>
</svg> 