<?xml version="1.0" encoding="UTF-8" standalone="no"?>
<svg width="800" height="600" viewBox="0 0 800 600" xmlns="http://www.w3.org/2000/svg">
    <!-- White background -->
    <rect width="100%" height="100%" fill="white"/>

    <!-- Grid (subtle) -->
    <pattern id="grid" width="40" height="40" patternUnits="userSpaceOnUse">
        <path d="M 40 0 L 0 0 0 40" fill="none" stroke="#f0f0f0" stroke-width="1"/>
    </pattern>
    <rect width="100%" height="100%" fill="url(#grid)"/>

    <!-- Spherical Shell -->
    <circle cx="400" cy="300" r="150" fill="none" stroke="#1a73e8" stroke-width="3"/>
    
    <!-- Center point -->
    <circle cx="400" cy="300" r="4" fill="#1a73e8"/>
    <text x="410" y="315" font-family="Arial" font-size="16">O</text>

    <!-- External field lines -->
    <g stroke="#666" stroke-width="2">
        <!-- Top -->
        <path d="M 400 50 L 400 150" fill="none" marker-end="url(#arrowhead)"/>
        <!-- Bottom -->
        <path d="M 400 550 L 400 450" fill="none" marker-end="url(#arrowhead)"/>
        <!-- Left -->
        <path d="M 150 300 L 250 300" fill="none" marker-end="url(#arrowhead)"/>
        <!-- Right -->
        <path d="M 650 300 L 550 300" fill="none" marker-end="url(#arrowhead)"/>
        <!-- Diagonals -->
        <path d="M 250 150 L 325 225" fill="none" marker-end="url(#arrowhead)"/>
        <path d="M 550 150 L 475 225" fill="none" marker-end="url(#arrowhead)"/>
        <path d="M 250 450 L 325 375" fill="none" marker-end="url(#arrowhead)"/>
        <path d="M 550 450 L 475 375" fill="none" marker-end="url(#arrowhead)"/>
    </g>

    <!-- Internal points with zero field indicators -->
    <g fill="#e91e63">
        <circle cx="400" cy="250" r="4"/>
        <circle cx="350" cy="300" r="4"/>
        <circle cx="450" cy="300" r="4"/>
        <circle cx="400" cy="350" r="4"/>
    </g>

    <!-- Labels -->
    <g font-family="Arial" font-size="14">
        <text x="365" y="240">P₁</text>
        <text x="335" y="315">P₂</text>
        <text x="455" y="315">P₃</text>
        <text x="365" y="365">P₄</text>
    </g>

    <!-- Radius vector -->
    <line x1="400" y1="300" x2="550" y2="300" stroke="#e91e63" stroke-width="2" stroke-dasharray="5,5"/>
    <text x="465" y="290" font-family="Arial" font-size="16">R</text>

    <!-- Arrow markers -->
    <defs>
        <marker id="arrowhead" markerWidth="10" markerHeight="7" refX="9" refY="3.5" orient="auto">
            <polygon points="0 0, 10 3.5, 0 7" fill="#666"/>
        </marker>
    </defs>

    <!-- Legend -->
    <g transform="translate(600,50)">
        <text x="0" y="0" font-family="Arial" font-size="14" font-weight="bold">Legend:</text>
        <line x1="0" y1="20" x2="30" y2="20" stroke="#666" stroke-width="2" marker-end="url(#arrowhead)"/>
        <text x="40" y="25" font-family="Arial" font-size="14">Field lines</text>
        <circle cx="15" cy="50" r="4" fill="#e91e63"/>
        <text x="40" y="55" font-family="Arial" font-size="14">Internal points</text>
        <text x="0" y="80" font-family="Arial" font-size="14">(zero field)</text>
    </g>
</svg>
