<?xml version="1.0" encoding="UTF-8" standalone="no"?>
<svg xmlns="http://www.w3.org/2000/svg" xmlns:xlink="http://www.w3.org/1999/xlink" width="600" height="600" viewBox="0 0 600 600">
  <style>
    .wire { stroke: #333; stroke-width: 2; fill: none; }
    .component { stroke: #333; stroke-width: 2; fill: white; }
    .active-component { stroke: #333; stroke-width: 2; fill: #f8f8f8; }
    .resistor-fill { fill: #f8f8f8; }
    .inductor-fill { fill: #f8f8f8; }
    .capacitor-fill { fill: #f8f8f8; }
    .electron { fill: #3498db; }
    .current { stroke: #e74c3c; stroke-width: 2; fill: none; marker-end: url(#arrowhead); }
    .voltage { stroke: #8e44ad; stroke-width: 2; fill: none; marker-end: url(#voltageArrow); }
    .voltage-R { stroke: #16a085; stroke-width: 2; fill: none; marker-end: url(#voltageArrowR); }
    .voltage-L { stroke: #f39c12; stroke-width: 2; fill: none; marker-end: url(#voltageArrowL); }
    .voltage-C { stroke: #3498db; stroke-width: 2; fill: none; marker-end: url(#voltageArrowC); }
    .sine-wave { stroke: #2980b9; stroke-width: 2; fill: none; }
    .formula { font-family: Arial; font-size: 14px; font-style: italic; }
    .title { font-family: Arial; font-size: 20px; font-weight: bold; }
    .subtitle { font-family: Arial; font-size: 16px; font-weight: bold; }
    .label { font-family: Arial; font-size: 14px; }
    .formula-box { fill: #f5f5f5; stroke: #ddd; stroke-width: 1; rx: 10; ry: 10; }
    .info-box { fill: #f5f5f5; stroke: #ddd; stroke-width: 1; rx: 10; ry: 10; }
    .resonance-highlight { stroke: #e74c3c; stroke-width: 3; stroke-dasharray: 5,3; fill: none; }
    .phase-vector { stroke-width: 2; fill: none; marker-end: url(#phaseArrow); }
    .phase-vector-current { stroke: #e74c3c; stroke-width: 2.5; }
    .phase-vector-vr { stroke: #16a085; }
    .phase-vector-vl { stroke: #f39c12; }
    .phase-vector-vc { stroke: #3498db; }
    .phase-vector-vtotal { stroke: #8e44ad; stroke-width: 2.5; }
  </style>
  
  <defs>
    <marker id="arrowhead" markerWidth="10" markerHeight="7" refX="9" refY="3.5" orient="auto">
      <polygon points="0 0, 10 3.5, 0 7" fill="#e74c3c" />
    </marker>
    <marker id="voltageArrow" markerWidth="10" markerHeight="7" refX="9" refY="3.5" orient="auto">
      <polygon points="0 0, 10 3.5, 0 7" fill="#8e44ad" />
    </marker>
    <marker id="voltageArrowR" markerWidth="10" markerHeight="7" refX="9" refY="3.5" orient="auto">
      <polygon points="0 0, 10 3.5, 0 7" fill="#16a085" />
    </marker>
    <marker id="voltageArrowL" markerWidth="10" markerHeight="7" refX="9" refY="3.5" orient="auto">
      <polygon points="0 0, 10 3.5, 0 7" fill="#f39c12" />
    </marker>
    <marker id="voltageArrowC" markerWidth="10" markerHeight="7" refX="9" refY="3.5" orient="auto">
      <polygon points="0 0, 10 3.5, 0 7" fill="#3498db" />
    </marker>
    <marker id="phaseArrow" markerWidth="10" markerHeight="7" refX="9" refY="3.5" orient="auto">
      <polygon points="0 0, 10 3.5, 0 7" fill="#444" />
    </marker>
    
    <!-- Define sine wave path for reuse -->
    <path id="sine-template" d="M0,0 C5,-15 15,-15 20,0 C25,15 35,15 40,0" />
  </defs>
  
  <rect width="100%" height="100%" fill="white"/>
  
  <!-- Title -->
  <text class="title" x="300" y="30" text-anchor="middle">Series RLC Circuit Resonance</text>
  
  <!-- Circuit -->
  <g transform="translate(180, 180)">
    <!-- AC Source -->
    <circle cx="0" cy="70" r="20" class="component"/>
    <text class="label" x="0" y="75" text-anchor="middle">AC</text>
    <use xlink:href="#sine-template" transform="translate(-20,65) scale(0.3)" class="sine-wave"/>
    
    <!-- Circuit Wires -->
    <line x1="0" y1="50" x2="0" y2="0" class="wire"/>
    <line x1="0" y1="0" x2="60" y2="0" class="wire"/>
    <line x1="150" y1="0" x2="210" y2="0" class="wire"/>
    <line x1="210" y1="0" x2="240" y2="0" class="wire"/>
    <line x1="330" y1="0" x2="360" y2="0" class="wire"/>
    <line x1="360" y1="0" x2="360" y2="140" class="wire"/>
    <line x1="360" y1="140" x2="0" y2="140" class="wire"/>
    <line x1="0" y1="140" x2="0" y2="90" class="wire"/>
    
    <!-- Resistor (R) -->
    <g id="resistor">
      <rect x="60" y="-10" width="90" height="20" rx="2" class="component resistor-fill">
        <animate attributeName="fill" 
                 dur="3s"
                 repeatCount="indefinite"
                 values="#f8f8f8;#16a08533;#f8f8f8"
                 keyTimes="0;0.5;1"/>
      </rect>
      
      <!-- Zigzag path for resistor -->
      <path d="M60,0 L70,0 L75,-5 L85,5 L95,-5 L105,5 L115,-5 L125,5 L130,0 L150,0" 
            stroke="#333" 
            stroke-width="2" 
            fill="none"/>
            
      <text class="label" x="105" y="-20" text-anchor="middle">R</text>
    </g>
    
    <!-- Inductor (L) -->
    <g id="inductor">
      <rect x="210" y="-10" width="120" height="20" class="component inductor-fill">
        <animate attributeName="fill" 
                 dur="3s"
                 repeatCount="indefinite"
                 values="#f8f8f8;#f39c1233;#f8f8f8"
                 keyTimes="0;0.5;1"/>
      </rect>
      
      <!-- Inductor coils -->
      <path d="M210,0 C215,0 215,-5 220,-5 S225,5 230,5 S235,-5 240,-5 S245,5 250,5 S255,-5 260,-5 S265,5 270,5 S275,-5 280,-5 S285,5 290,5 S295,-5 300,-5 S305,5 310,5 S315,-5 320,-5 S325,5 330,5" 
            stroke="#333" 
            stroke-width="2" 
            fill="none"/>
            
      <text class="label" x="270" y="-20" text-anchor="middle">L</text>
    </g>
    
    <!-- Capacitor (C) -->
    <g id="capacitor" transform="translate(0, 90)">
      <rect x="160" y="-10" width="40" height="20" class="component capacitor-fill">
        <animate attributeName="fill" 
                 dur="3s"
                 repeatCount="indefinite"
                 values="#f8f8f8;#3498db33;#f8f8f8"
                 keyTimes="0;0.5;1"/>
      </rect>
      
      <!-- Capacitor plates -->
      <line x1="175" y1="-8" x2="175" y2="8" stroke="#333" stroke-width="8"/>
      <line x1="185" y1="-8" x2="185" y2="8" stroke="#333" stroke-width="8"/>
      
      <line x1="140" y1="0" x2="165" y2="0" class="wire"/>
      <line x1="195" y1="0" x2="220" y2="0" class="wire"/>
      
      <text class="label" x="180" y="-20" text-anchor="middle">C</text>
    </g>
    
    <!-- Current arrows -->
    <g id="current-markers">
      <!-- Main circuit current -->
      <path d="M330,0 Q340,5 350,0" class="current">
        <animate attributeName="d" 
                 dur="2s"
                 repeatCount="indefinite"
                 values="M330,0 Q340,5 350,0;M330,0 Q340,-5 350,0;M330,0 Q340,5 350,0"
                 keyTimes="0;0.5;1"/>
      </path>
      <text class="label" x="340" y="-10" text-anchor="middle" fill="#e74c3c">i</text>
    </g>
    
    <!-- Voltage markers -->
    <g id="voltage-markers">
      <!-- Resistor voltage -->
      <line x1="105" y1="-15" x2="105" y2="-30" class="voltage-R"/>
      <text class="label" x="95" y="-35" text-anchor="middle" fill="#16a085">vR</text>
      
      <!-- Inductor voltage -->
      <line x1="270" y1="-15" x2="270" y2="-30" class="voltage-L"/>
      <text class="label" x="260" y="-35" text-anchor="middle" fill="#f39c12">vL</text>
      
      <!-- Capacitor voltage -->
      <line x1="180" y1="75" x2="180" y2="60" class="voltage-C"/>
      <text class="label" x="170" y="55" text-anchor="middle" fill="#3498db">vC</text>
      
      <!-- Source voltage -->
      <line x1="-25" y1="70" x2="-40" y2="70" class="voltage"/>
      <text class="label" x="-45" y="75" text-anchor="middle" fill="#8e44ad">v</text>
    </g>
    
    <!-- Electrons (animation for current flow) -->
    <g>
      <!-- Electron 1 -->
      <circle id="electron1" cx="30" cy="0" r="3" class="electron">
        <animate attributeName="cx"
                 dur="4s"
                 repeatCount="indefinite" 
                 values="20;60;120;180;240;300;350;360;360;360;360;340;300;240;180;120;60;20;0;0;0;0;20"
                 keyTimes="0;0.05;0.15;0.2;0.25;0.3;0.35;0.37;0.4;0.42;0.45;0.5;0.55;0.6;0.65;0.7;0.8;0.85;0.87;0.9;0.92;0.95;1"
                 calcMode="linear"/>
                 
        <animate attributeName="cy"
                 dur="4s"
                 repeatCount="indefinite" 
                 values="0;0;0;0;0;0;0;20;60;100;140;140;140;140;140;140;140;140;120;80;40;0;0"
                 keyTimes="0;0.05;0.15;0.2;0.25;0.3;0.35;0.37;0.4;0.42;0.45;0.5;0.55;0.6;0.65;0.7;0.8;0.85;0.87;0.9;0.92;0.95;1"
                 calcMode="linear"/>
      </circle>
      
      <!-- Electron 2 -->
      <circle id="electron2" cx="180" cy="0" r="3" class="electron">
        <animate attributeName="cx"
                 dur="4s"
                 repeatCount="indefinite" 
                 values="180;240;300;350;360;360;360;360;340;300;240;180;120;60;20;0;0;0;0;20;60;120;180"
                 keyTimes="0;0.05;0.1;0.15;0.17;0.2;0.22;0.25;0.3;0.35;0.4;0.45;0.5;0.6;0.65;0.67;0.7;0.72;0.75;0.8;0.85;0.95;1"
                 calcMode="linear"/>
                 
        <animate attributeName="cy"
                 dur="4s"
                 repeatCount="indefinite" 
                 values="0;0;0;0;20;60;100;140;140;140;140;140;140;140;140;120;80;40;0;0;0;0;0"
                 keyTimes="0;0.05;0.1;0.15;0.17;0.2;0.22;0.25;0.3;0.35;0.4;0.45;0.5;0.6;0.65;0.67;0.7;0.72;0.75;0.8;0.85;0.95;1"
                 calcMode="linear"/>
      </circle>
    </g>
  </g>
  
  <!-- Phase Vector Diagram -->
  <g transform="translate(450, 150)">
    <rect x="-70" y="-70" width="140" height="140" class="info-box"/>
    <text class="subtitle" x="0" y="-80" text-anchor="middle">Phase Vectors at Resonance</text>
    
    <!-- Coordinate axes -->
    <line x1="-60" y1="0" x2="60" y2="0" stroke="#777" stroke-width="1"/>
    <line x1="0" y1="-60" x2="0" y2="60" stroke="#777" stroke-width="1"/>
    <text class="label" x="65" y="5" text-anchor="middle" fill="#777">Real</text>
    <text class="label" x="5" y="-65" text-anchor="middle" fill="#777">Imag</text>
    
    <!-- Current vector (reference at 0°) -->
    <line id="current-vector" x1="0" y1="0" x2="50" y2="0" class="phase-vector phase-vector-current">
      <animateTransform attributeName="transform"
                        type="rotate"
                        from="0 0 0"
                        to="360 0 0"
                        dur="8s"
                        repeatCount="indefinite"/>
    </line>
    <text class="label" x="55" y="15" text-anchor="start" fill="#e74c3c">I</text>
    
    <!-- Resistor voltage (in phase with current) -->
    <line id="vr-vector" x1="0" y1="0" x2="40" y2="0" class="phase-vector phase-vector-vr">
      <animateTransform attributeName="transform"
                        type="rotate"
                        from="0 0 0"
                        to="360 0 0"
                        dur="8s"
                        repeatCount="indefinite"/>
    </line>
    <text class="label" x="42" y="-10" text-anchor="start" fill="#16a085">VR</text>
    
    <!-- Inductor voltage (90° ahead of current) -->
    <line id="vl-vector" x1="0" y1="0" x2="0" y2="-30" class="phase-vector phase-vector-vl">
      <animateTransform attributeName="transform"
                        type="rotate"
                        from="0 0 0"
                        to="360 0 0"
                        dur="8s"
                        repeatCount="indefinite"/>
    </line>
    <text class="label" x="5" y="-35" text-anchor="start" fill="#f39c12">VL</text>
    
    <!-- Capacitor voltage (90° behind current) -->
    <line id="vc-vector" x1="0" y1="0" x2="0" y2="30" class="phase-vector phase-vector-vc">
      <animateTransform attributeName="transform"
                        type="rotate"
                        from="0 0 0"
                        to="360 0 0"
                        dur="8s"
                        repeatCount="indefinite"/>
    </line>
    <text class="label" x="5" y="40" text-anchor="start" fill="#3498db">VC</text>
    
    <!-- Source voltage (in phase with current at resonance) -->
    <line id="v-vector" x1="0" y1="0" x2="40" y2="0" class="phase-vector phase-vector-vtotal">
      <animateTransform attributeName="transform"
                        type="rotate"
                        from="0 0 0"
                        to="360 0 0"
                        dur="8s"
                        repeatCount="indefinite"/>
    </line>
    <text class="label" x="45" y="0" text-anchor="start" fill="#8e44ad">V</text>
  </g>
  
  <!-- Impedance vs Frequency Graph -->
  <g transform="translate(180, 400)">
    <rect x="-150" y="-100" width="300" height="200" class="info-box"/>
    <text class="subtitle" x="0" y="-80" text-anchor="middle">Impedance vs Frequency</text>
    
    <!-- Coordinate axes -->
    <line x1="-130" y1="80" x2="130" y2="80" stroke="#777" stroke-width="1"/>
    <line x1="-130" y1="-70" x2="-130" y2="80" stroke="#777" stroke-width="1"/>
    
    <!-- Axis labels -->
    <text class="label" x="0" y="95" text-anchor="middle">Frequency (ω)</text>
    <text class="label" x="-145" y="0" text-anchor="middle" transform="rotate(-90 -145 0)">Impedance (Z)</text>
    
    <!-- Resonant frequency marker -->
    <line x1="0" y1="80" x2="0" y2="-70" stroke="#e74c3c" stroke-width="1" stroke-dasharray="5,3"/>
    <text class="label" x="0" y="-75" text-anchor="middle" fill="#e74c3c">ω₀</text>
    
    <!-- Impedance curve -->
    <path d="M-130,0 C-100,10 -80,30 -50,60 C-30,75 -15,79 0,80 C15,79 30,75 50,60 C80,30 100,10 130,0" 
          stroke="#8e44ad" stroke-width="2" fill="none"/>
    
    <!-- Minimum impedance highlight -->
    <circle cx="0" cy="80" r="5" class="resonance-highlight">
      <animate attributeName="r" 
               dur="3s"
               repeatCount="indefinite"
               values="4;6;4"
               keyTimes="0;0.5;1"/>
    </circle>
    
    <!-- Individual component impedances -->
    <!-- XL curve -->
    <path d="M-130,80 C-100,70 -70,50 -40,30 C-20,15 -10,5 0,0 C10,-5 20,-15 40,-30 C70,-50 100,-70 130,-80" 
          stroke="#f39c12" stroke-width="1.5" fill="none" stroke-dasharray="5,2"/>
    <text class="label" x="100" y="-60" text-anchor="middle" fill="#f39c12">XL</text>
    
    <!-- XC curve -->
    <path d="M-130,-80 C-100,-70 -70,-50 -40,-30 C-20,-15 -10,-5 0,0 C10,5 20,15 40,30 C70,50 100,70 130,80" 
          stroke="#3498db" stroke-width="1.5" fill="none" stroke-dasharray="5,2"/>
    <text class="label" x="100" y="70" text-anchor="middle" fill="#3498db">XC</text>
    
    <!-- R line -->
    <line x1="-130" y1="40" x2="130" y2="40" stroke="#16a085" stroke-width="1.5" stroke-dasharray="5,2"/>
    <text class="label" x="115" y="35" text-anchor="middle" fill="#16a085">R</text>
  </g>
  
  <!-- Resonance Condition -->
  <g transform="translate(450, 400)">
    <rect x="-130" y="-100" width="260" height="200" class="formula-box"/>
    <text class="subtitle" x="0" y="-80" text-anchor="middle">Series Resonance Conditions</text>
    
    <text class="formula" x="-120" y="-50" text-anchor="start">Resonance frequency:</text>
    <text class="formula" x="-120" y="-25" text-anchor="start">ω₀ = 1/√(LC)</text>
    
    <text class="formula" x="-120" y="5" text-anchor="start">At resonance:</text>
    <text class="formula" x="-120" y="30" text-anchor="start">• XL = XC</text>
    <text class="formula" x="-120" y="50" text-anchor="start">• Z = R (minimum)</text>
    <text class="formula" x="-120" y="70" text-anchor="start">• Circuit is resistive</text>
    <text class="formula" x="-120" y="90" text-anchor="start">• Current is maximum</text>
  </g>
  
  <!-- Current and Voltage Waveforms -->
  <g transform="translate(300, 550)">
    <text class="subtitle" x="0" y="-20" text-anchor="middle">Waveforms at Resonance</text>
    
    <!-- Coordinate axes -->
    <line x1="-200" y1="0" x2="200" y2="0" stroke="#777" stroke-width="1"/>
    <text class="label" x="205" y="0" text-anchor="start" fill="#777">t</text>
    
    <!-- Source voltage -->
    <path d="M-200,0 C-175,-30 -125,-30 -100,0 C-75,30 -25,30 0,0 C25,-30 75,-30 100,0 C125,30 175,30 200,0" 
          stroke="#8e44ad" stroke-width="2" fill="none">
      <animate attributeName="d" 
               dur="4s"
               repeatCount="indefinite"
               values="M-200,0 C-175,-30 -125,-30 -100,0 C-75,30 -25,30 0,0 C25,-30 75,-30 100,0 C125,30 175,30 200,0;
                       M-200,0 C-175,30 -125,30 -100,0 C-75,-30 -25,-30 0,0 C25,30 75,30 100,0 C125,-30 175,-30 200,0;
                       M-200,0 C-175,-30 -125,-30 -100,0 C-75,30 -25,30 0,0 C25,-30 75,-30 100,0 C125,30 175,30 200,0"
               keyTimes="0;0.5;1"
               calcMode="linear"/>
    </path>
    <text class="label" x="-210" y="-20" text-anchor="end" fill="#8e44ad">v</text>
    
    <!-- Current (in phase with source voltage at resonance) -->
    <path d="M-200,0 C-175,-30 -125,-30 -100,0 C-75,30 -25,30 0,0 C25,-30 75,-30 100,0 C125,30 175,30 200,0" 
          stroke="#e74c3c" stroke-width="2" fill="none" stroke-dasharray="5,3">
      <animate attributeName="d" 
               dur="4s"
               repeatCount="indefinite"
               values="M-200,0 C-175,-30 -125,-30 -100,0 C-75,30 -25,30 0,0 C25,-30 75,-30 100,0 C125,30 175,30 200,0;
                       M-200,0 C-175,30 -125,30 -100,0 C-75,-30 -25,-30 0,0 C25,30 75,30 100,0 C125,-30 175,-30 200,0;
                       M-200,0 C-175,-30 -125,-30 -100,0 C-75,30 -25,30 0,0 C25,-30 75,-30 100,0 C125,30 175,30 200,0"
               keyTimes="0;0.5;1"
               calcMode="linear"/>
    </path>
    <text class="label" x="-210" y="20" text-anchor="end" fill="#e74c3c">i</text>
  </g>
</svg> 