<?xml version="1.0" encoding="UTF-8"?>
<svg xmlns="http://www.w3.org/2000/svg" width="900" height="760" viewBox="0 0 900 760">
  <!-- Definitions for markers and animations -->
  <defs>
    <marker id="arrowhead" markerWidth="6" markerHeight="4" refX="5" refY="2" orient="auto">
      <path d="M0,0 L0,4 L6,2 Z" fill="#FF5733" />
    </marker>
    <marker id="voltageArrow" markerWidth="6" markerHeight="4" refX="5" refY="2" orient="auto">
      <path d="M0,0 L0,4 L6,2 Z" fill="#3498DB" />
    </marker>
    
    <!-- Animation definitions -->
    <style type="text/css">
      @keyframes flowAnimation {
        0% { stroke-dashoffset: 40; }
        100% { stroke-dashoffset: 0; }
      }

      @keyframes phasorRotation {
        0% { transform: rotate(0deg); }
        100% { transform: rotate(360deg); }
      }
      
      @keyframes fadeInOut {
        0%, 100% { opacity: 0.2; }
        50% { opacity: 1; }
      }

      @keyframes graphDraw {
        0% { stroke-dashoffset: 1000; }
        100% { stroke-dashoffset: 0; }
      }

      @keyframes waveform {
        0% { stroke-dashoffset: 1000; }
        100% { stroke-dashoffset: 0; }
      }

      .currentPath {
        stroke-dasharray: 5;
        animation: flowAnimation 1s linear infinite;
      }

      .phasor {
        transform-origin: 650px 290px;
        animation: phasorRotation 8s linear infinite;
      }

      .magnetic {
        animation: fadeInOut 2s infinite;
      }

      .impedanceGraph {
        stroke-dasharray: 1000;
        stroke-dashoffset: 1000;
        animation: graphDraw 5s linear forwards;
      }

      .waveform {
        stroke-dasharray: 1000;
        stroke-dashoffset: 1000;
        animation: waveform 5s linear forwards;
      }
    </style>
  </defs>

  <!-- Background -->
  <rect width="900" height="760" fill="#f8f9fa" />
  <text x="450" y="40" font-family="Arial" font-size="24" text-anchor="middle" font-weight="bold">Series RLC Circuit</text>

  <!-- Circuit Diagram -->
  <g transform="translate(100, 150)">
    <text x="0" y="-30" font-family="Arial" font-size="20" font-weight="bold">Circuit Diagram</text>
    
    <!-- AC Source -->
    <circle cx="30" cy="100" r="20" fill="none" stroke="black" stroke-width="2" />
    <path d="M20,100 Q30,80 40,100 Q50,120 60,100" fill="none" stroke="black" stroke-width="2" transform="translate(-20, 0)" />
    <text x="30" y="140" font-family="Arial" font-size="14" text-anchor="middle">AC Source</text>
    
    <!-- Wires -->
    <line x1="50" y1="100" x2="100" y2="100" stroke="black" stroke-width="2" />
    <line x1="180" y1="100" x2="230" y2="100" stroke="black" stroke-width="2" />
    <line x1="310" y1="100" x2="360" y2="100" stroke="black" stroke-width="2" />
    <line x1="440" y1="100" x2="500" y2="100" stroke="black" stroke-width="2" />
    <line x1="500" y1="100" x2="500" y2="200" stroke="black" stroke-width="2" />
    <line x1="500" y1="200" x2="30" y2="200" stroke="black" stroke-width="2" />
    <line x1="30" y1="200" x2="30" y2="120" stroke="black" stroke-width="2" />
    
    <!-- Resistor -->
    <path d="M100,100 L110,100 L115,90 L125,110 L135,90 L145,110 L155,90 L165,110 L170,100 L180,100" 
          fill="none" stroke="black" stroke-width="2" />
    <text x="140" y="85" font-family="Arial" font-size="14" text-anchor="middle">R</text>
    
    <!-- Inductor -->
    <path d="M230,100 Q240,70 250,100 Q260,130 270,100 Q280,70 290,100 Q300,130 310,100" 
          fill="none" stroke="black" stroke-width="2" />
    <text x="270" y="75" font-family="Arial" font-size="14" text-anchor="middle">L</text>
    
    <!-- Capacitor -->
    <line x1="360" y1="100" x2="390" y2="100" stroke="black" stroke-width="2" />
    <line x1="390" y1="80" x2="390" y2="120" stroke="black" stroke-width="2" />
    <line x1="410" y1="80" x2="410" y2="120" stroke="black" stroke-width="2" />
    <line x1="410" y1="100" x2="440" y2="100" stroke="black" stroke-width="2" />
    <text x="400" y="75" font-family="Arial" font-size="14" text-anchor="middle">C</text>
    
    <!-- Current flow animation -->
    <path d="M60,100 C80,50 450,50 470,100" fill="none" stroke="#FF5733" stroke-width="2" 
          stroke-dasharray="5,3" class="currentPath" marker-end="url(#arrowhead)" />
    <text x="270" y="50" font-family="Arial" font-size="14" text-anchor="middle" fill="#FF5733">i(t)</text>
    
    <!-- Voltage markers -->
    <line x1="140" y1="100" x2="140" y2="130" stroke="#3498DB" stroke-width="1.5" />
    <line x1="130" y1="130" x2="150" y2="130" stroke="#3498DB" stroke-width="1.5" marker-end="url(#voltageArrow)" />
    <text x="140" y="150" font-family="Arial" font-size="12" text-anchor="middle" fill="#3498DB">VR</text>
    
    <line x1="270" y1="100" x2="270" y2="130" stroke="#3498DB" stroke-width="1.5" />
    <line x1="260" y1="130" x2="280" y2="130" stroke="#3498DB" stroke-width="1.5" marker-end="url(#voltageArrow)" />
    <text x="270" y="150" font-family="Arial" font-size="12" text-anchor="middle" fill="#3498DB">VL</text>
    
    <line x1="400" y1="100" x2="400" y2="130" stroke="#3498DB" stroke-width="1.5" />
    <line x1="390" y1="130" x2="410" y2="130" stroke="#3498DB" stroke-width="1.5" marker-end="url(#voltageArrow)" />
    <text x="400" y="150" font-family="Arial" font-size="12" text-anchor="middle" fill="#3498DB">VC</text>
    
    <!-- Magnetic field around inductor -->
    <ellipse cx="270" cy="100" rx="45" ry="15" fill="none" stroke="#9b59b6" stroke-width="1.5" 
             stroke-dasharray="3,2" class="magnetic" />
    <ellipse cx="270" cy="100" rx="35" ry="10" fill="none" stroke="#9b59b6" stroke-width="1.5" 
             stroke-dasharray="3,2" class="magnetic" />
  </g>

  <!-- Phasor Diagram -->
  <g transform="translate(650, 150)">
    <text x="0" y="-30" font-family="Arial" font-size="20" font-weight="bold">Phasor Diagram</text>
    
    <!-- Axes -->
    <line x1="0" y1="140" x2="200" y2="140" stroke="black" stroke-width="1.5" marker-end="url(#arrowhead)" />
    <line x1="100" y1="240" x2="100" y2="40" stroke="black" stroke-width="1.5" marker-end="url(#arrowhead)" />
    <text x="205" y="140" font-family="Arial" font-size="12">Real</text>
    <text x="100" y="35" font-family="Arial" font-size="12">Imag</text>
    
    <!-- Origin point -->
    <circle cx="100" cy="140" r="3" fill="black" />
    
    <!-- Phasors -->
    <g class="phasor">
      <!-- Total voltage phasor -->
      <line x1="100" y1="140" x2="160" y2="110" stroke="#3498DB" stroke-width="2.5" marker-end="url(#voltageArrow)" />
      <text x="165" y="105" font-family="Arial" font-size="12" fill="#3498DB">V</text>
      
      <!-- VR phasor -->
      <line x1="100" y1="140" x2="150" y2="140" stroke="#27ae60" stroke-width="1.5" marker-end="url(#voltageArrow)" />
      <text x="155" y="150" font-family="Arial" font-size="10" fill="#27ae60">VR</text>
      
      <!-- VL phasor -->
      <line x1="100" y1="140" x2="100" y2="100" stroke="#9b59b6" stroke-width="1.5" marker-end="url(#voltageArrow)" />
      <text x="105" y="95" font-family="Arial" font-size="10" fill="#9b59b6">VL</text>
      
      <!-- VC phasor -->
      <line x1="100" y1="140" x2="100" y2="180" stroke="#e74c3c" stroke-width="1.5" marker-end="url(#voltageArrow)" />
      <text x="105" y="185" font-family="Arial" font-size="10" fill="#e74c3c">VC</text>
      
      <!-- Current phasor (in phase with VR at resonance) -->
      <line x1="100" y1="140" x2="150" y2="140" stroke="#FF5733" stroke-width="2" marker-end="url(#arrowhead)" />
      <text x="145" y="130" font-family="Arial" font-size="12" fill="#FF5733">I</text>
    </g>
    
    <text x="100" y="210" font-family="Arial" font-size="12" text-anchor="middle">At resonance: VL and VC are opposite,</text>
    <text x="100" y="225" font-family="Arial" font-size="12" text-anchor="middle">current in phase with source voltage</text>
  </g>

  <!-- Impedance vs Frequency Graph -->
  <g transform="translate(100, 450)">
    <text x="0" y="-30" font-family="Arial" font-size="20" font-weight="bold">Impedance vs Frequency</text>
    
    <!-- Axes -->
    <line x1="40" y1="200" x2="40" y2="20" stroke="black" stroke-width="1.5" marker-end="url(#arrowhead)" />
    <line x1="20" y1="180" x2="350" y2="180" stroke="black" stroke-width="1.5" marker-end="url(#arrowhead)" />
    
    <!-- Labels -->
    <text x="10" y="110" font-family="Arial" font-size="14" text-anchor="middle" transform="rotate(-90, 10, 110)">Impedance (Z)</text>
    <text x="200" y="210" font-family="Arial" font-size="14" text-anchor="middle">Frequency (ω)</text>
    
    <!-- Resonance frequency mark -->
    <line x1="180" y1="180" x2="180" y2="175" stroke="black" stroke-width="1" />
    <text x="180" y="195" font-family="Arial" font-size="12" text-anchor="middle">ω₀</text>
    
    <!-- Impedance curve -->
    <path d="M40,180 Q90,160 130,120 L180,50 Q230,120 270,160 Q310,170 350,175" 
          fill="none" stroke="#e74c3c" stroke-width="2.5" class="impedanceGraph" />
    
    <!-- Minimum impedance point at resonance -->
    <circle cx="180" cy="50" r="5" fill="#e74c3c" />
    <text x="195" y="40" font-family="Arial" font-size="12" fill="#e74c3c">Z = R at resonance</text>
    <text x="195" y="55" font-family="Arial" font-size="12" fill="#e74c3c">(minimum impedance)</text>
  </g>

  <!-- Resonance Conditions -->
  <g transform="translate(550, 425)">
    <rect x="0" y="0" width="280" height="220" fill="white" stroke="black" stroke-width="1.5" rx="10" ry="10" />
    <text x="140" y="30" font-family="Arial" font-size="18" text-anchor="middle" font-weight="bold">Resonance Conditions</text>
    
    <text x="20" y="70" font-family="Arial" font-size="14">• Series resonance occurs when:</text>
    <text x="30" y="95" font-family="Arial" font-size="14">XL = XC</text>
    
    <text x="20" y="125" font-family="Arial" font-size="14">• Resonant frequency:</text>
    <text x="30" y="150" font-family="Arial" font-size="16">ω₀ = 1/√(LC)</text>
    
    <text x="20" y="180" font-family="Arial" font-size="14">• At resonance:</text>
    <text x="30" y="205" font-family="Arial" font-size="14">- Z = R (minimum)</text>
    <text x="30" y="225" font-family="Arial" font-size="14">- Current is maximum</text>
  </g>

  <!-- Waveforms at Resonance -->
  <g transform="translate(450, 580)">
    <text x="0" y="-20" font-family="Arial" font-size="20" font-weight="bold">Waveforms at Resonance</text>
    
    <!-- Time axis -->
    <line x1="20" y1="100" x2="370" y2="100" stroke="black" stroke-width="1.5" marker-end="url(#arrowhead)" />
    <text x="380" y="100" font-family="Arial" font-size="14">t</text>
    
    <!-- Time markers -->
    <line x1="70" y1="100" x2="70" y2="105" stroke="black" stroke-width="1" />
    <text x="70" y="120" font-family="Arial" font-size="12" text-anchor="middle">T/4</text>
    
    <line x1="120" y1="100" x2="120" y2="105" stroke="black" stroke-width="1" />
    <text x="120" y="120" font-family="Arial" font-size="12" text-anchor="middle">T/2</text>
    
    <line x1="170" y1="100" x2="170" y2="105" stroke="black" stroke-width="1" />
    <text x="170" y="120" font-family="Arial" font-size="12" text-anchor="middle">3T/4</text>
    
    <line x1="220" y1="100" x2="220" y2="105" stroke="black" stroke-width="1" />
    <text x="220" y="120" font-family="Arial" font-size="12" text-anchor="middle">T</text>
    
    <line x1="270" y1="100" x2="270" y2="105" stroke="black" stroke-width="1" />
    <text x="270" y="120" font-family="Arial" font-size="12" text-anchor="middle">5T/4</text>
    
    <line x1="320" y1="100" x2="320" y2="105" stroke="black" stroke-width="1" />
    <text x="320" y="120" font-family="Arial" font-size="12" text-anchor="middle">3T/2</text>
    
    <!-- Voltage waveform -->
    <path d="M20,100 Q45,50 70,100 Q95,150 120,100 Q145,50 170,100 Q195,150 220,100 Q245,50 270,100 Q295,150 320,100 Q345,50 370,100" 
          fill="none" stroke="#3498DB" stroke-width="2" class="waveform" />
    <text x="45" y="40" font-family="Arial" font-size="14" fill="#3498DB">Source Voltage</text>
    
    <!-- Current waveform -->
    <path d="M20,100 Q45,30 70,100 Q95,170 120,100 Q145,30 170,100 Q195,170 220,100 Q245,30 270,100 Q295,170 320,100 Q345,30 370,100" 
          fill="none" stroke="#FF5733" stroke-width="2" class="waveform" />
    <text x="50" y="170" font-family="Arial" font-size="14" fill="#FF5733">Current (Maximum at resonance)</text>
  </g>
</svg> 