<?xml version="1.0" encoding="UTF-8" standalone="no"?>
<svg xmlns="http://www.w3.org/2000/svg" xmlns:xlink="http://www.w3.org/1999/xlink" width="600" height="600" viewBox="0 0 600 600">
  <style>
    .wire { stroke: #333; stroke-width: 2; fill: none; }
    .component { stroke: #333; stroke-width: 2; fill: white; }
    .core { fill: #8c6046; stroke: #333; stroke-width: 2; }
    .coil-primary { stroke: #c0392b; stroke-width: 2; fill: none; }
    .coil-secondary { stroke: #2980b9; stroke-width: 2; fill: none; }
    .electron { fill: #3498db; }
    .electron-primary { fill: #e74c3c; }
    .electron-secondary { fill: #3498db; }
    .current { stroke: #e74c3c; stroke-width: 2; fill: none; marker-end: url(#arrowhead); }
    .voltage { stroke: #8e44ad; stroke-width: 2; fill: none; marker-end: url(#voltageArrow); }
    .magnetic-field { stroke: #27ae60; stroke-width: 1.5; fill: none; }
    .magnetic-field-visible { stroke: #27ae60; stroke-width: 1.5; fill: none; }
    .magnetic-field-hidden { stroke: #27ae60; stroke-width: 1.5; fill: none; opacity: 0.1; }
    .sine-wave { stroke: #2980b9; stroke-width: 2; fill: none; }
    .formula { font-family: Arial; font-size: 14px; font-style: italic; }
    .title { font-family: Arial; font-size: 20px; font-weight: bold; }
    .subtitle { font-family: Arial; font-size: 16px; font-weight: bold; }
    .label { font-family: Arial; font-size: 14px; }
    .formula-box { fill: #f5f5f5; stroke: #ddd; stroke-width: 1; rx: 10; ry: 10; }
    .info-box { fill: #f5f5f5; stroke: #ddd; stroke-width: 1; rx: 10; ry: 10; }
    .highlight { stroke: #e74c3c; stroke-width: 3; stroke-dasharray: 5,3; fill: none; }
  </style>
  
  <defs>
    <marker id="arrowhead" markerWidth="10" markerHeight="7" refX="9" refY="3.5" orient="auto">
      <polygon points="0 0, 10 3.5, 0 7" fill="#e74c3c" />
    </marker>
    <marker id="voltageArrow" markerWidth="10" markerHeight="7" refX="9" refY="3.5" orient="auto">
      <polygon points="0 0, 10 3.5, 0 7" fill="#8e44ad" />
    </marker>
    
    <!-- Define sine wave path for reuse -->
    <path id="sine-template" d="M0,0 C5,-10 15,-10 20,0 C25,10 35,10 40,0" />
    
    <!-- Magnetic field path templates -->
    <path id="field-right" d="M0,0 C6,0 10,4 10,10 C10,16 6,20 0,20" />
    <path id="field-left" d="M0,0 C-6,0 -10,4 -10,10 C-10,16 -6,20 0,20" />
  </defs>
  
  <rect width="100%" height="100%" fill="white"/>
  
  <!-- Title -->
  <text class="title" x="300" y="40" text-anchor="middle">Transformer Operation</text>
  
  <!-- Transformer Core -->
  <g transform="translate(300, 230)">
    <!-- E-shaped Core -->
    <path d="M-120,-80 L80,-80 L80,-70 L-30,-70 L-30,70 L80,70 L80,80 L-120,80 L-120,-80" class="core"/>
    
    <!-- Primary Coil -->
    <g transform="translate(-75, 0)">
      <path d="M-20,-50 L-20,-46 C-26,-46 -30,-42 -30,-36 L-30,-30 L-26,-30 C-26,-36 -22,-40 -16,-40 L-16,-36 C-22,-36 -26,-32 -26,-26 L-26,-20 L-22,-20 C-22,-26 -18,-30 -12,-30 L-12,-26 C-18,-26 -22,-22 -22,-16 L-22,-10 L-18,-10 C-18,-16 -14,-20 -8,-20 L-8,-16 C-14,-16 -18,-12 -18,-6 L-18,0 L-14,0 C-14,-6 -10,-10 -4,-10 L-4,-6 C-10,-6 -14,-2 -14,4 L-14,10 L-10,10 C-10,4 -6,0 0,0 L0,4 C-6,4 -10,8 -10,14 L-10,20 L-6,20 C-6,14 -2,10 4,10 L4,14 C-2,14 -6,18 -6,24 L-6,30 L-2,30 C-2,24 2,20 8,20 L8,24 C2,24 -2,28 -2,34 L-2,40 L2,40 C2,34 6,30 12,30 L12,34 C6,34 2,38 2,44 L2,50 L20,50 L20,-50 L-20,-50" class="coil-primary"/>
      <text class="label" x="0" y="-60" text-anchor="middle" fill="#c0392b">Primary Coil</text>
      <text class="label" x="0" y="-70" text-anchor="middle" fill="#c0392b">N₁ = 10 turns</text>
    </g>
    
    <!-- Secondary Coil -->
    <g transform="translate(75, 0)">
      <path d="M-20,-50 L-20,-42 C-28,-42 -34,-36 -34,-28 L-34,-20 L-26,-20 C-26,-28 -20,-34 -12,-34 L-12,-26 C-20,-26 -26,-20 -26,-12 L-26,-4 L-18,-4 C-18,-12 -12,-18 -4,-18 L-4,-10 C-12,-10 -18,-4 -18,4 L-18,12 L-10,12 C-10,4 -4,-2 4,-2 L4,6 C-4,6 -10,12 -10,20 L-10,28 L-2,28 C-2,20 4,14 12,14 L12,22 C4,22 -2,28 -2,36 L-2,44 L6,44 C6,36 12,30 20,30 L20,50 L-20,50 L-20,-50" class="coil-secondary"/>
      <text class="label" x="0" y="-60" text-anchor="middle" fill="#2980b9">Secondary Coil</text>
      <text class="label" x="0" y="-70" text-anchor="middle" fill="#2980b9">N₂ = 20 turns</text>
    </g>
    
    <!-- Magnetic Field Lines -->
    <g id="magnetic-field">
      <!-- Horizontal Field Lines -->
      <path d="M-100,-60 L60,-60" class="magnetic-field">
        <animate attributeName="class" 
                 dur="2s"
                 repeatCount="indefinite"
                 values="magnetic-field-visible;magnetic-field-hidden;magnetic-field-visible"
                 keyTimes="0;0.5;1"
                 calcMode="linear"/>
      </path>
      <path d="M-100,-30 L-50,-30" class="magnetic-field">
        <animate attributeName="class" 
                 dur="2s"
                 repeatCount="indefinite"
                 values="magnetic-field-visible;magnetic-field-hidden;magnetic-field-visible"
                 keyTimes="0;0.5;1"
                 calcMode="linear"
                 begin="0.2s"/>
      </path>
      <path d="M-100,0 L-50,0" class="magnetic-field">
        <animate attributeName="class" 
                 dur="2s"
                 repeatCount="indefinite"
                 values="magnetic-field-visible;magnetic-field-hidden;magnetic-field-visible"
                 keyTimes="0;0.5;1"
                 calcMode="linear"
                 begin="0.4s"/>
      </path>
      <path d="M-100,30 L-50,30" class="magnetic-field">
        <animate attributeName="class" 
                 dur="2s"
                 repeatCount="indefinite"
                 values="magnetic-field-visible;magnetic-field-hidden;magnetic-field-visible"
                 keyTimes="0;0.5;1"
                 calcMode="linear"
                 begin="0.6s"/>
      </path>
      <path d="M-100,60 L60,60" class="magnetic-field">
        <animate attributeName="class" 
                 dur="2s"
                 repeatCount="indefinite"
                 values="magnetic-field-visible;magnetic-field-hidden;magnetic-field-visible"
                 keyTimes="0;0.5;1"
                 calcMode="linear"
                 begin="0.8s"/>
      </path>
      
      <!-- Vertical Field Lines -->
      <path d="M-50,-60 L-50,-30" class="magnetic-field">
        <animate attributeName="class" 
                 dur="2s"
                 repeatCount="indefinite"
                 values="magnetic-field-visible;magnetic-field-hidden;magnetic-field-visible"
                 keyTimes="0;0.5;1"
                 calcMode="linear"
                 begin="0.1s"/>
      </path>
      <path d="M-50,30 L-50,60" class="magnetic-field">
        <animate attributeName="class" 
                 dur="2s"
                 repeatCount="indefinite"
                 values="magnetic-field-visible;magnetic-field-hidden;magnetic-field-visible"
                 keyTimes="0;0.5;1"
                 calcMode="linear"
                 begin="0.3s"/>
      </path>
      <path d="M60,-60 L60,60" class="magnetic-field">
        <animate attributeName="class" 
                 dur="2s"
                 repeatCount="indefinite"
                 values="magnetic-field-visible;magnetic-field-hidden;magnetic-field-visible"
                 keyTimes="0;0.5;1"
                 calcMode="linear"
                 begin="0.5s"/>
      </path>
    </g>
    
    <!-- Primary Circuit -->
    <g transform="translate(-170, 0)">
      <!-- AC Source -->
      <circle cx="-30" cy="0" r="25" class="component"/>
      <text class="label" x="-30" y="5" text-anchor="middle">AC</text>
      <use xlink:href="#sine-template" transform="translate(-50,-5) scale(0.4)" class="sine-wave" stroke="#c0392b"/>
      
      <!-- Wires -->
      <line x1="-5" y1="0" x2="50" y2="0" class="wire" stroke="#c0392b"/>
      <line x1="-30" y1="25" x2="-30" y2="70" class="wire" stroke="#c0392b"/>
      <line x1="-30" y1="70" x2="75" y2="70" class="wire" stroke="#c0392b"/>
      <line x1="75" y1="70" x2="75" y2="50" class="wire" stroke="#c0392b"/>
      <line x1="75" y1="-50" x2="75" y2="-70" class="wire" stroke="#c0392b"/>
      <line x1="75" y1="-70" x2="-30" y2="-70" class="wire" stroke="#c0392b"/>
      <line x1="-30" y1="-70" x2="-30" y2="-25" class="wire" stroke="#c0392b"/>
      
      <!-- Current Markers -->
      <path d="M10,0 Q20,5 30,0" class="current" stroke="#c0392b">
        <animate attributeName="d" 
                 dur="2s"
                 repeatCount="indefinite"
                 values="M10,0 Q20,5 30,0;M10,0 Q20,-5 30,0;M10,0 Q20,5 30,0"
                 keyTimes="0;0.5;1"
                 calcMode="linear"/>
      </path>
      <text class="label" x="20" y="-10" text-anchor="middle" fill="#c0392b">i₁</text>
      
      <!-- Voltage Markers -->
      <line x1="75" y1="-55" x2="95" y2="-55" class="voltage" stroke="#c0392b"/>
      <text class="label" x="90" y="-65" text-anchor="middle" fill="#c0392b">v₁</text>
      
      <!-- Electrons in primary circuit -->
      <circle class="electron-primary" cx="20" cy="0" r="3">
        <animate attributeName="cx" 
                 dur="3s"
                 repeatCount="indefinite"
                 values="0;30;60;75;75;75;60;30;0;-30;-30;-30;-30;0"
                 keyTimes="0;0.1;0.2;0.25;0.3;0.35;0.4;0.5;0.6;0.7;0.75;0.8;0.9;1"
                 calcMode="linear"/>
        <animate attributeName="cy" 
                 dur="3s"
                 repeatCount="indefinite"
                 values="0;0;0;-20;-40;-50;-60;-70;-70;-70;-35;0;35;70;70;70;50;35;20;0"
                 keyTimes="0;0.1;0.15;0.2;0.225;0.25;0.275;0.3;0.35;0.4;0.45;0.5;0.55;0.6;0.65;0.7;0.75;0.8;0.9;1"
                 calcMode="linear"/>
      </circle>
      
      <circle class="electron-primary" cx="-10" cy="0" r="3">
        <animate attributeName="cx" 
                 dur="3s"
                 repeatCount="indefinite"
                 values="0;30;60;75;75;75;60;30;0;-30;-30;-30;-30;0"
                 keyTimes="0;0.1;0.2;0.25;0.3;0.35;0.4;0.5;0.6;0.7;0.75;0.8;0.9;1"
                 calcMode="linear"
                 begin="1.5s"/>
        <animate attributeName="cy" 
                 dur="3s"
                 repeatCount="indefinite"
                 values="0;0;0;-20;-40;-50;-60;-70;-70;-70;-35;0;35;70;70;70;50;35;20;0"
                 keyTimes="0;0.1;0.15;0.2;0.225;0.25;0.275;0.3;0.35;0.4;0.45;0.5;0.55;0.6;0.65;0.7;0.75;0.8;0.9;1"
                 calcMode="linear"
                 begin="1.5s"/>
      </circle>
    </g>
    
    <!-- Secondary Circuit -->
    <g transform="translate(170, 0)">
      <!-- Load (resistor) -->
      <rect x="5" y="-15" width="40" height="30" rx="5" class="component"/>
      <line x1="15" y1="-5" x2="35" y2="-5" class="wire"/>
      <line x1="15" y1="0" x2="35" y2="0" class="wire"/>
      <line x1="15" y1="5" x2="35" y2="5" class="wire"/>
      <line x1="15" y1="10" x2="35" y2="10" class="wire"/>
      <text class="label" x="25" y="-25" text-anchor="middle">Load</text>
      
      <!-- Wires -->
      <line x1="-75" y1="-50" x2="-75" y2="-70" class="wire" stroke="#2980b9"/>
      <line x1="-75" y1="-70" x2="25" y2="-70" class="wire" stroke="#2980b9"/>
      <line x1="25" y1="-70" x2="25" y2="-15" class="wire" stroke="#2980b9"/>
      <line x1="25" y1="15" x2="25" y2="70" class="wire" stroke="#2980b9"/>
      <line x1="25" y1="70" x2="-75" y2="70" class="wire" stroke="#2980b9"/>
      <line x1="-75" y1="70" x2="-75" y2="50" class="wire" stroke="#2980b9"/>
      
      <!-- Current Markers -->
      <path d="M-60,-70 Q-50,-75 -40,-70" class="current" stroke="#2980b9">
        <animate attributeName="d" 
                 dur="2s"
                 repeatCount="indefinite"
                 values="M-60,-70 Q-50,-75 -40,-70;M-60,-70 Q-50,-65 -40,-70;M-60,-70 Q-50,-75 -40,-70"
                 keyTimes="0;0.5;1"
                 calcMode="linear"/>
      </path>
      <text class="label" x="-50" y="-80" text-anchor="middle" fill="#2980b9">i₂</text>
      
      <!-- Voltage Markers -->
      <line x1="-75" y1="-55" x2="-95" y2="-55" class="voltage" stroke="#2980b9"/>
      <text class="label" x="-90" y="-65" text-anchor="middle" fill="#2980b9">v₂</text>
      
      <!-- Electrons in secondary circuit -->
      <circle class="electron-secondary" cx="-10" cy="-70" r="3">
        <animate attributeName="cx" 
                 dur="3s"
                 repeatCount="indefinite"
                 values="-70;-35;0;25;25;25;25;0;-35;-70;-75;-75;-75;-75;-70"
                 keyTimes="0;0.1;0.2;0.3;0.35;0.4;0.45;0.5;0.6;0.7;0.75;0.8;0.85;0.9;1"
                 calcMode="linear"/>
        <animate attributeName="cy" 
                 dur="3s"
                 repeatCount="indefinite"
                 values="-70;-70;-70;-70;-50;-25;0;15;30;50;70;70;70;50;20;0;-20;-40;-70"
                 keyTimes="0;0.1;0.2;0.25;0.3;0.35;0.4;0.45;0.5;0.55;0.6;0.7;0.75;0.8;0.85;0.9;0.925;0.95;1"
                 calcMode="linear"/>
      </circle>
      
      <circle class="electron-secondary" cx="10" cy="-70" r="3">
        <animate attributeName="cx" 
                 dur="3s"
                 repeatCount="indefinite"
                 values="-70;-35;0;25;25;25;25;0;-35;-70;-75;-75;-75;-75;-70"
                 keyTimes="0;0.1;0.2;0.3;0.35;0.4;0.45;0.5;0.6;0.7;0.75;0.8;0.85;0.9;1"
                 calcMode="linear"
                 begin="1.5s"/>
        <animate attributeName="cy" 
                 dur="3s"
                 repeatCount="indefinite"
                 values="-70;-70;-70;-70;-50;-25;0;15;30;50;70;70;70;50;20;0;-20;-40;-70"
                 keyTimes="0;0.1;0.2;0.25;0.3;0.35;0.4;0.45;0.5;0.55;0.6;0.7;0.75;0.8;0.85;0.9;0.925;0.95;1"
                 calcMode="linear"
                 begin="1.5s"/>
      </circle>
    </g>
  </g>
  
  <!-- Waveform Display -->
  <g transform="translate(150, 400)">
    <rect x="-100" y="-60" width="200" height="120" class="info-box"/>
    <text class="subtitle" x="0" y="-45" text-anchor="middle">Voltage Waveforms</text>
    
    <!-- Coordinate axes -->
    <line x1="-90" y1="0" x2="90" y2="0" stroke="#777" stroke-width="1"/>
    <line x1="-90" y1="-40" x2="-90" y2="40" stroke="#777" stroke-width="1"/>
    
    <!-- Primary voltage waveform -->
    <path d="M-90,0 C-80,-25 -70,-25 -60,0 C-50,25 -40,25 -30,0 C-20,-25 -10,-25 0,0 C10,25 20,25 30,0 C40,-25 50,-25 60,0 C70,25 80,25 90,0"
          stroke="#c0392b" stroke-width="2" fill="none">
      <animate attributeName="d" 
               dur="3s"
               repeatCount="indefinite"
               values="M-90,0 C-80,-25 -70,-25 -60,0 C-50,25 -40,25 -30,0 C-20,-25 -10,-25 0,0 C10,25 20,25 30,0 C40,-25 50,-25 60,0 C70,25 80,25 90,0;
                       M-90,0 C-80,25 -70,25 -60,0 C-50,-25 -40,-25 -30,0 C-20,25 -10,25 0,0 C10,-25 20,-25 30,0 C40,25 50,25 60,0 C70,-25 80,-25 90,0;
                       M-90,0 C-80,-25 -70,-25 -60,0 C-50,25 -40,25 -30,0 C-20,-25 -10,-25 0,0 C10,25 20,25 30,0 C40,-25 50,-25 60,0 C70,25 80,25 90,0"
               keyTimes="0;0.5;1"
               calcMode="linear"/>
    </path>
    <text class="label" x="-95" y="-20" text-anchor="end" fill="#c0392b">v₁</text>
    
    <!-- Secondary voltage waveform (larger amplitude) -->
    <path d="M-90,0 C-80,-40 -70,-40 -60,0 C-50,40 -40,40 -30,0 C-20,-40 -10,-40 0,0 C10,40 20,40 30,0 C40,-40 50,-40 60,0 C70,40 80,40 90,0"
          stroke="#2980b9" stroke-width="2" fill="none" stroke-dasharray="5,3">
      <animate attributeName="d" 
               dur="3s"
               repeatCount="indefinite"
               values="M-90,0 C-80,-40 -70,-40 -60,0 C-50,40 -40,40 -30,0 C-20,-40 -10,-40 0,0 C10,40 20,40 30,0 C40,-40 50,-40 60,0 C70,40 80,40 90,0;
                       M-90,0 C-80,40 -70,40 -60,0 C-50,-40 -40,-40 -30,0 C-20,40 -10,40 0,0 C10,-40 20,-40 30,0 C40,40 50,40 60,0 C70,-40 80,-40 90,0;
                       M-90,0 C-80,-40 -70,-40 -60,0 C-50,40 -40,40 -30,0 C-20,-40 -10,-40 0,0 C10,40 20,40 30,0 C40,-40 50,-40 60,0 C70,40 80,40 90,0"
               keyTimes="0;0.5;1"
               calcMode="linear"/>
    </path>
    <text class="label" x="-95" y="30" text-anchor="end" fill="#2980b9">v₂</text>
  </g>
  
  <!-- Transformer Equations -->
  <g transform="translate(450, 400)">
    <rect x="-130" y="-60" width="260" height="120" class="formula-box"/>
    <text class="subtitle" x="0" y="-40" text-anchor="middle">Transformer Equations</text>
    
    <text class="formula" x="-120" y="-15" text-anchor="start">Voltage Ratio: V₂/V₁ = N₂/N₁ = 2</text>
    <text class="formula" x="-120" y="10" text-anchor="start">Current Ratio: I₁/I₂ = N₂/N₁ = 2</text>
    <text class="formula" x="-120" y="35" text-anchor="start">Power: P₁ = P₂ (ideally)</text>
  </g>
  
  <!-- Faraday's Law -->
  <g transform="translate(150, 540)">
    <rect x="-130" y="-60" width="260" height="120" class="formula-box"/>
    <text class="subtitle" x="0" y="-40" text-anchor="middle">Faraday's Law</text>
    
    <text class="formula" x="-120" y="-15" text-anchor="start">ε = -N dΦ/dt</text>
    <text class="formula" x="-120" y="5" text-anchor="start">where:</text>
    <text class="formula" x="-110" y="25" text-anchor="start">ε = induced EMF</text>
    <text class="formula" x="-110" y="45" text-anchor="start">N = number of turns</text>
    <text class="formula" x="20" y="25" text-anchor="start">dΦ/dt = rate of change</text>
    <text class="formula" x="20" y="45" text-anchor="start">of magnetic flux</text>
  </g>
  
  <!-- Applications -->
  <g transform="translate(450, 540)">
    <rect x="-130" y="-60" width="260" height="120" class="info-box"/>
    <text class="subtitle" x="0" y="-40" text-anchor="middle">Applications</text>
    
    <text class="label" x="-120" y="-15" text-anchor="start">• Power distribution</text>
    <text class="label" x="-120" y="5" text-anchor="start">• Voltage conversion</text>
    <text class="label" x="-120" y="25" text-anchor="start">• Electrical isolation</text>
    <text class="label" x="-120" y="45" text-anchor="start">• Impedance matching</text>
  </g>
</svg> 