<?xml version="1.0" encoding="UTF-8" standalone="no"?>
<svg width="600" height="400" xmlns="http://www.w3.org/2000/svg">
  <!-- Background -->
  <rect width="600" height="400" fill="white"/>
  
  <!-- Title -->
  <text x="120" y="40" font-family="Arial" font-size="24" font-weight="bold" fill="black">Light Propagation Modes in Optical Fibers</text>
  
  <!-- Fiber outline -->
  <rect x="50" y="100" width="500" height="200" rx="20" ry="20" fill="#E0E0E0" stroke="black" stroke-width="2"/>
  <rect x="50" y="125" width="500" height="150" rx="10" ry="10" fill="#C0C0C0" stroke="black" stroke-width="1"/>
  <rect x="50" y="150" width="500" height="100" fill="#A0D0FF" stroke="black" stroke-width="1"/>
  
  <!-- Core-cladding labels -->
  <text x="30" y="200" font-family="Arial" font-size="16" fill="black">Core</text>
  <text x="20" y="140" font-family="Arial" font-size="16" fill="black">Cladding</text>
  
  <!-- Fundamental mode (LP01) -->
  <path d="M 100,200 Q 150,150 200,200 Q 250,250 300,200 Q 350,150 400,200 Q 450,250 500,200" 
        stroke="red" stroke-width="3" fill="none"/>
  <text x="100" y="230" font-family="Arial" font-size="14" fill="red">Fundamental Mode (LP01)</text>
  
  <!-- Second mode (LP11) -->
  <path d="M 100,180 Q 150,220 200,180 Q 250,140 300,180 Q 350,220 400,180 Q 450,140 500,180" 
        stroke="blue" stroke-width="2" fill="none" stroke-dasharray="5,5"/>
  <path d="M 100,220 Q 150,180 200,220 Q 250,260 300,220 Q 350,180 400,220 Q 450,260 500,220" 
        stroke="blue" stroke-width="2" fill="none" stroke-dasharray="5,5"/>
  <text x="100" y="260" font-family="Arial" font-size="14" fill="blue">Higher Order Mode (LP11)</text>
  
  <!-- Field intensity distributions -->
  <circle cx="550" cy="200" r="30" fill="url(#LP01)" stroke="black"/>
  <text x="550" y="245" font-family="Arial" font-size="12" text-anchor="middle" fill="black">LP01</text>
  
  <circle cx="550" cy="300" r="30" fill="url(#LP11)" stroke="black"/>
  <text x="550" y="345" font-family="Arial" font-size="12" text-anchor="middle" fill="black">LP11</text>
  
  <!-- Gradients for mode patterns -->
  <defs>
    <radialGradient id="LP01" cx="50%" cy="50%" r="50%" fx="50%" fy="50%">
      <stop offset="0%" style="stop-color:rgb(255,0,0);stop-opacity:1" />
      <stop offset="100%" style="stop-color:rgb(255,255,255);stop-opacity:0" />
    </radialGradient>
    
    <radialGradient id="LP11" cx="50%" cy="50%" r="50%" fx="50%" fy="50%">
      <stop offset="0%" style="stop-color:rgb(0,0,255);stop-opacity:0" />
      <stop offset="50%" style="stop-color:rgb(0,0,255);stop-opacity:1" />
      <stop offset="100%" style="stop-color:rgb(255,255,255);stop-opacity:0" />
    </radialGradient>
  </defs>
  
  <!-- Mode equations -->
  <text x="50" y="320" font-family="Arial" font-size="14" fill="black">Single-mode: V &lt; 2.405</text>
  <text x="50" y="345" font-family="Arial" font-size="14" fill="black">Multimode: V &gt; 2.405</text>
  <text x="50" y="370" font-family="Arial" font-size="14" fill="black">V = (2πa/λ)√(n₁² - n₂²)</text>
  
  <!-- Propagation direction -->
  <line x1="550" y1="100" x2="550" y2="150" stroke="black" stroke-width="2" marker-end="url(#arrow)"/>
  <text x="560" y="125" font-family="Arial" font-size="14" fill="black">z</text>
  
  <!-- Arrow marker -->
  <defs>
    <marker id="arrow" markerWidth="10" markerHeight="10" refX="9" refY="3" orient="auto" markerUnits="strokeWidth">
      <path d="M0,0 L0,6 L9,3 z" fill="black"/>
    </marker>
  </defs>
</svg>
